<?xml version="1.0" standalone="no"?>
<!DOCTYPE svg PUBLIC "-//W3C//DTD SVG 20010904//EN"
 "http://www.w3.org/TR/2001/REC-SVG-20010904/DTD/svg10.dtd">
<svg version="1.0" xmlns="http://www.w3.org/2000/svg"
 width="570.000000pt" height="572.000000pt" viewBox="0 0 570.000000 572.000000"
 preserveAspectRatio="xMidYMid meet">

<g transform="translate(0.000000,572.000000) scale(0.100000,-0.100000)"
fill="#000000" stroke="none">
<path d="M3043 5643 c9 -2 25 -2 35 0 9 3 1 5 -18 5 -19 0 -27 -2 -17 -5z"/>
<path d="M2823 5629 c-34 -5 -90 -18 -124 -29 -35 -10 -66 -17 -71 -14 -4 3
-8 1 -8 -5 0 -5 -10 -13 -22 -16 -37 -11 -194 -93 -270 -140 -39 -24 -75 -42
-80 -39 -5 3 -7 1 -6 -4 4 -13 -98 -83 -107 -74 -4 4 -5 2 -3 -3 2 -6 -28 -38
-67 -71 -78 -68 -221 -216 -280 -290 -48 -60 -61 -74 -50 -54 5 8 4 11 0 7 -5
-4 -10 -14 -11 -22 -3 -19 -65 -95 -77 -95 -6 0 -8 -3 -4 -6 7 -7 -48 -92 -72
-112 -9 -7 -17 -17 -17 -22 -1 -6 -2 -15 -3 -21 0 -5 -6 -7 -13 -3 -6 4 -8 3
-4 -4 6 -10 -68 -140 -89 -154 -10 -7 -11 -11 -14 -42 0 -8 -7 -21 -13 -28
-34 -36 -83 -139 -87 -181 -1 -5 -5 -5 -11 -2 -5 3 -10 -3 -10 -13 0 -11 -18
-55 -39 -98 -21 -44 -42 -95 -46 -114 -4 -19 -11 -39 -15 -45 -17 -22 -71
-170 -118 -325 -65 -213 -152 -582 -192 -820 -48 -283 -150 -599 -256 -789
-37 -67 -100 -210 -124 -282 -45 -138 -45 -373 1 -552 81 -318 318 -631 576
-761 40 -20 87 -36 106 -36 24 0 53 -15 112 -58 216 -159 413 -223 592 -193
67 12 180 57 213 85 8 8 45 23 82 35 37 12 82 32 100 44 18 13 53 29 78 36 48
14 114 49 168 89 38 28 65 25 109 -12 15 -13 66 -44 113 -69 47 -24 128 -68
180 -97 176 -98 205 -111 291 -126 166 -30 368 10 569 113 36 18 79 33 96 33
108 0 335 96 473 201 258 194 468 543 526 873 20 119 20 383 -2 572 -24 215
-24 666 2 919 26 269 27 892 1 1075 -37 265 -101 522 -172 699 -107 265 -306
523 -504 653 -264 173 -563 299 -862 363 -95 20 -311 46 -243 29 11 -2 61 -14
110 -26 297 -69 544 -286 719 -630 102 -199 175 -457 221 -773 20 -143 25
-376 8 -382 -10 -4 -13 19 -13 94 0 339 -99 774 -235 1046 -124 245 -330 469
-520 565 -74 37 -222 81 -328 96 -114 17 -169 18 -264 5z m792 -557 c52 -32
145 -123 191 -187 136 -192 246 -552 275 -908 19 -220 -6 -608 -57 -888 -9
-47 -19 -91 -23 -98 -6 -9 -23 -5 -67 14 -116 52 -281 69 -434 44 -94 -14
-246 -69 -332 -118 -190 -109 -390 -286 -523 -464 -41 -54 -76 -99 -79 -100
-3 -1 -24 21 -47 48 -97 117 -135 157 -205 215 -154 128 -321 214 -479 247
-38 8 -70 15 -71 16 -2 1 8 67 21 145 109 652 419 1268 841 1672 113 108 207
175 344 248 178 94 313 130 495 131 100 1 125 -2 150 -17z m579 -1349 c-19
-303 -72 -678 -113 -808 -11 -33 -20 -53 -20 -45 -1 13 -2 13 -12 0 -8 -12 -9
-11 -5 5 51 205 90 471 110 743 12 162 18 190 44 192 1 0 0 -39 -4 -87z m-614
-1377 c0 -2 -8 -10 -17 -17 -16 -13 -17 -12 -4 4 13 16 21 21 21 13z m-50 -39
c0 -2 -10 -12 -22 -23 l-23 -19 19 23 c18 21 26 27 26 19z m-70 -60 c0 -2 -17
-19 -37 -38 l-38 -34 34 38 c33 34 41 42 41 34z m-610 -147 c0 -5 7 -10 15
-10 8 0 15 -4 15 -9 0 -15 63 -41 76 -31 6 5 -22 -57 -61 -138 -39 -81 -85
-178 -101 -215 -16 -37 -30 -63 -32 -57 -2 5 -11 10 -21 10 -10 0 -36 16 -59
36 -54 46 -55 81 -4 194 8 19 15 41 15 48 0 6 4 12 8 12 12 0 39 61 32 73 -3
5 -1 7 4 4 6 -4 25 15 43 43 20 31 39 50 51 50 10 0 19 -4 19 -10z m-2193
-442 c-2 -35 -3 -9 -3 57 0 66 1 94 3 63 2 -32 2 -86 0 -120z m2663 37 c0 -11
-80 -167 -80 -156 0 11 -3 11 -15 1 -14 -11 -14 -10 -5 16 28 75 73 152 86
147 8 -3 14 -6 14 -8z m220 -377 c0 -7 -7 -48 -15 -91 -23 -123 -20 -256 11
-376 14 -57 23 -105 20 -109 -11 -10 -26 13 -48 74 -38 107 -36 422 3 497 11
20 29 23 29 5z m1281 -75 c-26 -144 -109 -338 -188 -438 -42 -53 -68 -74 -79
-62 -3 2 22 45 55 93 101 151 135 231 191 453 8 32 14 41 22 33 9 -9 8 -30 -1
-79z m-2103 -714 c11 -10 22 -15 25 -12 3 2 13 -10 23 -29 9 -18 36 -61 60
-95 24 -35 40 -63 36 -62 -4 0 -38 21 -77 47 -66 44 -106 91 -150 174 l-15 26
40 -15 c21 -9 48 -24 58 -34z m958 10 c3 -6 -5 -3 -20 6 -14 10 -26 19 -26 22
0 7 39 -17 46 -28z m-2187 -201 c36 -23 75 -50 86 -60 22 -18 73 -27 92 -15 7
4 58 -6 115 -23 57 -17 135 -35 173 -39 39 -5 58 -9 43 -10 -16 0 -38 -11 -50
-23 -42 -42 -162 -49 -277 -17 -114 32 -168 69 -100 69 38 0 30 15 -13 24 -38
7 -168 93 -168 111 0 14 10 25 23 25 6 0 40 -19 76 -42z"/>
<path d="M1402 358 c7 -21 121 -97 146 -98 12 0 22 3 22 8 0 9 -145 102 -160
102 -6 0 -10 -6 -8 -12z"/>
<path d="M1740 200 c-12 -7 -13 -13 -4 -27 9 -14 23 -17 59 -16 61 4 91 19 74
39 -13 16 -105 19 -129 4z"/>
</g>
</svg>
