<?xml version="1.0" standalone="no"?>
<!DOCTYPE svg PUBLIC "-//W3C//DTD SVG 20010904//EN"
 "http://www.w3.org/TR/2001/REC-SVG-20010904/DTD/svg10.dtd">
<svg version="1.0" xmlns="http://www.w3.org/2000/svg"
 width="1500.000000pt" height="1500.000000pt" viewBox="0 0 1500.000000 1500.000000"
 preserveAspectRatio="xMidYMid meet">

<g transform="translate(0.000000,1500.000000) scale(0.100000,-0.100000)"
fill="#000000" stroke="none">
<path d="M22 14983 c8 -10 62 -76 119 -148 120 -150 119 -149 190 -235 30 -36
72 -88 94 -115 21 -28 42 -52 45 -55 3 -3 68 -84 145 -180 77 -96 142 -177
145 -180 3 -3 30 -36 60 -75 30 -38 65 -81 77 -95 88 -103 214 -253 243 -290
19 -25 37 -47 40 -50 4 -3 51 -61 106 -130 54 -69 101 -127 104 -130 7 -6 108
-131 170 -210 46 -60 121 -151 130 -160 3 -3 49 -60 103 -127 53 -67 103 -128
110 -135 7 -7 34 -41 60 -75 26 -34 53 -68 60 -75 6 -7 75 -92 152 -188 77
-96 145 -179 151 -185 6 -5 26 -30 45 -55 19 -25 69 -88 112 -140 101 -122
100 -120 181 -220 38 -47 75 -92 83 -102 13 -14 7 -21 -54 -60 -37 -25 -113
-78 -169 -119 -55 -41 -111 -81 -123 -89 -13 -8 -37 -25 -54 -38 -73 -54 -432
-282 -443 -282 -3 0 -145 -83 -224 -130 -8 -5 -46 -28 -85 -51 -98 -59 -202
-134 -252 -182 -41 -39 -43 -44 -43 -97 0 -65 -6 -76 -31 -54 -10 9 -25 14
-34 10 -19 -7 -87 -150 -111 -236 -26 -91 -26 -371 0 -480 63 -265 123 -452
201 -625 46 -103 148 -308 174 -350 41 -65 50 -79 57 -95 7 -15 194 -295 240
-359 30 -43 163 -227 274 -381 47 -65 92 -128 100 -140 8 -12 24 -34 35 -48
19 -24 119 -164 147 -206 14 -20 113 -155 125 -171 5 -5 64 -89 133 -185 69
-96 128 -179 133 -185 9 -12 112 -152 131 -180 8 -11 52 -72 99 -136 46 -64
99 -138 117 -165 19 -27 36 -51 39 -54 7 -5 79 -105 175 -240 33 -47 64 -89
68 -95 33 -41 138 -185 138 -190 0 -3 5 -11 10 -18 11 -12 127 -171 215 -293
27 -38 102 -141 165 -229 64 -88 140 -194 170 -235 30 -41 91 -126 137 -187
46 -62 83 -117 83 -123 0 -5 4 -10 9 -10 5 0 20 -17 32 -37 12 -21 34 -52 48
-69 14 -18 82 -109 151 -204 191 -262 644 -875 675 -912 8 -9 55 -72 106 -140
89 -119 188 -248 199 -258 3 -3 41 -50 85 -105 217 -271 549 -618 755 -789 58
-48 114 -95 125 -105 91 -81 422 -309 584 -403 385 -224 812 -407 1241 -534
47 -14 94 -29 105 -34 11 -4 40 -13 65 -20 25 -6 70 -18 100 -26 105 -29 289
-71 390 -90 403 -76 543 -89 980 -89 395 0 483 6 745 51 243 42 598 140 765
211 14 6 66 28 115 48 216 90 571 292 657 374 9 9 31 27 49 41 98 73 287 261
377 374 31 39 59 73 62 76 3 3 10 13 15 22 6 9 34 51 63 93 28 41 52 78 52 80
0 3 12 24 26 47 29 46 100 186 134 263 12 28 28 64 36 82 8 17 14 42 14 55 -1
16 -10 4 -33 -42 -36 -70 -59 -112 -67 -120 -3 -3 -19 -25 -35 -50 -29 -43
-34 -50 -62 -84 -7 -8 -13 -19 -13 -23 0 -5 -8 -16 -17 -24 -10 -9 -36 -38
-58 -65 -59 -74 -183 -193 -270 -260 -53 -41 -166 -119 -185 -127 -8 -4 -44
-25 -80 -48 -54 -34 -197 -107 -345 -175 -103 -47 -383 -139 -560 -183 -335
-83 -669 -117 -985 -101 -582 31 -1147 179 -1678 439 -45 23 -87 41 -92 41 -6
0 -10 5 -10 10 0 6 -5 10 -11 10 -9 0 -96 48 -179 100 -8 5 -61 37 -118 72
-145 88 -142 86 -239 153 -49 33 -89 63 -91 67 -2 5 -10 8 -17 8 -7 0 -15 3
-17 8 -1 4 -34 29 -73 56 -57 40 -207 155 -309 236 -26 20 -172 147 -220 190
-22 19 -64 57 -95 85 -66 58 -457 450 -551 551 -144 154 -303 337 -426 489
-26 33 -52 65 -56 70 -5 6 -38 48 -74 95 -37 47 -77 99 -90 115 -13 17 -50 66
-83 110 -87 116 -125 166 -136 179 -6 6 -26 34 -45 61 -18 28 -36 52 -39 55
-4 3 -21 25 -39 50 -18 25 -55 75 -82 112 -28 37 -50 71 -50 76 0 6 -7 12 -15
16 -8 3 -15 10 -15 16 0 6 -5 16 -10 23 -56 65 -129 179 -124 194 5 15 4 15
-5 3 -8 -12 -11 -11 -17 5 -4 11 -14 28 -23 38 -13 16 -13 20 -1 28 11 8 12
12 3 16 -7 2 -13 13 -13 23 0 10 -4 22 -10 25 -5 3 -10 17 -10 30 0 12 -6 25
-14 28 -17 7 -48 66 -40 79 7 11 -21 57 -49 79 -11 9 -18 22 -16 28 5 14 38
-14 84 -73 55 -70 108 -131 116 -134 5 -2 9 -9 9 -17 0 -7 7 -19 16 -26 9 -8
44 -50 77 -94 33 -44 74 -96 91 -116 40 -46 46 -54 184 -228 63 -80 130 -162
146 -181 17 -20 47 -56 66 -80 50 -62 138 -168 179 -215 20 -22 52 -60 71 -84
19 -25 42 -52 51 -60 9 -9 40 -43 69 -76 142 -163 223 -248 430 -455 232 -233
368 -362 460 -440 52 -44 123 -105 146 -125 6 -5 31 -26 54 -45 24 -19 57 -47
74 -61 45 -37 269 -205 351 -262 612 -426 1122 -673 1710 -831 78 -21 190 -47
218 -51 12 -2 58 -10 102 -18 244 -46 414 -61 660 -60 292 0 623 41 875 107
196 51 300 85 495 161 11 5 22 9 25 10 6 1 140 64 210 98 25 12 73 39 108 59
34 21 67 38 72 38 5 0 13 6 17 13 4 7 19 17 33 24 67 29 232 163 355 287 111
112 156 164 212 246 21 30 46 63 55 74 9 10 24 33 32 50 16 35 55 75 57 60 1
-5 3 -25 4 -44 1 -19 5 -46 9 -60 6 -19 5 -21 -3 -10 -14 21 -28 3 -14 -19 8
-12 8 -22 2 -28 -6 -6 -9 -26 -7 -44 l4 -34 8 43 c5 23 12 42 16 42 4 0 10 8
13 18 3 9 26 75 51 146 25 71 46 138 46 150 0 12 5 27 12 34 15 15 28 102 15
102 -6 0 -2 9 7 19 12 13 19 44 23 98 3 43 9 83 14 88 6 8 10 71 9 165 0 8 5
58 10 110 30 292 10 869 -46 1300 -22 177 -66 441 -90 550 -8 36 -26 119 -40
185 -45 205 -69 299 -124 495 -12 41 -25 89 -30 105 -4 17 -12 44 -18 60 -5
17 -24 77 -42 135 -18 58 -36 116 -42 130 -5 14 -20 56 -33 95 -13 38 -33 95
-45 125 -12 30 -25 66 -30 80 -16 47 -81 212 -105 265 -7 17 -35 80 -61 140
-59 135 -264 542 -327 648 -26 43 -47 80 -47 83 0 2 -20 35 -45 74 -25 39 -45
73 -45 76 0 2 -5 10 -10 17 -6 7 -51 73 -99 147 -49 74 -102 153 -118 175 -46
66 -107 149 -118 161 -5 7 -19 24 -30 39 -38 53 -178 226 -205 254 -9 9 -47
52 -85 95 -92 105 -346 359 -465 466 -52 47 -111 100 -131 118 -20 18 -52 45
-71 60 -19 15 -97 77 -172 137 -76 61 -174 136 -219 167 -203 142 -250 174
-272 188 -13 8 -88 56 -167 106 -294 187 -457 281 -812 463 -152 78 -428 207
-536 251 -30 12 -68 28 -85 35 -71 30 -125 52 -225 90 -19 8 -66 26 -105 41
-80 30 -383 131 -495 164 -197 57 -225 65 -370 101 -69 17 -145 34 -170 38
-25 5 -65 13 -90 19 -25 6 -81 17 -125 26 -44 8 -118 23 -165 33 -76 16 -143
18 -610 18 -650 1 -617 0 -625 25 -4 13 -19 23 -36 27 -16 3 -34 14 -40 24 -6
12 -21 19 -38 19 -16 0 -31 7 -35 15 -3 9 -18 15 -34 15 -16 0 -34 6 -40 13
-16 18 -173 15 -257 -5 -292 -72 -265 -69 -490 -44 -88 10 -214 20 -280 23
-103 5 -123 3 -134 -11 -9 -11 -30 -16 -68 -16 -29 0 -70 -7 -90 -15 -19 -8
-43 -15 -52 -15 -9 0 -29 -7 -45 -15 -15 -8 -38 -15 -50 -15 -13 0 -42 -6 -67
-14 -57 -18 -163 -41 -269 -60 -47 -8 -114 -20 -150 -26 -36 -7 -98 -14 -137
-17 -43 -4 -78 -11 -84 -19 -7 -9 -32 -14 -63 -14 -50 0 -52 1 -89 53 -20 29
-47 64 -60 77 -12 14 -48 57 -79 96 -32 39 -73 87 -90 106 -18 19 -69 79 -113
134 -44 54 -82 101 -85 104 -6 5 -60 72 -135 165 -75 94 -105 131 -220 270
-130 158 -122 148 -220 270 -44 55 -82 102 -85 105 -3 3 -25 30 -50 60 -25 30
-47 57 -50 60 -3 3 -49 59 -101 125 -53 66 -106 130 -117 143 -11 13 -35 42
-54 65 -18 22 -72 89 -120 147 -47 58 -126 155 -174 215 -49 61 -96 119 -105
130 -10 11 -45 54 -79 95 -34 41 -69 84 -79 95 -9 11 -54 67 -101 125 -46 58
-87 107 -90 110 -3 3 -21 25 -40 50 -19 25 -40 51 -47 58 -7 7 -29 34 -50 60
-21 26 -42 52 -48 58 -5 7 -50 62 -100 122 l-90 111 -204 1 c-193 0 -203 -1
-189 -17z m4145 -3007 c0 -10 -14 -13 -60 -10 -33 2 -63 7 -66 10 -3 4 17 4
46 1 29 -3 55 -2 58 4 9 14 22 11 22 -5z m80 -8 c18 1 46 -4 61 -10 30 -13 38
-14 100 -17 50 -1 57 -21 7 -21 -19 0 -35 -4 -35 -10 0 -5 -12 -10 -26 -10
-14 0 -23 4 -20 9 3 5 -2 12 -11 15 -9 4 -20 1 -24 -6 -6 -9 -12 -9 -26 2 -28
23 -61 40 -78 40 -9 0 -13 5 -10 10 4 6 11 7 17 4 6 -4 26 -7 45 -6z m710 -4
c-3 -3 -12 -4 -19 -1 -8 3 -5 6 6 6 11 1 17 -2 13 -5z m97 -19 c4 -11 -2 -15
-24 -15 -20 0 -30 5 -30 15 0 9 9 15 24 15 13 0 26 -7 30 -15z m47 -31 c12
-14 11 -16 -5 -13 -11 2 -21 10 -24 17 -5 17 13 15 29 -4z m1318 -635 c183
-88 414 -205 469 -238 29 -17 55 -31 57 -31 9 0 310 -183 343 -208 119 -91 59
-207 -132 -257 -33 -8 -61 -13 -63 -12 -5 6 28 67 37 67 4 0 22 14 39 32 39
40 41 82 6 120 -44 48 -472 320 -590 375 -58 27 -66 28 -215 28 -149 0 -157
-1 -215 -28 -65 -31 -95 -57 -95 -84 0 -10 -4 -23 -8 -30 -7 -12 -54 -33 -73
-33 -18 0 -8 21 16 32 27 12 34 28 12 28 -7 0 -36 16 -66 35 -29 19 -56 35
-59 35 -4 0 -20 11 -37 24 l-30 24 75 22 c41 12 84 28 95 35 11 6 56 24 100
38 44 15 109 38 145 51 36 13 69 24 74 25 5 0 57 -22 115 -50z m-842 -255 c-3
-3 -12 -4 -19 -1 -8 3 -5 6 6 6 11 1 17 -2 13 -5z m43 -24 c8 -5 11 -10 5 -10
-5 0 -17 5 -25 10 -8 5 -10 10 -5 10 6 0 17 -5 25 -10z m60 -30 c13 -8 13 -10
-2 -10 -9 0 -20 5 -23 10 -8 13 5 13 25 0z m61 -37 c13 -15 12 -15 -8 -4 -24
12 -29 21 -14 21 5 0 15 -7 22 -17z m54 -23 c3 -5 31 -22 61 -36 30 -14 54
-30 54 -35 0 -5 -2 -9 -4 -9 -9 0 -96 52 -101 61 -4 5 -15 9 -26 9 -10 0 -19
5 -19 10 0 13 27 13 35 0z m207 -117 c40 -20 75 -39 78 -43 3 -3 39 -23 80
-44 94 -48 272 -158 266 -164 -10 -9 -114 34 -176 74 -158 101 -267 169 -297
183 -18 8 -33 19 -33 23 0 12 2 11 82 -29z m-3531 -2054 c41 -46 94 -105 119
-132 25 -27 53 -59 63 -71 10 -11 28 -32 40 -46 67 -77 165 -190 186 -216 38
-45 145 -168 152 -174 8 -7 99 -119 99 -122 0 -2 -20 -2 -45 0 -49 4 -71 21
-142 110 -21 26 -49 59 -63 73 -14 14 -45 49 -70 79 -25 30 -60 69 -78 88 -18
19 -38 42 -45 52 -7 10 -51 60 -98 111 -47 52 -123 137 -170 189 -46 52 -92
103 -102 113 -10 10 -16 26 -13 35 3 9 8 29 12 45 l6 27 38 -40 c20 -21 70
-76 111 -121z m559 -809 c0 -5 -2 -10 -4 -10 -3 0 -8 5 -11 10 -3 6 -1 10 4
10 6 0 11 -4 11 -10z m405 -360 c-4 -12 -9 -19 -12 -17 -3 3 -2 15 2 27 4 12
9 19 12 17 3 -3 2 -15 -2 -27z m2 -62 c-3 -8 -6 -5 -6 6 -1 11 2 17 5 13 3 -3
4 -12 1 -19z m6869 -886 c6 -4 23 -26 37 -48 35 -56 147 -278 147 -291 0 -6
-26 -26 -57 -43 -99 -56 -174 -147 -216 -259 -29 -80 -29 -249 1 -345 54 -171
161 -307 312 -397 117 -69 200 -90 361 -90 l106 0 21 -47 c11 -26 34 -83 52
-127 17 -44 38 -95 46 -113 8 -18 17 -50 20 -71 l6 -40 -53 -16 c-73 -22 -235
-30 -337 -16 -185 24 -422 132 -576 261 -78 65 -178 180 -223 255 -107 179
-171 383 -180 580 -7 151 10 255 58 369 73 172 262 367 414 429 47 19 47 19
61 9z m-5996 -326 c0 -5 -9 -1 -20 9 -11 10 -20 22 -20 26 0 5 9 1 20 -8 11
-10 20 -22 20 -27z m7127 -213 c20 -29 83 -169 83 -184 0 -4 13 -36 29 -71 44
-92 153 -362 206 -505 18 -48 20 -65 11 -72 -23 -19 -296 -85 -307 -74 -5 5
-41 88 -80 184 -102 255 -99 249 -133 249 -16 0 -93 -19 -170 -42 -78 -23
-157 -43 -176 -45 -35 -5 -36 -4 -67 64 -90 189 -132 298 -120 310 12 13 126
54 237 87 205 61 438 125 452 126 9 0 25 -12 35 -27z m-6287 -348 c0 -8 -4
-15 -10 -15 -5 0 -10 7 -10 15 0 8 5 15 10 15 6 0 10 -7 10 -15z m60 -145 c0
-5 -2 -10 -4 -10 -3 0 -8 5 -11 10 -3 6 -1 10 4 10 6 0 11 -4 11 -10z m8017
-2042 c-3 -7 -5 -2 -5 12 0 14 2 19 5 13 2 -7 2 -19 0 -25z m-87 -319 c0 -17
-20 -29 -20 -11 0 4 -3 18 -7 32 -6 22 -5 24 10 11 9 -7 17 -22 17 -32z"/>
<path d="M13041 3044 c0 -11 3 -14 6 -6 3 7 2 16 -1 19 -3 4 -6 -2 -5 -13z"/>
<path d="M13041 2994 c0 -11 3 -14 6 -6 3 7 2 16 -1 19 -3 4 -6 -2 -5 -13z"/>
</g>
</svg>
