<?xml version="1.0" standalone="no"?>
<!DOCTYPE svg PUBLIC "-//W3C//DTD SVG 20010904//EN"
 "http://www.w3.org/TR/2001/REC-SVG-20010904/DTD/svg10.dtd">
<svg version="1.0" xmlns="http://www.w3.org/2000/svg"
 width="1916.000000pt" height="948.000000pt" viewBox="0 0 1916.000000 948.000000"
 preserveAspectRatio="xMidYMid meet">

<g transform="translate(0.000000,948.000000) scale(0.100000,-0.100000)"
fill="#000000" stroke="none">
<path d="M9433 9373 c-22 -4 -23 -8 -23 -133 0 -119 1 -128 20 -133 28 -7 25
-35 -5 -49 -21 -9 -25 -18 -25 -54 l0 -42 -67 -7 c-105 -11 -99 0 -107 -192
-5 -119 -11 -174 -21 -190 -25 -38 -107 -109 -206 -179 -147 -103 -139 -92
-139 -201 l0 -93 704 0 704 0 4 68 c5 115 1 130 -43 160 -109 73 -239 175
-281 220 l-48 51 0 158 c0 87 -5 165 -10 173 -5 8 -42 22 -82 30 -42 9 -74 20
-74 28 -1 6 -2 23 -3 36 -1 15 -9 27 -21 31 -11 3 -20 15 -20 25 0 9 9 20 20
23 19 5 20 14 20 135 0 109 -3 131 -16 136 -17 7 -246 6 -281 -1z"/>
<path d="M352 8092 c-61 -22 -114 -68 -145 -127 l-22 -40 1 -3786 c1 -3505 3
-3790 18 -3836 21 -64 74 -117 140 -140 49 -17 433 -18 9171 -14 5016 2 9162
7 9212 11 122 9 175 39 216 122 l29 56 -2 3765 c0 2252 -4 3778 -10 3797 -27
93 -112 173 -195 184 -22 3 -3296 8 -7275 11 -3979 2 -8101 7 -9160 10 -1882
6 -1926 6 -1978 -13z m583 -370 l0 -74 -55 -19 c-150 -53 -219 -200 -156 -334
13 -27 34 -60 47 -72 21 -19 100 -59 152 -76 14 -5 17 -19 17 -82 0 -86 -1
-87 -95 -61 -131 35 -225 111 -279 226 -29 60 -31 73 -31 170 0 92 4 112 27
161 61 132 218 243 333 236 l40 -2 0 -73z m15355 -11 c19 -5 7 -9 -45 -14
-157 -15 -273 -121 -304 -279 l-9 -43 -1 43 c-2 101 52 200 140 254 63 40 158
56 219 39z m1895 -20 c-80 -23 -118 -44 -165 -91 -49 -49 -69 -88 -91 -175
l-18 -70 0 56 c-1 77 23 140 77 200 59 66 127 99 202 98 l55 0 -60 -18z
m-1900 -200 l1 -64 47 -26 c45 -25 47 -28 45 -66 -3 -36 -7 -42 -60 -73 -66
-39 -79 -38 -150 7 -44 28 -48 34 -48 68 1 34 5 41 45 65 l45 27 0 59 c0 32 3
62 7 66 4 4 21 6 38 4 30 -3 30 -3 30 -67z m-3301 -18 c3 -21 6 -84 6 -141 l0
-103 -72 3 -73 3 -3 95 c-2 52 0 114 3 138 l6 42 63 0 63 0 7 -37z m983 29 c7
-5 12 -53 15 -140 l3 -132 -72 0 -73 0 0 134 0 135 38 4 c67 7 77 7 89 -1z
m-12667 -42 c12 -7 16 -41 18 -173 4 -193 6 -189 -95 -185 l-68 3 -3 90 c-2
56 -7 92 -15 97 -7 4 -51 8 -99 8 l-88 0 0 78 c0 43 3 82 7 85 10 11 326 8
343 -3z m16884 -31 c-6 -11 -24 -2 -24 11 0 5 7 7 15 4 8 -4 12 -10 9 -15z
m94 -15 c26 -18 30 -65 7 -84 -9 -8 -15 -9 -15 -2 0 6 5 14 10 17 15 10 8 48
-12 63 -12 8 -24 9 -42 2 -44 -16 -29 -73 24 -93 9 -3 4 -6 -12 -6 -34 -1 -58
23 -58 59 0 30 30 60 60 60 9 0 26 -7 38 -16z m-118 -44 c0 -5 -7 -10 -16 -10
-8 0 -12 5 -9 10 3 6 10 10 16 10 5 0 9 -4 9 -10z m30 -64 c0 -2 -7 -9 -15
-16 -13 -11 -14 -10 -9 4 5 14 24 23 24 12z m-16833 -691 c18 -8 33 -19 33
-24 0 -6 0 -14 0 -18 0 -5 -8 -8 -17 -9 -10 -1 -52 -13 -93 -28 -73 -27 -74
-27 -90 -8 -31 39 -51 42 -318 42 -242 0 -261 -1 -284 -19 l-25 -20 -17 36
c-31 65 -39 63 392 63 305 -1 393 -4 419 -15z m1645 -8 c4 -7 -9 -18 -35 -29
-23 -10 -55 -25 -72 -34 -20 -11 -31 -12 -33 -5 -2 6 -17 18 -32 26 -23 12
-78 15 -284 15 l-254 0 -30 -25 c-30 -25 -31 -25 -37 -5 -3 11 -10 20 -15 20
-22 0 -17 31 8 45 24 14 75 15 402 9 262 -4 377 -9 382 -17z m997 3 c10 -5 -2
-16 -40 -36 -29 -16 -56 -28 -61 -26 -4 1 -8 -3 -8 -8 0 -6 -14 0 -31 12 -30
22 -39 23 -276 26 -259 3 -290 -1 -318 -42 -13 -17 -15 -18 -15 -3 0 9 -4 17
-9 17 -14 0 -41 29 -41 44 0 33 40 36 415 30 204 -3 376 -9 384 -14z m1006 11
c8 -13 -41 -49 -86 -62 -21 -7 -36 -16 -32 -22 3 -5 -9 1 -26 14 -32 24 -34
24 -296 24 l-264 0 -32 -30 c-18 -16 -29 -24 -24 -17 4 9 -3 24 -20 42 l-27
28 23 16 c21 14 70 16 401 16 218 0 379 -4 383 -9z m1003 -10 c14 -8 -64 -51
-97 -54 -12 -1 -17 -6 -13 -16 3 -9 -5 -6 -25 8 -28 21 -43 22 -259 28 -254 7
-292 3 -325 -31 l-22 -23 -22 21 c-12 12 -25 31 -29 43 -13 40 22 43 414 37
201 -3 371 -9 378 -13z m2660 4 c2 -1 -10 -9 -27 -16 -16 -7 -27 -17 -25 -21
3 -4 -2 -5 -10 -2 -8 3 -23 -3 -34 -14 -15 -15 -22 -17 -35 -7 -20 14 -396 26
-496 16 -51 -6 -68 -12 -84 -32 l-21 -24 -39 37 c-76 74 -51 79 393 72 206 -3
376 -7 378 -9z m932 5 l65 -1 -58 -28 c-31 -15 -54 -30 -50 -34 3 -4 2 -7 -3
-7 -6 0 -16 6 -22 13 -15 14 -486 18 -535 4 -15 -4 -36 -22 -47 -40 -11 -17
-20 -25 -20 -17 0 9 -16 24 -35 34 -56 31 -43 71 25 78 30 3 489 1 680 -2z
m1040 -3 c15 -4 0 -12 -67 -37 -19 -7 -30 -17 -26 -23 4 -7 0 -8 -13 -2 -23
10 -222 23 -387 24 -130 1 -174 -10 -202 -52 l-16 -25 -34 36 c-19 19 -35 41
-35 47 0 18 21 32 50 37 30 4 708 -1 730 -5z m-2974 -6 c-3 -5 -29 -17 -56
-27 -33 -12 -49 -23 -46 -31 4 -10 -2 -10 -24 2 -24 12 -76 15 -285 15 l-257
0 -30 -30 c-34 -34 -38 -36 -38 -15 0 9 -11 20 -24 26 -28 13 -41 49 -23 61
17 11 789 10 783 -1z m4601 1 c9 -5 1 -12 -22 -21 -19 -7 -35 -15 -35 -19 0
-4 -116 -6 -257 -4 -281 3 -303 0 -329 -50 -13 -25 -17 -27 -27 -15 -7 7 -27
24 -44 36 -34 23 -42 48 -21 69 14 14 714 17 735 4z m979 -7 c-11 -8 -26 -15
-33 -15 -7 0 -13 -3 -13 -7 0 -5 -120 -8 -266 -8 l-266 0 -29 -35 c-16 -19
-29 -29 -29 -23 0 7 -8 14 -19 18 -32 10 -71 52 -65 69 5 14 50 16 373 16 324
-1 364 -2 347 -15z m892 3 c34 0 65 -4 68 -9 3 -5 0 -9 -6 -9 -6 0 -9 -4 -6
-8 2 -4 -114 -8 -258 -7 -287 0 -280 1 -318 -60 -10 -17 -18 -23 -18 -14 0 8
-12 24 -28 36 -19 14 -28 31 -30 53 l-2 32 267 -6 c148 -4 296 -7 331 -8z
m762 -15 c151 -3 278 -8 282 -11 4 -4 -102 -6 -235 -4 -276 5 -306 -1 -332
-60 -9 -22 -14 -27 -15 -14 0 10 -6 24 -14 30 -9 7 -12 22 -9 44 5 29 8 33 27
26 11 -4 145 -9 296 -11z m1120 -26 c-13 -7 -35 -28 -49 -47 -18 -26 -22 -29
-18 -12 3 14 1 22 -8 22 -7 0 -12 11 -12 25 0 24 2 25 56 25 51 0 54 -1 31
-13z m974 -19 c-16 -18 -30 -35 -31 -37 -2 -2 -3 1 -3 7 0 10 49 62 59 62 3 0
-8 -15 -25 -32z m999 -2 c-10 -13 -20 -22 -22 -20 -4 4 29 44 36 44 2 0 -4
-11 -14 -24z m-1880 -143 c-23 -9 -14 -33 12 -33 25 0 35 23 15 33 -6 3 -5 4
2 3 7 -1 14 -12 16 -24 3 -22 -5 -26 -40 -23 -10 1 -18 -7 -21 -21 -2 -13 -5
-2 -6 25 -1 39 2 47 17 46 10 0 12 -3 5 -6z m135 -5 c8 -8 8 -17 1 -30 -6 -10
-7 -29 -4 -41 6 -19 3 -17 -18 8 l-26 30 -10 -25 c-9 -23 -10 -22 -10 16 -1
22 2 44 6 47 10 11 48 8 61 -5z m39 -55 c-2 -16 -4 -5 -4 22 0 28 2 40 4 28 2
-13 2 -35 0 -50z m85 7 c4 0 9 15 11 33 2 20 4 12 5 -23 l1 -55 -27 33 c-15
18 -30 32 -34 32 -4 0 -9 -15 -11 -32 -2 -21 -4 -13 -5 22 l-1 55 27 -33 c15
-18 30 -32 34 -32z m62 54 c12 -5 16 -18 14 -53 l-1 -46 -4 40 c-2 22 -11 46
-20 53 -18 13 -14 16 11 6z m1710 -73 c3 -4 -6 -6 -19 -3 -19 3 -25 0 -25 -13
0 -13 6 -16 25 -13 14 3 25 1 25 -3 0 -5 -11 -9 -25 -9 -17 0 -29 -7 -35 -22
-7 -19 -9 -14 -9 25 -1 46 0 47 28 47 17 0 32 -4 35 -9z m76 -25 c0 -6 -4 -5
-9 3 -5 7 -14 11 -20 7 -7 -5 -9 -1 -5 9 5 12 9 13 20 4 8 -6 14 -17 14 -23z
m77 -44 c22 -3 41 28 28 47 -3 5 -1 12 5 16 12 8 13 -44 1 -63 -5 -8 -21 -12
-37 -10 -27 3 -29 6 -30 48 l-2 45 7 -40 c5 -31 11 -41 28 -43z m101 71 c-36
-6 -36 -31 -1 -35 19 -2 29 -10 31 -23 2 -18 2 -18 -8 -2 -6 9 -22 17 -34 17
-24 0 -41 24 -30 41 3 5 20 8 37 8 30 -2 31 -2 5 -6z m-17851 -65 c-2 -13 -4
-3 -4 22 0 25 2 35 4 23 2 -13 2 -33 0 -45z m17910 0 c-2 -13 -4 -3 -4 22 0
25 2 35 4 23 2 -13 2 -33 0 -45z m-2120 26 c19 -5 22 -12 20 -54 l-2 -49 -21
20 c-25 24 -34 24 -35 2 0 -11 -4 -7 -11 10 -12 32 -3 77 15 77 6 0 22 -3 34
-6z m-5947 -95 c0 -57 -3 -70 -19 -79 -28 -15 -77 -12 -94 5 -18 18 -21 130
-3 144 15 13 88 18 104 7 7 -5 12 -33 12 -77z m1530 72 c0 -17 -8 -20 -50 -23
-67 -4 -69 -22 -2 -26 44 -3 52 -6 52 -23 0 -16 -7 -19 -55 -19 l-55 0 0 -35
c0 -24 -5 -35 -15 -35 -12 0 -15 17 -15 90 l0 90 70 0 c63 0 70 -2 70 -19z
m162 3 c4 -3 8 -21 8 -40 0 -45 -69 -124 -108 -124 l-25 0 21 23 c28 29 28 40
0 52 -37 16 -37 88 0 99 19 5 90 -2 104 -10z m786 -6 c3 -14 -6 -17 -50 -20
-39 -2 -53 -7 -53 -18 0 -11 9 -14 32 -12 42 4 73 -6 73 -23 0 -10 -16 -15
-52 -17 -52 -3 -53 -4 -56 -35 -2 -21 -9 -33 -18 -33 -11 0 -14 18 -14 84 0
95 0 95 90 92 34 -1 46 -5 48 -18z m90 -70 c3 -83 2 -88 -18 -88 -18 0 -20 6
-20 69 0 44 -4 71 -12 73 -21 7 0 40 24 36 22 -3 23 -8 26 -90z m947 81 c10
-15 6 -17 -50 -21 -36 -2 -50 -8 -50 -18 0 -11 15 -16 49 -20 27 -3 51 -11 54
-17 2 -7 -2 -13 -10 -14 -7 0 -31 -1 -53 -2 -39 -2 -40 -3 -43 -39 -2 -27 -7
-35 -18 -31 -11 4 -14 25 -14 89 l0 84 64 0 c36 0 68 -5 71 -11z m95 -73 c0
-52 -4 -88 -11 -92 -19 -11 -26 14 -23 77 3 46 0 61 -11 65 -27 11 -17 34 15
34 l30 0 0 -84z m87 2 c-2 -54 -8 -83 -16 -86 -9 -3 -12 13 -10 64 2 45 -1 69
-9 72 -23 7 -12 32 13 32 25 0 25 0 22 -82z m2083 74 c0 -4 -10 -8 -22 -7 -35
0 -37 -19 -3 -25 35 -6 45 -34 17 -49 -19 -10 -62 -4 -62 9 0 4 11 5 24 3 13
-3 27 0 30 6 5 7 -4 14 -23 17 -24 5 -31 12 -31 30 0 21 5 24 35 24 19 0 35
-4 35 -8z m90 -1 c0 -4 -12 -6 -26 -3 -24 4 -25 2 -22 -29 3 -30 6 -34 31 -31
15 1 27 -2 27 -8 0 -7 -15 -10 -37 -8 -33 3 -38 7 -41 31 -2 16 -1 35 2 43 6
15 66 20 66 5z m156 -16 c21 -32 32 -32 37 3 2 15 5 2 5 -28 l2 -55 -26 33
c-31 38 -43 41 -36 7 2 -15 0 -25 -7 -25 -6 0 -11 19 -11 45 0 51 12 57 36 20z
m781 8 c3 -9 -4 -11 -26 -7 -29 6 -31 5 -31 -25 0 -28 3 -31 30 -31 17 0 30
-5 30 -11 0 -6 -16 -9 -37 -7 -41 3 -50 19 -39 63 8 32 64 46 73 18z m89 -35
c1 -47 -11 -63 -22 -33 -4 8 -12 15 -20 15 -8 0 -14 -7 -14 -15 0 -8 -4 -15
-10 -15 -11 0 -14 59 -4 85 5 11 16 15 38 13 30 -3 31 -5 32 -50z m902 34
c-10 -2 -18 -8 -18 -14 0 -6 -2 -9 -5 -6 -12 12 7 37 23 30 16 -6 15 -7 0 -10z
m52 -15 c0 -4 -6 -2 -14 5 -8 7 -12 17 -9 22 5 8 23 -12 23 -27z m-15580 -33
c0 -34 -4 -53 -10 -49 -5 3 -10 21 -10 40 0 19 -4 37 -10 40 -17 10 -11 25 10
25 18 0 20 -7 20 -56z m7447 24 c-3 -7 -5 -2 -5 12 0 14 2 19 5 13 2 -7 2 -19
0 -25z m113 24 c0 -4 -18 -9 -41 -11 -26 -1 -38 2 -34 9 7 12 75 14 75 2z
m2908 -4 c18 -18 16 -142 -3 -158 -19 -15 -105 -6 -117 13 -12 19 -9 132 4
145 7 7 33 12 58 12 25 0 51 -5 58 -12z m1814 -8 c3 14 6 -14 7 -62 1 -72 -2
-88 -14 -88 -12 0 -15 16 -14 88 1 55 4 78 8 62 l8 -25 5 25z m108 5 c-7 -8
-19 -15 -26 -15 -8 0 -14 7 -14 15 0 10 10 15 26 15 22 0 25 -2 14 -15z m50
-2 c0 -7 -4 -13 -9 -13 -5 0 -11 6 -14 13 -3 8 1 14 9 14 8 0 14 -6 14 -14z
m2000 9 c0 -5 -10 -8 -21 -8 -33 1 -35 -22 -2 -26 20 -2 28 -9 28 -23 0 -16
-7 -21 -35 -22 l-35 -3 30 14 c17 8 23 15 14 15 -26 2 -53 27 -46 45 7 16 67
24 67 8z m285 -37 c0 -33 -4 -40 -25 -45 -40 -11 -50 -1 -50 47 l0 44 38 -3
c36 -3 37 -4 37 -43z m37 8 c2 -31 7 -39 26 -41 37 -5 25 -18 -13 -14 -34 4
-35 5 -35 48 0 54 18 59 22 7z m88 -15 c0 -24 4 -28 27 -28 35 0 20 -14 -18
-16 -29 -2 -29 -1 -29 50 0 36 3 47 10 36 5 -8 10 -27 10 -42z m-2385 9 c5
-27 -15 -50 -46 -52 -18 -2 -18 0 -3 16 9 10 20 16 24 14 4 -3 8 1 7 8 -2 51
10 61 18 14z m-4995 -27 c0 -4 18 -4 39 0 40 7 72 -2 58 -16 -4 -5 -29 -8 -55
-9 -46 0 -47 -1 -52 -34 -3 -19 -11 -36 -18 -39 -10 -3 -12 8 -8 49 2 30 5 57
5 61 1 10 31 -2 31 -12z m4710 -10 c0 -5 -12 -10 -26 -10 -14 0 -23 4 -19 10
3 6 15 10 26 10 10 0 19 -4 19 -10z m3513 3 c-51 -2 -135 -2 -185 0 -51 1 -10
3 92 3 102 0 143 -2 93 -3z m-1856 -47 c4 -3 -92 -5 -213 -5 -121 1 -206 5
-189 9 35 9 393 5 402 -4z m-13037 -16 c0 -11 -4 -20 -9 -20 -7 0 -8 17 -2 38
4 10 11 -2 11 -18z m11580 8 c0 -10 3 -9 9 1 6 9 11 10 15 2 4 -6 16 -11 27
-11 27 0 19 -24 -9 -28 -22 -3 -72 24 -72 39 0 5 7 9 15 9 8 0 15 -6 15 -12z
m2240 -36 c0 -40 -21 -65 -51 -60 -21 3 -24 9 -27 50 -3 42 -1 47 20 50 36 6
58 -9 58 -40z m858 6 c-3 -40 -5 -43 -35 -46 -33 -3 -33 -3 -33 42 0 46 0 46
36 46 l35 0 -3 -42z m95 30 c2 -7 0 -21 -5 -31 -5 -10 -7 -26 -4 -35 4 -11 0
-9 -13 6 -11 12 -22 22 -25 22 -4 0 -11 -10 -16 -22 -7 -19 -9 -14 -9 25 l-1
47 34 0 c19 0 36 -6 39 -12z m70 5 c-20 -3 -33 -10 -33 -19 0 -9 12 -15 33
-16 l32 -1 -32 -4 c-40 -5 -44 -30 -5 -36 22 -3 20 -4 -10 -6 l-38 -1 0 45 0
45 43 -2 c36 -1 38 -2 10 -5z m69 -38 c-8 -25 -18 -45 -23 -45 -7 0 12 57 28
83 11 18 9 4 -5 -38z m-1211 -45 c17 0 28 -4 24 -9 -3 -6 -18 -9 -33 -8 -25 2
-27 5 -28 52 -1 45 -1 46 3 8 4 -40 6 -43 34 -43z m204 70 c4 -6 -7 -10 -24
-10 -28 0 -31 -3 -31 -31 0 -28 2 -31 25 -25 18 5 25 2 25 -9 0 -15 -26 -20
-54 -9 -11 4 -16 19 -16 50 0 43 0 44 34 44 19 0 38 -4 41 -10z m35 -10 c0
-11 4 -20 10 -20 5 0 14 9 20 20 16 30 32 24 18 -6 -9 -20 -9 -30 1 -46 17
-27 8 -33 -14 -8 -23 25 -35 25 -35 0 0 -11 -4 -20 -10 -20 -5 0 -10 23 -10
50 0 28 5 50 10 50 6 0 10 -9 10 -20z m-2642 -2 c-6 -18 -28 -21 -28 -4 0 9 7
16 16 16 9 0 14 -5 12 -12z m-11028 -8 c0 -5 -7 -10 -16 -10 -8 0 -12 5 -9 10
3 6 10 10 16 10 5 0 9 -4 9 -10z m14692 -50 c-3 -3 -7 1 -9 8 -3 6 -12 12 -21
13 -11 0 -12 2 -4 6 6 2 12 12 12 21 1 10 7 4 14 -13 7 -16 11 -32 8 -35z
m-2217 36 c13 17 14 17 15 2 0 -9 -4 -20 -10 -23 -5 -3 -10 -17 -10 -30 0 -13
-4 -27 -10 -30 -6 -3 -10 4 -10 17 0 14 -7 33 -15 44 -21 28 -18 40 5 19 20
-18 21 -18 35 1z m108 5 c4 -1 7 -5 7 -11 0 -5 -13 -7 -31 -3 -25 5 -31 3 -27
-8 3 -8 11 -15 19 -15 8 -1 20 -2 27 -3 6 0 12 -12 12 -26 0 -22 -4 -25 -34
-25 -19 0 -38 5 -42 11 -4 7 3 10 22 7 15 -1 29 2 31 9 2 7 -8 13 -24 15 -18
2 -29 10 -31 22 -5 22 11 34 41 30 12 -1 25 -3 30 -3z m-183 -9 c0 -4 -10 -8
-22 -7 -31 0 -34 -19 -4 -23 32 -4 43 -32 19 -50 -22 -15 -55 -12 -61 7 -3 9
1 11 14 7 11 -3 26 -1 34 4 8 5 11 10 5 11 -5 1 -14 2 -20 4 -5 1 -16 3 -22 3
-14 2 -18 34 -6 45 9 10 63 9 63 -1z m283 -4 c2 -7 0 -21 -5 -31 -5 -10 -7
-25 -4 -33 8 -21 -3 -17 -24 9 l-19 22 -10 -25 c-9 -22 -10 -20 -10 23 l-1 47
34 0 c19 0 36 -6 39 -12z m92 -33 c0 -39 -1 -40 -35 -40 -31 0 -35 3 -38 28
-5 46 4 59 40 55 31 -3 33 -5 33 -43z m1952 13 c-3 -7 -5 -2 -5 12 0 14 2 19
5 13 2 -7 2 -19 0 -25z m-17899 -183 c-13 -28 -34 -35 -23 -7 4 9 10 30 13 47
5 28 5 28 13 7 5 -13 4 -32 -3 -47z m12647 -15 c-3 -5 -16 -10 -28 -9 -20 1
-20 2 3 9 14 4 26 8 28 9 2 1 0 -3 -3 -9z m-3142 -7 c-7 -2 -19 -2 -25 0 -7 3
-2 5 12 5 14 0 19 -2 13 -5z m1740 -10 c-7 -2 -19 -2 -25 0 -7 3 -2 5 12 5 14
0 19 -2 13 -5z m2043 -60 c-10 -10 -19 5 -10 18 6 11 8 11 12 0 2 -7 1 -15 -2
-18z m-1986 7 c12 -8 9 -10 -12 -10 -16 0 -28 5 -28 10 0 13 20 13 40 0z m90
-5 c0 -8 -4 -15 -10 -15 -5 0 -10 7 -10 15 0 8 5 15 10 15 6 0 10 -7 10 -15z
m78 3 c-6 -18 -28 -21 -28 -4 0 9 7 16 16 16 9 0 14 -5 12 -12z m937 2 c-3 -5
-22 -10 -41 -10 -19 0 -34 5 -34 10 0 6 18 10 41 10 24 0 38 -4 34 -10z m995
0 c0 -5 -6 -10 -14 -10 -8 0 -18 5 -21 10 -3 6 3 10 14 10 12 0 21 -4 21 -10z
m105 0 c3 -6 -4 -10 -17 -10 -18 0 -20 2 -8 10 19 12 18 12 25 0z m-13456
-480 c11 -5 150 -10 327 -11 291 -1 306 -2 281 -17 -15 -9 -25 -23 -22 -29 2
-7 -9 -3 -26 9 -29 21 -41 23 -240 26 -263 5 -313 0 -351 -39 l-29 -29 3 -294
c2 -162 -1 -288 -5 -281 -4 8 -6 144 -3 302 4 245 7 310 15 366 1 10 29 9 50
-3z m4578 -25 c33 -22 29 -28 -7 -10 -24 12 -75 15 -284 15 l-254 0 -34 -27
-33 -26 28 29 c24 25 37 30 100 35 39 4 159 5 266 3 153 -3 199 -7 218 -19z
m1904 15 c74 0 90 -3 110 -21 l24 -21 -25 16 c-21 14 -64 16 -281 16 l-257 0
-31 -26 c-34 -29 -43 -18 -10 12 25 23 142 34 289 28 52 -2 134 -4 181 -4z
m-4912 -24 c32 -29 25 -40 -9 -14 -29 21 -41 22 -273 26 -228 3 -244 2 -282
-17 l-40 -21 29 26 28 25 263 -3 c242 -3 265 -5 284 -22z m991 9 c17 -9 30
-20 30 -25 0 -6 -12 -2 -27 7 -24 16 -55 18 -284 18 l-257 0 -26 -24 c-14 -14
-26 -20 -26 -14 0 12 29 38 50 46 8 3 127 6 263 6 204 1 253 -2 277 -14z
m1032 -16 l33 -31 -32 23 c-31 21 -44 23 -252 27 -258 5 -299 1 -337 -36 -28
-27 -28 -27 -13 -2 30 47 47 50 316 50 l253 0 32 -31z m1999 11 c13 -10 19
-19 13 -20 -5 0 -16 6 -22 13 -10 9 -79 12 -277 12 l-263 0 -26 -24 c-14 -14
-26 -20 -26 -13 0 6 12 20 26 31 25 20 39 21 289 21 247 0 264 -1 286 -20z
m2000 0 l24 -20 -37 15 c-30 12 -87 15 -273 15 -245 0 -264 -3 -297 -44 -10
-11 -18 -16 -18 -9 0 6 14 23 31 37 l31 26 258 0 c243 0 259 -1 281 -20z
m1002 6 c27 -21 20 -26 -13 -10 -24 12 -75 14 -281 12 l-251 -3 -29 -35 c-29
-35 -38 -35 -19 0 24 45 50 49 320 49 197 0 259 -3 273 -13z m993 -2 c19 -15
19 -16 -1 -8 -26 10 -424 18 -492 9 -40 -5 -59 -14 -84 -38 -23 -23 -28 -26
-20 -10 6 12 23 31 37 42 25 20 39 21 283 21 220 0 260 -2 277 -16z m1010 0
c19 -15 19 -16 -1 -7 -11 4 -136 9 -278 11 l-258 3 -35 -35 c-19 -19 -34 -30
-34 -24 0 5 13 23 29 39 l29 29 264 0 c226 0 267 -2 284 -16z m1000 0 c18 -14
18 -15 -6 -7 -14 4 -141 8 -284 8 l-258 0 -29 -35 c-16 -19 -29 -30 -29 -25 1
15 32 51 55 63 13 8 109 11 276 12 216 0 258 -2 275 -16z m984 0 c17 -11 19
-13 5 -9 -11 4 -124 9 -250 12 -261 7 -294 1 -326 -51 -10 -17 -19 -25 -19
-17 0 7 15 28 34 47 l34 34 249 0 c205 -1 252 -3 273 -16z m1115 6 c-346 -3
-632 -6 -633 -8 -2 -1 -18 -17 -35 -34 l-31 -33 19 32 c10 17 28 36 39 42 14
6 242 9 646 8 l625 -2 -630 -5z m838 -7 c-23 -2 -64 -2 -90 0 -26 2 -7 3 42 3
50 0 71 -1 48 -3z m879 -7 c-13 -7 -32 -26 -43 -42 -10 -16 -19 -24 -19 -17 0
19 51 73 68 73 13 -1 11 -4 -6 -14z m994 -1 c-11 -8 -28 -27 -38 -42 -10 -16
-18 -22 -18 -15 0 15 54 72 67 72 4 0 -1 -7 -11 -15z m994 2 c0 -2 -10 -12
-22 -23 l-23 -19 19 23 c18 21 26 27 26 19z m-7060 -212 c0 -71 -8 -93 -30
-80 -8 5 -7 11 1 21 7 9 10 38 7 78 -3 49 -1 63 9 59 9 -4 13 -28 13 -78z
m-9060 55 c0 -11 -2 -20 -4 -20 -2 0 -6 9 -9 20 -3 11 -1 20 4 20 5 0 9 -9 9
-20z m11050 -61 c0 -12 7 -19 20 -19 11 0 20 -7 20 -15 0 -8 -8 -15 -19 -15
-10 0 -21 -9 -24 -20 -3 -11 -10 -20 -16 -20 -6 0 -11 9 -11 20 0 13 -7 20
-20 20 -11 0 -20 7 -20 15 0 8 7 15 15 15 9 0 20 12 25 26 11 28 30 24 30 -7z
m-12004 -32 c3 -3 -4 -10 -16 -17 -16 -9 -27 -8 -50 4 -17 8 -32 10 -36 5 -3
-5 -10 -7 -15 -3 -5 3 -7 10 -3 15 6 10 110 6 120 -4z m11062 -4 c3 -10 -15
-13 -67 -13 -57 0 -71 3 -71 15 0 13 12 15 67 13 42 -2 68 -8 71 -15z m2402
-10 c-1 -5 -7 -19 -15 -33 -8 -14 -14 -28 -15 -32 0 -5 36 -8 80 -8 73 0 80
-2 80 -20 0 -18 -7 -20 -80 -20 -44 0 -80 -3 -80 -7 1 -5 7 -19 15 -33 19 -34
18 -40 -5 -40 -14 0 -27 15 -45 50 l-25 50 25 50 c18 35 31 50 45 50 11 0 20
-3 20 -7z m-12515 -13 c3 -5 1 -10 -4 -10 -6 0 -11 5 -11 10 0 6 2 10 4 10 3
0 8 -4 11 -10z m8045 -11 c0 -6 -4 -7 -10 -4 -5 3 -10 11 -10 16 0 6 5 7 10 4
6 -3 10 -11 10 -16z m8427 15 c-3 -3 -12 -4 -19 -1 -8 3 -5 6 6 6 11 1 17 -2
13 -5z m116 -1 c-7 -2 -19 -2 -25 0 -7 3 -2 5 12 5 14 0 19 -2 13 -5z m-2123
-33 c11 -7 7 -10 -17 -10 -23 0 -33 -5 -33 -15 0 -10 10 -15 31 -15 17 0 28
-4 24 -10 -3 -5 -20 -10 -36 -10 -18 0 -28 -4 -24 -10 3 -5 17 -10 30 -10 13
0 27 -5 30 -11 5 -7 -8 -9 -36 -7 -46 3 -45 2 -40 75 1 28 43 41 71 23z m1763
-15 c-7 -21 -13 -19 -13 6 0 11 4 18 10 14 5 -3 7 -12 3 -20z m-2093 -79 c-9
-8 -11 0 -9 34 3 62 13 74 17 21 2 -24 -2 -49 -8 -55z m70 69 c18 -33 38 -32
43 3 2 15 5 2 6 -27 l1 -55 -35 34 -35 34 0 -32 c0 -18 -4 -32 -10 -32 -5 0
-10 23 -10 50 0 56 17 67 40 25z m154 17 c2 -4 -7 -8 -21 -7 -36 0 -41 -23 -6
-27 22 -2 29 -9 31 -30 3 -26 1 -28 -32 -28 -19 0 -38 5 -41 10 -4 6 7 10 24
10 38 0 41 18 4 22 -22 2 -29 9 -31 31 -3 25 -1 27 32 27 19 0 37 -4 40 -8z
m216 -16 c0 -14 -5 -28 -10 -31 -7 -4 -7 -13 0 -26 15 -26 -6 -26 -22 1 -17
27 -36 25 -41 -2 -2 -13 -5 1 -6 30 l-1 52 40 0 c36 0 40 -3 40 -24z m100 15
c0 -5 -7 -11 -15 -15 -9 -3 -16 -20 -17 -43 l-1 -38 -4 35 c-3 19 -12 43 -20
53 -15 16 -14 17 20 17 21 0 37 -4 37 -9z m540 -17 c0 -23 40 -16 49 8 8 21 8
21 12 -7 3 -17 2 -41 -1 -55 -6 -25 -6 -25 -12 -2 -8 29 -48 31 -48 2 0 -11
-4 -20 -10 -20 -5 0 -10 23 -10 51 0 31 4 48 10 44 6 -3 10 -13 10 -21z m170
-24 l0 -50 -40 0 -40 0 0 50 0 50 40 0 40 0 0 -50z m62 33 c17 -15 19 -15 36
0 28 26 32 21 32 -33 0 -27 -4 -50 -10 -50 -5 0 -10 14 -10 32 0 30 -1 31 -17
16 -15 -16 -17 -16 -29 0 -12 15 -13 13 -14 -15 0 -17 -4 -35 -10 -38 -6 -4
-10 15 -10 49 0 60 4 65 32 39z m166 11 c-5 -5 -28 -11 -50 -13 -5 -1 -8 -5
-8 -11 0 -5 14 -10 30 -10 17 0 30 -4 30 -10 0 -5 -14 -10 -31 -10 -38 0 -35
-24 4 -28 43 -5 31 -18 -13 -14 l-40 4 2 49 1 49 40 0 c22 0 38 -3 35 -6z
m809 -16 c-3 -8 -6 -5 -6 6 -1 11 2 17 5 13 3 -3 4 -12 1 -19z m-106 -15 c-12
-20 -14 -14 -5 12 4 9 9 14 11 11 3 -2 0 -13 -6 -23z m-8219 -21 c10 -12 10
-14 1 -8 -16 9 -16 5 -3 -28 15 -40 1 -31 -16 11 -9 20 -19 32 -22 27 -11 -14
-62 -17 -62 -3 0 8 -5 8 -17 -2 -14 -12 -16 -12 -11 1 10 30 106 31 130 2z
m1012 12 c20 -19 22 -144 4 -162 -7 -7 -35 -12 -63 -12 -28 0 -56 5 -63 12 -7
7 -12 41 -12 85 0 58 3 74 18 82 27 16 98 13 116 -5z m7381 -3 c-3 -6 -18 -10
-33 -10 -21 1 -22 2 -7 6 11 3 24 9 29 14 12 11 20 4 11 -10z m-16465 -52 c0
-40 -4 -58 -11 -53 -6 3 -8 17 -4 31 3 14 2 22 -3 19 -18 -11 -21 34 -4 45 15
10 15 10 0 5 -10 -3 -18 -1 -18 4 0 6 9 10 20 10 18 0 20 -7 20 -61z m1057 4
c-3 -10 -5 -4 -5 12 0 17 2 24 5 18 2 -7 2 -21 0 -30z m6020 -15 c-3 -8 -6 -5
-6 6 -1 11 2 17 5 13 3 -3 4 -12 1 -19z m883 -19 c0 -6 -4 -7 -10 -4 -5 3 -10
11 -10 16 0 6 5 7 10 4 6 -3 10 -11 10 -16z m8404 -5 c3 -8 2 -12 -4 -9 -6 3
-10 10 -10 16 0 14 7 11 14 -7z m-5301 -9 c-2 -5 -25 -11 -53 -13 -40 -2 -50
0 -50 13 0 13 10 15 53 13 28 -2 51 -7 50 -13z m-12085 -41 c-10 -10 -28 6
-28 24 0 15 1 15 17 -1 9 -9 14 -19 11 -23z m11088 24 c14 -15 -10 -28 -52
-28 -36 0 -44 3 -44 18 0 16 7 19 45 17 24 0 47 -4 51 -7z m-2057 -32 c-12
-14 -31 -26 -41 -26 -18 0 -18 1 -1 24 15 21 49 37 61 30 2 -1 -7 -14 -19 -28z
m8346 24 c-3 -5 -14 -10 -23 -9 -14 0 -13 2 3 9 27 11 27 11 20 0z m-5287 -22
c-3 -8 -26 -14 -56 -16 -42 -2 -52 0 -52 12 0 13 12 16 56 16 40 0 55 -4 52
-12z m-9788 -173 c-7 -8 -17 -15 -23 -15 -6 0 -2 7 9 15 25 19 30 19 14 0z
m3016 0 c-11 -8 -25 -15 -30 -15 -6 1 0 7 14 15 32 19 40 18 16 0z m3010 0
c-11 -8 -25 -15 -30 -15 -6 1 0 7 14 15 32 19 40 18 16 0z m1468 -6 c29 -6 29
-7 5 -8 -14 -1 -34 6 -45 15 -10 8 -13 12 -5 8 8 -4 28 -11 45 -15z m526 6
c-7 -8 -22 -14 -34 -14 -20 1 -20 2 -1 6 11 3 24 9 30 14 15 14 19 10 5 -6z
m1007 -2 c-13 -13 -36 -18 -95 -19 l-77 -2 70 7 c39 3 79 12 90 18 28 17 32
16 12 -4z m-2497 -14 l65 -6 -61 -1 c-42 -2 -66 3 -80 14 -10 8 -12 12 -4 7 8
-4 44 -11 80 -14z m1951 3 c-7 -2 -18 1 -23 6 -8 8 -4 9 13 5 13 -4 18 -8 10
-11z m1535 3 c-11 -8 -29 -15 -40 -14 -15 0 -10 4 14 13 46 18 48 18 26 1z
m-7529 -1 c-3 -3 -12 -4 -19 -1 -8 3 -5 6 6 6 11 1 17 -2 13 -5z m1000 0 c-3
-3 -12 -4 -19 -1 -8 3 -5 6 6 6 11 1 17 -2 13 -5z m3513 -4 c-8 -5 -35 -9 -60
-8 l-45 1 50 7 c28 4 55 7 60 8 6 1 3 -3 -5 -8z m2565 -5 c6 -2 -10 -4 -35 -4
-25 0 -51 3 -59 8 -13 8 69 5 94 -4z m948 8 c-7 -2 -19 -2 -25 0 -7 3 -2 5 12
5 14 0 19 -2 13 -5z m-7870 -10 c-18 -2 -48 -2 -65 0 -18 2 -4 4 32 4 36 0 50
-2 33 -4z m305 0 c-10 -2 -28 -2 -40 0 -13 2 -5 4 17 4 22 1 32 -1 23 -4z
m735 0 c-29 -2 -78 -2 -110 0 -32 2 -8 3 52 3 61 0 87 -1 58 -3z m160 0 c-18
-2 -48 -2 -65 0 -18 2 -4 4 32 4 36 0 50 -2 33 -4z m70 0 c-7 -2 -19 -2 -25 0
-7 3 -2 5 12 5 14 0 19 -2 13 -5z m655 0 c-16 -2 -40 -2 -55 0 -16 2 -3 4 27
4 30 0 43 -2 28 -4z m1060 0 c-21 -2 -57 -2 -80 0 -24 2 -7 4 37 4 44 0 63 -2
43 -4z m310 0 c-21 -2 -55 -2 -75 0 -21 2 -4 4 37 4 41 0 58 -2 38 -4z m1920
0 c-60 -2 -156 -2 -215 0 -60 1 -11 3 107 3 118 0 167 -2 108 -3z m735 0 c-13
-2 -35 -2 -50 0 -16 2 -5 4 22 4 28 0 40 -2 28 -4z m2134 0 c-20 -2 -52 -2
-70 0 -17 2 0 4 38 4 39 0 53 -2 32 -4z m106 0 c-13 -2 -33 -2 -45 0 -13 2 -3
4 22 4 25 0 35 -2 23 -4z m1055 0 c-32 -2 -86 -2 -120 0 -35 2 -9 3 57 3 66 0
94 -1 63 -3z m-5125 -10 c-23 -2 -64 -2 -90 0 -26 2 -7 3 42 3 50 0 71 -1 48
-3z m3060 0 c-34 -2 -93 -2 -130 0 -37 2 -9 3 62 3 72 0 102 -1 68 -3z m1525
0 c-26 -2 -71 -2 -100 0 -29 2 -8 3 47 3 55 0 79 -1 53 -3z m-3028 -273 c11
-7 8 -9 -15 -9 -16 1 -41 5 -55 9 -22 7 -20 8 15 9 22 0 47 -4 55 -9z m-10882
-14 c-16 -8 -34 -18 -40 -22 -7 -4 -4 2 6 14 11 12 29 22 40 22 18 0 17 -2 -6
-14z m1000 5 c24 -5 49 -14 55 -21 9 -9 5 -9 -13 1 -17 9 -91 15 -235 19
l-210 7 180 1 c99 1 199 -3 223 -7z m895 2 c-51 -2 -136 -2 -190 0 -54 1 -12
3 92 3 105 0 149 -2 98 -3z m970 0 c-45 -2 -122 -2 -170 0 -48 1 -11 3 82 3
94 0 133 -2 88 -3z m1030 0 c-46 -2 -120 -2 -165 0 -46 1 -9 3 82 3 91 0 128
-2 83 -3z m130 0 c-7 -2 -21 -2 -30 0 -10 3 -4 5 12 5 17 0 24 -2 18 -5z m895
0 c-65 -2 -171 -2 -235 0 -65 1 -12 3 117 3 129 0 182 -2 118 -3z m995 0 c-57
-2 -149 -2 -205 0 -57 1 -11 3 102 3 113 0 159 -2 103 -3z m985 0 c-43 -2
-113 -2 -155 0 -43 1 -8 3 77 3 85 0 120 -2 78 -3z m1085 0 c-34 -2 -93 -2
-130 0 -37 2 -9 3 62 3 72 0 102 -1 68 -3z m1935 0 c-54 -2 -142 -2 -195 0
-54 1 -10 3 97 3 107 0 151 -2 98 -3z m1095 0 c-7 -2 -19 -2 -25 0 -7 3 -2 5
12 5 14 0 19 -2 13 -5z m-8966 -9 c-3 -3 -12 -4 -19 -1 -8 3 -5 6 6 6 11 1 17
-2 13 -5z m463 -8 c0 -2 -8 -10 -17 -17 -16 -13 -17 -12 -4 4 13 16 21 21 21
13z m2010 0 c0 -2 -8 -10 -17 -17 -16 -13 -17 -12 -4 4 13 16 21 21 21 13z
m2010 1 c0 -2 -10 -12 -22 -23 l-23 -19 19 23 c18 21 26 27 26 19z m2963 -21
c-10 -13 -20 -22 -22 -20 -4 4 29 44 36 44 2 0 -4 -11 -14 -24z m5877 21 c0
-2 -10 -12 -22 -23 l-23 -19 19 23 c18 21 26 27 26 19z m-15443 -189 c-2 -24
-4 -7 -4 37 0 44 2 63 4 43 2 -21 2 -57 0 -80z m11885 -38 c-3 -49 -1 -74 8
-85 9 -11 10 -19 3 -26 -14 -14 -43 16 -43 45 0 12 -6 28 -12 35 -10 11 -10
14 0 18 6 3 12 15 12 28 0 19 22 55 34 55 2 0 1 -31 -2 -70z m976 58 c7 -7 12
-24 12 -39 0 -15 6 -29 13 -32 9 -3 9 -7 0 -18 -6 -8 -13 -27 -15 -44 -2 -19
-9 -31 -21 -33 -16 -3 -18 1 -13 25 8 41 9 104 1 131 -8 24 4 29 23 10z m1261
-160 c1 -27 -3 -38 -14 -38 -17 0 -20 55 -8 125 l7 40 7 -45 c4 -25 8 -62 8
-82z m3582 47 c12 -25 19 -49 15 -52 -4 -4 -9 2 -12 14 -6 21 -34 22 -61 0
-14 -11 -16 -6 -7 17 4 11 13 14 30 10 26 -7 31 5 14 37 -6 10 -8 19 -5 19 3
0 14 -20 26 -45z m-8811 -70 c0 -88 -1 -95 -20 -95 -19 0 -20 7 -20 95 0 88 1
95 20 95 19 0 20 -7 20 -95z m1034 73 c10 -14 16 -44 16 -82 0 -77 -16 -96
-81 -96 -67 0 -79 16 -79 98 0 91 8 100 87 101 32 1 45 -4 57 -21z m1020 6
c19 -18 21 -75 4 -92 -7 -7 -34 -12 -60 -12 l-48 0 0 -41 c0 -36 -2 -40 -22
-37 -20 3 -23 10 -26 58 -2 30 -1 74 3 98 l6 42 64 0 c44 0 68 -5 79 -16z
m6641 -7 c16 -4 14 -5 -6 -6 -17 -1 -29 5 -33 15 -5 13 -3 14 6 6 7 -5 22 -12
33 -15z m175 -6 c0 -25 5 -30 28 -34 20 -4 18 -4 -8 -3 -32 1 -35 4 -38 34 -2
18 1 32 7 32 6 0 11 -13 11 -29z m-15852 11 c7 -3 11 -11 8 -19 -3 -8 -1 -11
4 -8 6 4 10 -20 10 -64 0 -59 -3 -72 -19 -81 -23 -12 -42 7 -21 20 9 5 9 9 1
14 -6 4 -11 2 -11 -3 0 -6 -6 -11 -14 -11 -15 0 -16 16 -2 38 6 10 11 11 19 3
6 -6 14 -11 17 -11 9 0 -1 73 -12 88 -13 15 -60 16 -76 0 -9 -9 -13 -7 -18 6
-4 11 -1 22 7 27 14 9 81 10 107 1z m1042 -82 c0 -70 -3 -90 -14 -90 -7 0 -19
7 -26 15 -11 13 -11 18 0 28 9 9 11 9 6 0 -3 -6 -2 -14 3 -17 5 -3 11 8 13 24
3 17 1 30 -4 30 -4 0 -8 23 -8 50 0 38 4 50 15 50 12 0 15 -17 15 -90z m930
78 c0 -7 5 -7 13 1 8 6 17 8 20 4 17 -16 3 -23 -46 -23 -46 0 -56 -3 -65 -22
-10 -21 -11 -20 -10 12 2 34 3 35 45 37 24 1 43 -3 43 -9z m1066 -23 c6 -25
-10 -65 -26 -65 -16 0 -12 -20 11 -51 l20 -29 -24 0 c-18 0 -33 12 -55 47 -33
50 -28 69 13 53 18 -7 21 -4 23 21 2 23 -2 29 -18 29 -11 0 -20 6 -20 13 0 9
11 12 35 9 27 -3 37 -10 41 -27z m-4949 -7 c-3 -8 -6 -5 -6 6 -1 11 2 17 5 13
3 -3 4 -12 1 -19z m15618 12 c3 -6 -5 -10 -19 -10 -34 0 -42 -18 -9 -22 39 -4
42 -28 4 -28 -17 0 -31 -4 -31 -10 0 -5 14 -10 30 -10 17 0 30 -4 30 -10 0 -5
-18 -10 -40 -10 l-40 0 0 49 c0 30 5 51 13 54 21 9 56 7 62 -3z m71 -80 c13 0
24 -4 24 -10 0 -15 -67 -12 -72 3 -4 12 -3 45 2 82 1 11 7 -1 12 -27 9 -41 14
-48 34 -48z m124 80 c0 -5 -11 -10 -24 -10 -35 0 -42 -18 -9 -22 39 -4 42 -28
3 -28 -18 0 -29 -4 -25 -10 3 -5 17 -10 31 -10 13 0 24 -4 24 -10 0 -5 -18
-10 -40 -10 l-40 0 0 55 0 55 40 0 c22 0 40 -4 40 -10z m78 -8 c-14 -3 -18
-14 -18 -48 0 -28 -4 -43 -10 -39 -5 3 -10 24 -10 46 0 29 -4 39 -16 39 -8 0
-13 4 -10 8 3 4 22 6 43 3 21 -3 30 -6 21 -9z m102 -2 c-7 -4 -21 -5 -31 -3
-13 4 -19 0 -19 -11 0 -11 9 -16 31 -16 17 0 28 -4 24 -10 -3 -5 -17 -10 -31
-10 -13 0 -24 -4 -24 -10 0 -5 14 -10 30 -10 17 0 30 -4 30 -10 0 -5 -18 -10
-40 -10 l-40 0 0 49 c0 44 3 50 23 53 31 5 62 -3 47 -12z m670 10 c0 -5 -13
-10 -30 -10 -16 0 -30 -4 -30 -10 0 -5 14 -10 31 -10 20 0 29 -4 26 -12 -2 -8
-15 -12 -30 -10 -37 5 -34 -17 3 -24 43 -9 37 -24 -10 -24 l-40 0 0 55 0 55
40 0 c22 0 40 -4 40 -10z m62 -22 l27 -33 1 33 c0 17 5 32 10 32 6 0 10 -25
10 -55 0 -30 -3 -55 -7 -55 -5 0 -20 14 -35 32 l-27 33 -1 -32 c0 -18 -4 -33
-10 -33 -5 0 -10 25 -10 55 0 30 3 55 8 55 4 0 19 -14 34 -32z m150 9 c12 -18
9 -62 -4 -75 -7 -7 -27 -12 -44 -12 -32 0 -33 1 -32 43 1 23 6 48 11 55 12 15
57 7 69 -11z m-1363 -1 c7 -8 11 -30 9 -48 -3 -30 -6 -33 -40 -36 l-38 -3 0
50 c0 49 1 51 29 51 16 0 34 -6 40 -14z m-13722 -43 c-3 -10 -5 -4 -5 12 0 17
2 24 5 18 2 -7 2 -21 0 -30z m16136 30 c-7 -2 -21 -2 -30 0 -10 3 -4 5 12 5
17 0 24 -2 18 -5z m-16087 -102 c24 -19 24 -20 4 -26 -27 -8 -60 20 -59 49 0
21 1 21 9 1 7 -15 9 -8 11 30 l2 50 4 -42 c3 -30 11 -48 29 -62z m6071 67 c-3
-7 -5 -2 -5 12 0 14 2 19 5 13 2 -7 2 -19 0 -25z m-3992 2 c0 -8 -16 -14 -37
-17 -33 -3 -38 -1 -38 17 0 18 5 20 38 17 21 -3 37 -9 37 -17z m-1089 -20 c20
0 17 -27 -6 -52 -24 -26 -26 -25 -34 32 -5 33 -4 41 3 30 9 -13 11 -12 12 5 1
17 2 17 6 3 2 -10 11 -18 19 -18z m14882 -34 c-3 -40 -4 -41 -38 -41 -35 0
-35 1 -38 47 -3 44 -2 47 25 50 41 5 54 -9 51 -56z m-14821 32 c2 -17 0 -19
-7 -8 -5 8 -6 18 -4 22 8 12 10 10 11 -14z m14711 -25 c-3 -48 -3 -48 -40 -51
l-38 -3 2 43 c1 37 2 38 5 11 4 -29 8 -33 34 -33 28 0 30 2 27 32 -2 27 -8 34
-33 39 -29 6 -28 7 8 8 l38 1 -3 -47z m152 16 c0 -27 2 -30 15 -19 12 10 18
10 30 0 8 -7 15 -18 15 -24 0 -6 -4 -4 -10 4 -7 12 -12 12 -29 -4 -11 -10 -25
-15 -30 -11 -14 8 -14 85 -1 85 6 0 10 -14 10 -31z m77 -16 c-3 -10 -5 -2 -5
17 0 19 2 27 5 18 2 -10 2 -26 0 -35z m-5942 15 c-14 -41 -17 -128 -6 -142 13
-15 5 -26 -21 -26 -16 0 -18 10 -18 95 l0 95 26 0 c23 0 25 -3 19 -22z m995
-74 c0 -82 -2 -95 -16 -92 -13 2 -16 19 -18 96 -1 81 1 92 17 92 15 0 17 -11
17 -96z m-12170 76 c12 -8 11 -10 -7 -10 -13 0 -23 5 -23 10 0 13 11 13 30 0z
m13384 -9 c3 -4 12 -33 20 -62 8 -30 18 -64 22 -76 4 -14 2 -23 -5 -23 -5 0
-8 7 -5 15 4 8 1 15 -6 15 -6 0 -8 5 -5 10 3 6 2 10 -3 10 -7 0 -42 94 -42
113 0 10 18 8 24 -2z m-10290 -22 c27 4 43 -1 43 -14 0 -11 -11 -15 -39 -15
-30 0 -38 4 -38 18 0 24 12 36 20 21 4 -6 10 -10 14 -10z m107 -22 c-8 -8 -14
-7 -23 2 -10 11 -10 13 0 7 6 -4 12 -2 12 4 0 6 5 8 11 4 8 -4 8 -9 0 -17z
m916 1 c-3 -8 -6 -5 -6 6 -1 11 2 17 5 13 3 -3 4 -12 1 -19z m6778 -248 c13
-6 15 -9 5 -9 -8 0 -22 4 -30 9 -18 12 -2 12 25 0z m522 -6 c-3 -3 -12 -4 -19
-1 -8 3 -5 6 6 6 11 1 17 -2 13 -5z m1562 -10 c9 -8 -75 -3 -88 5 -8 5 5 7 35
4 27 -3 51 -7 53 -9z m1776 -2 c-3 -3 -11 0 -18 7 -9 10 -8 11 6 5 10 -3 15
-9 12 -12z m-7768 2 c-3 -3 -12 -4 -19 -1 -8 3 -5 6 6 6 11 1 17 -2 13 -5z
m4051 -1 c-21 -2 -55 -2 -75 0 -21 2 -4 4 37 4 41 0 58 -2 38 -4z m305 0 c-18
-2 -48 -2 -65 0 -18 2 -4 4 32 4 36 0 50 -2 33 -4z m764 1 c-3 -3 -12 -4 -19
-1 -8 3 -5 6 6 6 11 1 17 -2 13 -5z m-5990 -10 c-3 -3 -12 -4 -19 -1 -8 3 -5
6 6 6 11 1 17 -2 13 -5z m3046 -1 c-13 -2 -35 -2 -50 0 -16 2 -5 4 22 4 28 0
40 -2 28 -4z m4140 0 c-34 -2 -93 -2 -130 0 -37 2 -9 3 62 3 72 0 102 -1 68
-3z m485 0 c-26 -2 -71 -2 -100 0 -29 2 -8 3 47 3 55 0 79 -1 53 -3z m-14417
-284 c-14 -5 -32 -15 -40 -22 -9 -6 -8 -2 3 11 11 12 29 22 40 21 19 0 19 -1
-3 -10z m2305 -5 c10 -8 13 -12 5 -8 -8 4 -42 10 -75 14 l-61 7 56 2 c37 1 62
-4 75 -15z m994 6 c11 -8 7 -9 -15 -4 -37 8 -45 14 -19 14 10 0 26 -5 34 -10z
m1016 -6 c10 -8 12 -12 4 -8 -8 4 -30 11 -50 15 -35 7 -35 7 -4 8 16 0 39 -6
50 -15z m1000 0 c10 -8 12 -12 4 -7 -8 4 -49 11 -90 14 l-75 6 71 1 c51 2 75
-2 90 -14z m998 10 c9 -3 16 -10 16 -16 0 -5 -6 -6 -12 -1 -7 4 -40 11 -73 14
l-60 6 57 1 c31 1 63 -1 72 -4z m984 -2 c7 -5 -16 -7 -50 -5 -91 6 -103 11
-28 12 36 0 71 -3 78 -7z m477 -4 c-11 -6 -28 -20 -38 -32 l-18 -21 10 22 c11
22 38 42 56 42 6 0 1 -5 -10 -11z m546 -5 c12 -14 12 -16 -1 -8 -8 5 -30 12
-50 16 l-35 7 36 1 c23 1 42 -5 50 -16z m1001 -2 c11 -12 10 -12 -2 -5 -8 5
-51 12 -95 15 l-80 7 82 -2 c56 -1 86 -6 95 -15z m977 10 c10 -6 -1 -8 -30 -4
-24 3 -46 7 -48 9 -10 9 65 3 78 -5z m1000 0 c8 -5 -5 -7 -35 -4 -68 6 -77 11
-24 12 25 0 51 -3 59 -8z m-9540 -4 c-2 -1 -13 -9 -24 -17 -19 -14 -19 -14 -6
3 7 9 18 17 24 17 6 0 8 -1 6 -3z m2001 0 c0 -2 -10 -12 -22 -23 l-23 -19 19
23 c18 21 26 27 26 19z m1000 -9 c-8 -7 -20 -20 -28 -28 -11 -13 -12 -12 -3 7
9 18 23 29 41 32 2 1 -2 -5 -10 -11z m2009 9 c-2 -1 -15 -11 -29 -22 l-25 -20
19 23 c11 12 24 22 29 22 6 0 8 -1 6 -3z m1983 -25 c-15 -15 -29 -26 -31 -25
-6 4 41 53 50 53 4 0 -4 -13 -19 -28z m1008 25 c0 -2 -10 -12 -22 -23 l-23
-19 19 23 c18 21 26 27 26 19z m1000 0 c0 -2 -10 -12 -22 -23 l-23 -19 19 23
c18 21 26 27 26 19z m987 -12 c-10 -7 -25 -22 -33 -32 -14 -17 -14 -16 -4 4 5
12 18 27 28 32 25 15 30 13 9 -4z m536 8 c-7 -2 -19 -2 -25 0 -7 3 -2 5 12 5
14 0 19 -2 13 -5z m496 5 c-2 -2 -17 -14 -34 -28 l-30 -25 24 28 c14 15 29 27
34 27 6 0 8 -1 6 -2z m-7037 -30 c-7 -7 -12 -8 -12 -2 0 14 12 26 19 19 2 -3
-1 -11 -7 -17z m5308 -134 c0 -8 -9 -14 -20 -14 -19 0 -27 19 -14 33 10 9 34
-4 34 -19z m954 -30 c13 -34 7 -64 -14 -64 -17 0 -20 7 -20 40 0 41 21 57 34
24z m54 -27 c3 -32 0 -37 -17 -37 -18 0 -21 6 -21 41 0 33 3 40 18 37 12 -2
18 -14 20 -41z m1382 13 c-8 -5 -25 -10 -37 -10 -14 0 -23 -6 -23 -15 0 -10
11 -15 35 -15 19 0 35 -4 35 -10 0 -5 -16 -10 -35 -10 -24 0 -35 -5 -35 -15 0
-10 10 -15 34 -15 19 0 38 -5 41 -11 5 -7 -9 -9 -42 -7 l-48 3 -3 58 -3 57 48
0 c35 0 44 -3 33 -10z m94 -35 c22 -33 36 -32 36 5 0 17 5 30 10 30 6 0 10
-27 10 -60 0 -33 -4 -60 -10 -60 -5 0 -22 18 -36 40 -33 49 -44 50 -44 5 0
-19 -4 -35 -10 -35 -6 0 -10 27 -10 60 0 56 1 60 19 51 10 -6 26 -22 35 -36z
m156 35 c0 -5 -5 -10 -11 -10 -7 0 -10 -19 -7 -52 2 -35 -1 -53 -10 -56 -10
-3 -12 12 -11 62 2 57 4 66 20 66 11 0 19 -4 19 -10z m-2642 -28 c3 -17 -2
-22 -17 -22 -16 0 -21 6 -21 26 0 33 33 30 38 -4z m2699 6 c-3 -8 -6 -5 -6 6
-1 11 2 17 5 13 3 -3 4 -12 1 -19z m46 15 c-7 -2 -19 -2 -25 0 -7 3 -2 5 12 5
14 0 19 -2 13 -5z m-13458 -41 c-3 -3 -11 0 -18 7 -9 10 -8 11 6 5 10 -3 15
-9 12 -12z m-65 -13 c-7 -11 -14 -18 -17 -15 -3 3 0 12 7 21 18 21 23 19 10
-6z m358 -11 c3 -29 1 -30 -48 -32 -20 -1 -26 -7 -28 -28 -2 -16 -8 -28 -13
-28 -11 0 -12 103 -2 114 4 4 25 6 48 4 35 -3 40 -6 43 -30z m92 -18 c18 -3
35 -12 37 -20 3 -10 2 -11 -4 -3 -4 6 -26 13 -48 15 -31 2 -40 7 -39 21 3 36
6 41 13 17 5 -19 15 -26 41 -30z m13075 -11 c29 -4 33 -7 15 -9 -73 -7 -71 -9
-69 43 l1 32 7 -30 c5 -26 12 -31 46 -36z m-13374 22 c-7 -12 -7 -22 -1 -26 5
-3 0 -15 -11 -26 -30 -30 -33 -18 -8 35 13 25 25 44 27 42 2 -3 -1 -13 -7 -25z
m1640 -8 c6 -21 20 -54 29 -73 31 -63 34 -80 11 -80 -11 0 -22 9 -26 19 -4 14
-17 20 -46 23 -35 3 -42 1 -50 -19 -9 -24 -39 -32 -39 -10 0 7 7 22 16 33 8
10 12 13 8 5 -4 -9 -3 -12 3 -8 6 4 11 22 11 39 -1 48 28 108 51 108 14 0 23
-11 32 -37z m1018 27 c10 -5 21 -17 25 -25 5 -13 0 -16 -27 -15 -66 4 -87 0
-87 -15 0 -11 11 -15 43 -15 52 0 65 -8 72 -45 10 -50 -13 -69 -80 -69 -38 0
-59 4 -65 14 -18 27 -10 32 45 28 35 -2 56 1 59 9 7 18 -4 23 -49 23 -49 0
-65 13 -65 56 0 23 7 38 22 48 25 18 80 21 107 6z m5921 -19 c0 -46 20 -49 53
-8 19 24 37 37 53 37 13 0 24 -2 24 -5 0 -2 -14 -24 -31 -49 l-32 -45 32 -39
c17 -22 31 -44 31 -49 0 -23 -45 -3 -74 32 -36 43 -56 41 -56 -6 0 -22 -5 -29
-20 -29 -19 0 -20 7 -20 95 0 88 1 95 20 95 15 0 20 -7 20 -29z m1010 -46 l0
-75 35 -1 c58 -2 60 -3 63 -27 3 -22 2 -23 -70 -20 l-73 3 -3 65 c-4 91 4 130
28 130 18 0 20 -7 20 -75z m3783 68 c-7 -2 -19 -2 -25 0 -7 3 -2 5 12 5 14 0
19 -2 13 -5z m-9685 -15 c7 -7 12 -40 12 -80 0 -61 -3 -69 -24 -83 -18 -12
-36 -15 -70 -10 -41 7 -46 10 -46 34 0 20 -2 23 -10 11 -7 -10 -10 9 -10 63
l0 77 68 0 c40 0 73 -5 80 -12z m-3623 -48 c17 -33 19 -44 6 -36 -10 6 -33 66
-26 66 3 0 11 -13 20 -30z m6620 8 c6 -4 2 -8 -7 -8 -10 0 -18 7 -18 17 0 9 3
12 8 7 4 -5 12 -12 17 -16z m-6345 -28 c3 0 -2 -5 -10 -10 -22 -14 -66 -12
-79 4 -10 12 -4 13 36 10 26 -2 50 -3 53 -4z m-418 -9 c-14 -9 -60 -7 -70 3
-3 3 15 6 39 6 28 0 39 -3 31 -9z m4768 -6 c0 -10 -10 -15 -30 -15 -29 0 -38
9 -23 23 13 13 53 7 53 -8z m5940 -31 c0 -33 -33 -30 -38 4 -3 17 2 22 17 22
16 0 21 -6 21 -26z m2578 -3 c2 -1 -5 -16 -16 -35 -11 -19 -18 -37 -15 -40 4
-3 39 -6 80 -6 71 0 73 1 73 25 0 18 5 25 20 25 17 0 20 -7 20 -45 l0 -45
-100 0 c-90 0 -100 -2 -100 -18 0 -10 5 -23 12 -30 7 -7 9 -12 5 -12 -7 0 -26
18 -60 57 -17 20 -17 22 9 76 27 55 30 57 72 48z m-13169 -25 c7 -8 11 -34 9
-58 l-3 -43 -47 -3 -48 -3 0 54 c0 29 3 57 7 60 12 13 70 7 82 -7z m141 0 c0
-9 -12 -13 -37 -12 -38 1 -38 1 -38 -39 0 -40 0 -40 38 -39 20 1 37 -2 37 -6
0 -12 -32 -17 -65 -10 -27 5 -30 9 -33 49 -2 24 -1 50 2 57 7 19 96 19 96 0z
m55 -5 c-3 -10 1 -23 9 -30 11 -9 19 -5 40 21 14 18 26 28 26 22 0 -6 -7 -17
-15 -24 -8 -7 -15 -19 -15 -26 0 -8 -3 -13 -7 -13 -29 5 -42 -4 -46 -28 -3
-21 -4 -18 -6 12 -1 22 -4 50 -7 63 -5 16 -2 22 11 22 11 0 15 -5 10 -19z
m-347 -94 l37 -4 -42 -1 c-23 -1 -45 3 -48 9 -4 6 -3 31 1 57 l9 47 3 -52 c3
-52 3 -52 40 -56z m11722 53 c0 -29 -4 -40 -15 -40 -11 0 -15 11 -15 40 0 29
4 40 15 40 11 0 15 -11 15 -40z m-980 6 c0 -63 -34 -78 -37 -16 -2 34 0 40 17
40 14 0 20 -7 20 -24z m-1202 -253 c-10 -2 -26 -2 -35 0 -10 3 -2 5 17 5 19 0
27 -2 18 -5z m435 0 c-7 -2 -19 -2 -25 0 -7 3 -2 5 12 5 14 0 19 -2 13 -5z
m600 0 c-13 -2 -33 -2 -45 0 -13 2 -3 4 22 4 25 0 35 -2 23 -4z m400 0 c-7 -2
-21 -2 -30 0 -10 3 -4 5 12 5 17 0 24 -2 18 -5z m520 0 c-7 -2 -21 -2 -30 0
-10 3 -4 5 12 5 17 0 24 -2 18 -5z m-2816 -9 c-3 -3 -12 -4 -19 -1 -8 3 -5 6
6 6 11 1 17 -2 13 -5z m86 -1 c-13 -2 -33 -2 -45 0 -13 2 -3 4 22 4 25 0 35
-2 23 -4z m1015 0 c-21 -2 -55 -2 -75 0 -21 2 -4 4 37 4 41 0 58 -2 38 -4z
m995 0 c-7 -2 -21 -2 -30 0 -10 3 -4 5 12 5 17 0 24 -2 18 -5z m1075 0 c-53
-2 -143 -2 -200 0 -57 1 -13 3 97 3 110 0 156 -2 103 -3z m-9515 -260 c-7 -2
-19 -2 -25 0 -7 3 -2 5 12 5 14 0 19 -2 13 -5z m970 0 c-34 -2 -93 -2 -130 0
-37 2 -9 3 62 3 72 0 102 -1 68 -3z m1000 0 c-40 -2 -107 -2 -150 0 -43 1 -10
3 72 3 83 0 118 -2 78 -3z m985 0 c-38 -2 -98 -2 -135 0 -38 2 -7 3 67 3 74 0
105 -1 68 -3z m1045 0 c-46 -2 -120 -2 -165 0 -46 1 -9 3 82 3 91 0 128 -2 83
-3z m1020 0 c-18 -2 -48 -2 -65 0 -18 2 -4 4 32 4 36 0 50 -2 33 -4z m1000 0
c-29 -2 -78 -2 -110 0 -32 2 -8 3 52 3 61 0 87 -1 58 -3z m975 0 c-32 -2 -86
-2 -120 0 -35 2 -9 3 57 3 66 0 94 -1 63 -3z m980 0 c-16 -2 -40 -2 -55 0 -16
2 -3 4 27 4 30 0 43 -2 28 -4z m985 0 c-13 -2 -35 -2 -50 0 -16 2 -5 4 22 4
28 0 40 -2 28 -4z m-11605 -13 c-14 -4 -32 -11 -40 -15 -7 -3 -4 1 6 9 11 9
29 16 40 15 17 -1 16 -2 -6 -9z m1630 3 c-60 -2 -156 -2 -215 0 -60 1 -11 3
107 3 118 0 167 -2 108 -3z m2622 -7 c0 -2 -8 -10 -17 -17 -16 -13 -17 -12 -4
4 13 16 21 21 21 13z m2010 1 c0 -2 -10 -12 -22 -23 l-23 -19 19 23 c18 21 26
27 26 19z m6010 0 c0 -2 -10 -12 -22 -23 l-23 -19 19 23 c18 21 26 27 26 19z
m-12353 -224 c-2 -32 -3 -8 -3 52 0 61 1 87 3 58 2 -29 2 -78 0 -110z m11661
44 c26 -20 11 -74 -24 -88 -19 -7 -24 -16 -24 -44 0 -24 -5 -35 -15 -35 -12 0
-15 13 -15 55 0 55 0 55 31 55 26 0 30 3 27 23 -2 17 -11 23 -36 25 -18 2 -39
-2 -47 -8 -10 -8 -15 -8 -20 0 -21 34 84 48 123 17z m-1020 -53 c12 -8 20 -20
16 -25 -7 -12 -66 -39 -84 -39 -19 0 -10 19 17 33 l27 14 -22 12 c-12 6 -22
16 -22 22 0 12 35 3 68 -17z m-1010 0 c-35 -18 -35 -28 -3 -42 48 -22 25 -31
-25 -10 -27 11 -50 24 -50 28 0 9 61 37 85 38 16 1 15 -2 -7 -14z m7161 -39
c46 -23 51 -30 42 -63 -1 -1 -14 4 -31 13 -16 8 -31 15 -35 15 -3 0 -5 -36 -5
-81 0 -78 -1 -80 -22 -77 -21 3 -23 9 -26 81 -2 42 -6 77 -11 77 -4 0 -16 -7
-27 -15 -28 -21 -44 -18 -44 8 0 18 11 29 43 44 56 27 60 27 116 -2z m-14183
-7 c0 -22 -19 -23 -40 -2 -20 20 -21 19 12 20 21 1 28 -4 28 -18z m1059 -25
c-12 -18 -19 -22 -25 -13 -6 10 -9 9 -13 -1 -4 -11 -6 -11 -6 1 0 19 19 45 39
52 22 7 24 -9 5 -39z m2029 39 c3 -5 -10 -47 -28 -93 -24 -63 -37 -84 -51 -84
-12 0 -22 11 -27 30 -5 17 -18 51 -29 77 -20 50 -25 72 -9 48 8 -12 10 -12 10
5 1 18 2 17 15 -5 19 -33 19 -46 0 -30 -12 10 -15 10 -15 0 0 -6 8 -14 19 -17
10 -3 23 -14 29 -26 10 -22 10 -22 17 -2 35 93 54 121 69 97z m-1006 -25 c2
-10 -3 -14 -15 -12 -10 2 -24 4 -30 4 -7 1 -13 6 -13 12 0 6 9 8 21 4 16 -5
19 -4 14 5 -5 8 -3 11 6 8 8 -3 15 -12 17 -21z m8780 -105 c-4 -43 -22 -49
-26 -9 -3 23 -8 27 -33 27 -24 0 -29 -4 -29 -25 0 -14 -4 -25 -10 -25 -6 0
-10 27 -10 60 0 58 15 84 22 38 4 -28 45 -38 53 -14 16 50 17 51 27 18 5 -19
8 -50 6 -70z m52 27 c0 -46 -3 -59 -15 -59 -12 0 -15 13 -15 58 0 32 3 62 6
65 15 15 24 -8 24 -64z m-12549 3 c1 -28 0 -55 -4 -59 -4 -3 -7 22 -7 57 0 75
8 77 11 2z m55 36 c-1 -20 5 -23 37 -26 43 -4 41 -22 -3 -22 -22 0 -31 -6 -39
-27 -8 -24 -10 -19 -9 35 1 34 4 62 8 62 4 0 7 -10 6 -22z m157 -10 c-3 -18
-7 -35 -9 -37 -6 -7 -11 2 -17 37 -6 27 -4 32 13 32 17 0 19 -5 13 -32z
m12142 21 c5 -7 -4 -9 -25 -5 -43 6 -50 16 -12 16 17 0 34 -5 37 -11z m257 -1
c-23 -23 -13 -38 23 -38 19 0 35 -4 35 -10 0 -5 -16 -10 -35 -10 -33 0 -40 -7
-36 -37 1 -7 -5 -13 -14 -13 -13 0 -16 10 -14 53 3 63 4 67 32 67 16 0 18 -3
9 -12z m-10942 -19 c0 -5 -4 -9 -8 -9 -5 0 -9 7 -9 15 0 8 4 12 9 9 4 -3 8 -9
8 -15z m-38 -29 l-4 -40 47 0 c39 0 46 -3 43 -17 -2 -12 -14 -19 -38 -21 -49
-5 -120 7 -120 20 0 9 67 98 73 98 2 0 1 -18 -1 -40z m1965 -7 c-3 -10 -5 -2
-5 17 0 19 2 27 5 18 2 -10 2 -26 0 -35z m8758 -18 c0 -27 -4 -30 -34 -33 -18
-2 -39 2 -45 8 -8 9 -5 11 14 10 41 -3 50 -1 50 15 0 8 -8 16 -17 16 -41 3
-46 4 -50 15 -2 7 11 8 39 5 40 -6 43 -8 43 -36z m-12406 -2 c-1 -22 -3 -30
-6 -18 -3 11 -9 25 -14 31 -5 6 -6 14 -2 17 15 16 23 5 22 -30z m10721 -5 c-2
-26 -59 -183 -68 -186 -17 -5 -15 23 8 98 29 92 28 90 45 90 8 0 15 -1 15 -2z
m-6950 -24 c0 -7 -9 -15 -19 -19 -25 -8 -91 -3 -85 6 2 4 -2 11 -10 16 -9 5
11 8 50 9 46 1 64 -3 64 -12z m-1010 -13 c0 -5 -9 -7 -20 -4 -11 3 -20 7 -20
9 0 2 9 4 20 4 11 0 20 -4 20 -9z m5930 -48 c0 -22 -2 -25 -10 -13 -13 20 -13
40 0 40 6 0 10 -12 10 -27z m1010 -3 c0 -11 -7 -20 -15 -20 -8 0 -15 9 -15 20
0 11 7 20 15 20 8 0 15 -9 15 -20z m237 -216 c-3 -3 -12 -4 -19 -1 -8 3 -5 6
6 6 11 1 17 -2 13 -5z m576 -1 c-7 -2 -21 -2 -30 0 -10 3 -4 5 12 5 17 0 24
-2 18 -5z m420 0 c-7 -2 -21 -2 -30 0 -10 3 -4 5 12 5 17 0 24 -2 18 -5z
m-9725 -280 c-16 -2 -40 -2 -55 0 -16 2 -3 4 27 4 30 0 43 -2 28 -4z m14322
-16 c0 -2 -10 -12 -22 -23 l-23 -19 19 23 c18 21 26 27 26 19z m-3627 -266 c4
-1 7 -41 7 -91 l0 -90 -89 0 c-84 0 -89 1 -95 23 -8 31 -7 152 1 161 6 6 50 5
176 -3z m3937 -81 c0 -44 2 -80 5 -80 3 0 21 7 40 14 32 14 35 14 35 -3 0 -11
-19 -28 -50 -45 l-50 -27 -53 28 c-35 19 -53 35 -55 51 -4 27 4 28 46 2 17
-11 33 -16 33 -12 2 11 5 52 7 105 2 40 5 47 22 47 18 0 20 -7 20 -80z
m-16165 59 c4 -6 -2 -13 -14 -16 -18 -4 -21 -13 -21 -55 0 -35 -4 -48 -12 -45
-9 2 -12 18 -10 44 3 33 -1 44 -19 56 -21 15 -21 16 17 20 22 2 42 4 46 5 4 1
10 -3 13 -9z m13525 -4 c0 -8 -9 -15 -20 -15 -18 0 -20 -7 -20 -57 0 -40 -3
-54 -11 -46 -12 12 -17 34 -18 76 -1 17 -6 27 -16 27 -8 0 -15 7 -15 15 0 11
12 15 50 15 38 0 50 -4 50 -15z m108 -1 c15 -4 16 -46 0 -62 -8 -8 -8 -15 2
-27 24 -29 0 -29 -30 0 -21 20 -30 24 -32 14 0 -8 -2 -18 -2 -24 -1 -5 -6 -12
-11 -15 -6 -3 -11 22 -13 62 l-3 67 38 -5 c21 -3 44 -7 51 -10z m1468 -8 c-3
-13 -8 -31 -12 -39 -6 -17 33 -27 102 -27 38 0 44 -3 44 -20 0 -12 -6 -20 -12
-19 -7 1 -42 1 -77 0 -55 -1 -63 -3 -58 -18 20 -63 20 -63 -1 -63 -14 0 -25
14 -41 49 -26 61 -26 60 1 116 15 30 28 45 41 45 15 0 18 -5 13 -24z m2109 4
c8 0 12 -8 10 -20 -2 -11 0 -22 6 -25 15 -10 11 -75 -5 -75 -8 0 -16 4 -18 9
-2 8 -57 15 -145 20 -7 1 -13 10 -13 22 0 20 5 21 78 18 83 -3 80 -5 68 51 -4
14 -4 19 0 13 3 -7 12 -13 19 -13z m-17339 -2 c5 -8 -4 -9 -34 -6 -35 5 -42 3
-48 -14 -3 -11 -3 -30 0 -44 6 -21 12 -24 48 -24 30 0 39 -3 31 -11 -6 -6 -28
-9 -49 -7 -38 3 -39 4 -42 47 -2 24 -1 50 2 57 7 17 82 19 92 2z m254 -17 c0
-16 -6 -31 -12 -34 -10 -3 -10 -9 0 -26 15 -26 15 -31 -1 -31 -8 0 -20 11 -27
25 -7 14 -19 25 -27 25 -7 0 -13 -11 -13 -25 0 -14 -4 -25 -10 -25 -6 0 -10
27 -10 60 l0 60 50 0 c49 0 50 -1 50 -29z m52 -18 c3 -46 4 -48 36 -51 48 -5
39 -24 -10 -20 l-43 3 0 57 c0 70 13 77 17 11z m2352 3 c7 -18 17 -44 21 -57
8 -24 7 -24 -13 -5 -14 12 -31 17 -52 14 -34 -5 -41 14 -15 48 13 18 14 18 8
-5 -5 -19 -2 -22 13 -19 10 2 17 11 16 19 -10 39 -10 49 -1 44 5 -4 15 -21 23
-39z m76 -6 l0 -50 40 0 c22 0 40 -4 40 -10 0 -5 -22 -10 -50 -10 l-50 0 0 60
c0 33 4 60 10 60 6 0 10 -22 10 -50z m173 33 c-18 -12 -23 -25 -23 -59 0 -23
-4 -46 -10 -49 -6 -4 -10 15 -10 49 0 42 -4 56 -14 56 -8 0 -18 5 -21 10 -4 6
14 10 47 9 51 0 52 -1 31 -16z m6810 -40 c17 -37 22 -59 15 -62 -6 -2 -15 4
-20 13 -12 21 -54 21 -67 -1 -5 -10 -13 -15 -16 -11 -9 8 41 118 53 118 5 0
21 -26 35 -57z m77 7 l0 -50 35 0 c25 0 35 -4 35 -16 0 -12 -10 -14 -47 -12
l-48 3 -3 63 c-2 51 0 62 13 62 11 0 15 -12 15 -50z m168 36 c-11 -8 -18 -27
-18 -47 0 -19 -5 -41 -10 -49 -7 -11 -10 -2 -10 33 0 40 -4 50 -20 54 -37 10
-21 23 28 23 41 -1 45 -2 30 -14z m1067 4 c-3 -5 -19 -10 -36 -10 -16 0 -29
-4 -29 -10 0 -5 10 -10 23 -10 12 0 29 -5 37 -10 11 -7 7 -10 -17 -10 -25 0
-36 -6 -47 -27 -15 -28 -15 -27 -16 30 l0 57 46 0 c27 0 43 -4 39 -10z m75
-20 c12 -16 26 -30 31 -30 5 0 9 14 9 30 0 17 5 30 10 30 6 0 10 -25 10 -55 0
-63 -10 -68 -47 -25 -32 38 -43 38 -43 -2 0 -45 -6 -32 -14 30 -8 62 9 71 44
22z m2425 21 c3 -6 -14 -11 -37 -13 -42 -3 -43 -4 -43 -38 0 -35 0 -35 43 -33
57 3 52 -21 -6 -25 -31 -2 -43 1 -50 15 -10 19 -14 82 -6 95 7 11 92 10 99 -1z
m304 -91 c1 -13 0 -13 -9 0 -5 8 -9 24 -9 35 l0 20 9 -20 c5 -11 9 -27 9 -35z
m-12242 -32 c-2 -13 -4 -5 -4 17 -1 22 1 32 4 23 2 -10 2 -28 0 -40z m12298
22 c4 -6 -5 -10 -19 -10 -14 0 -26 5 -26 10 0 6 9 10 19 10 11 0 23 -4 26 -10z
m3469 -44 c-3 -8 -14 -14 -24 -13 -23 2 -14 27 11 27 12 0 16 -5 13 -14z
m-8418 -241 c-17 -13 -257 -15 -1875 -13 l-1856 3 1857 5 c1021 3 1860 8 1864
13 4 4 12 7 18 7 6 0 2 -7 -8 -15z m525 -13 c-24 -2 -47 0 -52 5 -4 4 15 6 44
3 l52 -5 -44 -3z m744 8 c-3 -5 -12 -10 -18 -10 -7 0 -6 4 3 10 19 12 23 12
15 0z m1711 -8 c-21 -2 -42 0 -47 5 -4 4 13 6 39 3 l47 -5 -39 -3z m5090 3
c16 -8 22 -15 13 -15 -8 0 -24 7 -35 15 -25 19 -14 19 22 0z m-12448 -2 c-10
-2 -26 -2 -35 0 -10 3 -2 5 17 5 19 0 27 -2 18 -5z m6267 -8 c21 -7 -151 -3
-175 4 -14 5 18 6 70 4 52 -3 100 -6 105 -8z m600 5 c-3 -5 -18 -9 -33 -9
l-27 1 30 8 c17 4 31 8 33 9 2 0 0 -3 -3 -9z m1205 0 c-14 -4 -169 -7 -345 -7
l-320 2 325 5 c179 3 334 6 345 7 14 1 13 -1 -5 -7z m648 3 c-21 -2 -55 -2
-75 0 -21 2 -4 4 37 4 41 0 58 -2 38 -4z m-3260 -10 c-86 -2 -230 -2 -320 0
-90 1 -19 3 157 3 176 0 249 -2 163 -3z m3590 0 c-38 -2 -98 -2 -135 0 -38 2
-7 3 67 3 74 0 105 -1 68 -3z m505 0 c-24 -2 -62 -2 -85 0 -24 2 -5 4 42 4 47
0 66 -2 43 -4z m1000 0 c-18 -2 -48 -2 -65 0 -18 2 -4 4 32 4 36 0 50 -2 33
-4z m360 0 c-18 -2 -48 -2 -65 0 -18 2 -4 4 32 4 36 0 50 -2 33 -4z m615 0
c-10 -2 -28 -2 -40 0 -13 2 -5 4 17 4 22 1 32 -1 23 -4z m-4875 -10 c-62 -2
-165 -2 -230 0 -65 1 -14 3 112 3 127 0 180 -2 118 -3z m5180 0 c-40 -2 -106
-2 -145 0 -40 1 -8 3 72 3 80 0 112 -2 73 -3z m965 0 c-38 -2 -98 -2 -135 0
-38 2 -7 3 67 3 74 0 105 -1 68 -3z"/>
<path d="M16234 7448 c3 -39 9 -74 11 -77 12 -11 20 15 23 80 4 66 3 69 -18
69 -22 0 -23 -2 -16 -72z"/>
<path d="M16173 7388 c-13 -6 -23 -14 -23 -18 0 -4 22 -19 50 -34 l49 -27 40
20 c50 26 58 39 35 56 -27 20 -44 18 -44 -4 0 -11 -5 -23 -10 -26 -18 -11 -50
6 -50 26 0 21 -14 23 -47 7z"/>
<path d="M16132 7329 c2 -14 23 -32 60 -52 l57 -32 55 30 c42 23 56 36 56 52
0 22 -1 22 -57 -9 l-58 -31 -53 32 c-63 37 -64 37 -60 10z"/>
<path d="M16200 6385 c0 -8 9 -15 20 -15 11 0 20 7 20 15 0 8 -9 15 -20 15
-11 0 -20 -7 -20 -15z"/>
<path d="M16302 6268 c5 -15 37 -18 41 -3 1 6 -9 12 -22 13 -16 3 -22 -1 -19
-10z"/>
<path d="M10301 6251 c-8 -5 -11 -16 -8 -26 10 -24 62 -16 62 9 0 21 -31 31
-54 17z"/>
<path d="M10303 6183 c-24 -9 -13 -31 18 -38 22 -5 34 -3 40 6 14 23 -25 45
-58 32z"/>
<path d="M11992 6233 c2 -12 13 -18 33 -18 20 0 31 6 33 18 3 14 -4 17 -33 17
-29 0 -36 -3 -33 -17z"/>
<path d="M17235 6260 c-3 -5 3 -10 14 -10 12 0 21 5 21 10 0 6 -6 10 -14 10
-8 0 -18 -4 -21 -10z"/>
<path d="M13037 6243 c-4 -3 -7 -26 -7 -51 0 -35 3 -43 15 -38 8 3 15 1 15 -5
0 -6 10 -9 23 -7 19 3 22 10 25 51 3 43 -10 64 -21 35 -3 -8 -6 -6 -6 5 -1 17
-31 24 -44 10z"/>
<path d="M17330 6241 c0 -25 4 -31 21 -31 16 0 20 5 17 27 -2 17 -10 29 -20
31 -14 3 -18 -3 -18 -27z"/>
<path d="M17214 6115 c-9 -23 4 -47 23 -43 11 2 19 14 21 31 3 22 -1 27 -18
27 -11 0 -23 -7 -26 -15z"/>
<path d="M18096 6143 c-12 -12 -5 -23 14 -23 11 0 20 4 20 9 0 11 -26 22 -34
14z"/>
<path d="M18087 6104 c-14 -14 -6 -24 19 -24 16 0 24 5 22 13 -5 14 -31 21
-41 11z"/>
<path d="M18180 6136 c0 -10 9 -16 21 -16 24 0 21 23 -4 28 -10 2 -17 -3 -17
-12z"/>
<path d="M16360 6085 c0 -10 7 -15 18 -13 21 4 19 22 -2 26 -10 2 -16 -3 -16
-13z"/>
<path d="M16449 6078 c-2 -17 2 -42 6 -47 7 -7 35 28 35 43 0 19 -39 22 -41 4z"/>
<path d="M16400 4960 c0 -5 9 -10 20 -10 11 0 20 5 20 10 0 6 -9 10 -20 10
-11 0 -20 -4 -20 -10z"/>
<path d="M17207 4963 c-2 -5 -2 -14 -1 -20 1 -7 2 -17 3 -23 0 -5 9 -10 20
-10 19 0 31 25 24 48 -5 13 -39 17 -46 5z"/>
<path d="M10896 4874 c-7 -57 -3 -64 40 -64 l34 0 0 49 c0 42 -3 49 -22 55
-40 10 -45 7 -52 -40z"/>
<path d="M10382 3938 l3 -53 35 0 35 0 0 50 0 50 -38 3 -38 3 3 -53z"/>
<path d="M11402 3978 c6 -18 55 -18 69 -2 9 11 4 14 -31 14 -29 0 -40 -4 -38
-12z"/>
<path d="M17370 3955 c0 -34 2 -36 28 -33 23 3 27 8 27 33 0 25 -4 30 -27 33
-26 3 -28 1 -28 -33z"/>
<path d="M16017 3984 c-15 -15 -6 -54 14 -65 27 -14 42 0 37 37 -3 28 -34 45
-51 28z"/>
<path d="M18200 3896 c0 -32 3 -36 26 -36 23 0 25 3 22 33 -2 24 -8 33 -25 35
-20 3 -23 -1 -23 -32z"/>
<path d="M1190 3025 c0 -12 8 -16 33 -13 17 2 32 8 32 13 0 6 -15 11 -32 13
-25 3 -33 -1 -33 -13z"/>
<path d="M2648 2953 c-15 -29 -14 -30 10 -29 31 1 37 15 19 40 -13 18 -15 17
-29 -11z"/>
<path d="M4640 2940 l0 -60 40 0 40 0 0 55 c0 45 -3 55 -17 56 -10 0 -28 2
-40 5 -22 4 -23 1 -23 -56z"/>
<path d="M1040 2870 c-16 -10 -22 -36 -15 -67 4 -18 12 -23 35 -23 29 0 30 1
30 48 0 39 -3 48 -18 49 -10 1 -24 -2 -32 -7z"/>
<path d="M3106 1883 c-6 -14 -5 -15 5 -6 7 7 10 15 7 18 -3 3 -9 -2 -12 -12z"/>
<path d="M13227 1013 c-4 -3 -7 -37 -7 -75 l0 -69 78 3 77 3 3 49 c6 91 2 96
-77 96 -37 0 -71 -3 -74 -7z m103 -33 c0 -5 -16 -10 -35 -10 -19 0 -35 5 -35
10 0 6 16 10 35 10 19 0 35 -4 35 -10z m0 -40 c0 -5 -16 -10 -35 -10 -19 0
-35 5 -35 10 0 6 16 10 35 10 19 0 35 -4 35 -10z m-12 -37 c-10 -2 -28 -2 -40
0 -13 2 -5 4 17 4 22 1 32 -1 23 -4z"/>
<path d="M14727 984 c-11 -12 3 -24 29 -24 15 0 24 6 24 15 0 15 -40 21 -53 9z"/>
<path d="M1207 993 c-17 -16 -5 -33 23 -33 23 0 30 4 30 20 0 14 -7 20 -23 20
-13 0 -27 -3 -30 -7z"/>
<path d="M10694 966 c-4 -10 -2 -22 4 -28 8 -8 13 -7 18 6 4 10 2 22 -4 28 -8
8 -13 7 -18 -6z"/>
</g>
</svg>
