<?xml version="1.0" standalone="no"?>
<!DOCTYPE svg PUBLIC "-//W3C//DTD SVG 20010904//EN"
 "http://www.w3.org/TR/2001/REC-SVG-20010904/DTD/svg10.dtd">
<svg version="1.0" xmlns="http://www.w3.org/2000/svg"
 width="1000.000000pt" height="1000.000000pt" viewBox="0 0 1000.000000 1000.000000"
 preserveAspectRatio="xMidYMid meet">

<g transform="translate(0.000000,1000.000000) scale(0.100000,-0.100000)"
fill="#000000" stroke="none">
<path d="M4790 9865 c-257 -39 -437 -112 -550 -224 -79 -77 -108 -133 -120
-231 -7 -51 -26 -1226 -23 -1380 0 -19 1 -71 2 -115 2 -44 2 -82 0 -85 -1 -3
-3 -284 -4 -625 -2 -458 0 -624 8 -634 9 -11 9 -13 0 -8 -10 6 -12 -64 -12
-315 0 -178 0 -400 0 -494 l-1 -171 -76 -7 c-43 -3 -89 -12 -104 -20 -16 -8
-34 -10 -42 -5 -8 5 -31 6 -51 2 l-35 -5 -7 -115 c-4 -62 -5 -117 -1 -120 4
-4 26 13 50 36 l44 44 11 -39 c14 -51 14 -55 -4 -52 -14 3 -428 -390 -447
-425 -11 -21 3 -37 31 -37 12 0 12 3 3 12 -10 10 22 47 159 180 95 92 175 166
177 163 5 -5 -123 -188 -180 -256 -29 -36 -49 -49 -85 -59 l-48 -13 50 -13
c28 -8 155 -20 283 -28 129 -8 236 -17 240 -21 10 -9 -639 25 -774 41 l-51 6
-11 -68 c-14 -84 -11 -88 78 -109 60 -14 61 -14 15 -9 -27 3 -59 6 -70 7 -19
2 -20 -5 -23 -92 -3 -105 13 -176 53 -235 18 -26 25 -50 25 -84 0 -44 -3 -49
-34 -66 -30 -16 -56 -51 -56 -76 0 -5 12 -21 27 -34 22 -21 27 -33 24 -66 -3
-45 19 -71 74 -89 82 -27 138 -50 125 -51 -12 0 -11 -5 5 -18 11 -9 54 -55 95
-102 41 -46 101 -112 134 -147 32 -34 69 -77 82 -95 13 -17 27 -34 31 -38 41
-31 88 -110 65 -110 -3 0 -37 30 -75 68 -60 58 -68 64 -66 42 1 -14 -1 -32 -4
-40 -3 -8 -11 -32 -17 -53 -12 -38 -64 -87 -93 -87 -9 0 -30 23 -47 53 -30 52
-30 53 -30 210 l0 157 -52 58 c-29 32 -71 78 -93 103 l-40 44 -3 -85 c-2 -47
2 -238 7 -425 6 -187 16 -558 21 -825 12 -559 23 -770 45 -855 22 -87 78 -195
130 -253 25 -27 45 -52 45 -55 0 -3 -29 -26 -64 -51 -80 -57 -152 -137 -182
-201 -31 -66 -33 -181 -4 -257 21 -56 25 -83 12 -74 -5 3 -6 -23 -4 -57 3 -34
9 -65 14 -68 5 -3 9 -9 9 -13 -6 -32 141 -183 244 -253 219 -147 629 -271
1035 -313 180 -18 579 -24 747 -11 473 38 739 110 1138 308 149 74 261 170
301 257 23 52 50 174 40 184 -3 3 -6 -6 -7 -19 l-1 -24 -7 25 c-5 15 0 50 11
90 22 78 22 117 3 189 -33 126 -151 241 -345 337 -265 132 -623 209 -1130 244
-80 5 -154 10 -164 10 -44 0 -4 9 109 25 294 39 476 118 570 246 46 63 60 108
70 228 3 41 9 79 12 84 6 11 4 169 -3 176 -2 2 -16 -9 -31 -24 -39 -39 -121
-75 -185 -81 l-53 -5 62 24 c131 51 211 141 217 245 2 48 -7 82 -24 82 -6 0
-10 -11 -10 -25 0 -16 -7 -28 -17 -31 -10 -3 -27 -10 -38 -16 -27 -15 -135
-48 -157 -48 -14 0 -16 6 -11 33 3 17 12 39 20 49 8 9 10 18 5 22 -9 5 0 72
10 80 1 2 28 11 58 21 85 27 154 62 168 86 8 11 10 19 5 16 -4 -3 -8 30 -8 74
0 88 -10 76 108 128 37 16 67 33 67 36 0 4 -7 5 -15 1 -12 -4 -12 -1 2 21 13
20 18 55 21 149 3 68 8 124 13 124 18 0 23 -31 22 -135 0 -60 1 -95 4 -77 6
42 19 41 37 -3 12 -27 21 -35 40 -35 14 0 27 4 30 8 3 5 8 65 12 133 l7 124
-45 -49 c-52 -57 -81 -60 -44 -5 15 22 21 40 16 45 -6 6 6 28 30 58 60 73 47
76 -18 4 -44 -49 -55 -42 -13 9 35 42 38 53 16 53 -8 0 -15 2 -15 4 0 2 25 47
55 101 30 53 55 100 55 105 0 4 7 10 15 14 8 3 15 12 15 20 0 8 14 16 33 19
17 3 52 10 77 15 52 12 59 9 38 -15 -25 -30 -32 -49 -9 -25 12 12 28 22 35 22
19 0 43 30 25 31 -8 0 24 13 71 28 64 20 85 31 84 44 -1 9 5 17 13 17 8 0 11
-5 7 -12 -4 -6 -3 -8 3 -5 8 5 7 20 -2 49 l-12 43 35 20 c43 24 56 50 21 43
-13 -3 -33 -9 -44 -13 -17 -7 -16 -5 4 11 l23 20 2 268 1 268 -65 -6 -65 -5
68 17 c82 20 112 49 102 97 -4 16 -7 39 -8 50 -2 23 -15 24 -217 12 -360 -21
-480 -26 -530 -25 l-55 1 70 8 c60 7 392 28 493 31 17 1 32 3 32 4 0 6 -92
119 -109 134 -17 15 -94 105 -164 192 -43 53 -110 168 -103 176 3 2 1 13 -5
23 -19 36 9 20 50 -28 l41 -48 0 46 c0 25 -3 87 -6 137 l-7 92 -39 0 c-26 0
-40 -5 -43 -15 -15 -46 -18 -51 -22 -27 -6 32 -48 50 -136 58 l-77 7 -1 166
c0 91 -2 174 -4 184 -2 9 1 15 6 11 5 -3 9 18 9 46 0 36 -3 49 -12 44 -8 -5
-9 0 -3 17 14 44 17 111 6 122 -6 6 -11 18 -11 27 0 13 1 13 10 0 7 -11 10 2
10 43 0 36 -4 56 -10 52 -5 -3 -10 1 -10 9 0 8 5 18 10 21 15 9 12 92 -4 108
-9 9 -11 19 -5 28 7 11 9 11 9 1 0 -7 5 -10 10 -7 17 11 12 83 -7 94 -14 7
-15 12 -4 25 12 15 12 89 -1 126 -2 8 -3 12 -1 8 12 -22 23 -2 23 42 0 36 -5
52 -17 59 -14 7 -15 12 -4 24 16 20 17 87 1 116 -6 13 -9 25 -6 29 3 3 6 0 6
-6 0 -7 5 -12 10 -12 17 0 11 82 -7 103 -16 17 -16 19 -2 28 22 12 25 211 3
229 -14 13 -9 35 6 25 4 -3 8 47 8 110 1 66 -3 115 -9 115 -5 0 -9 7 -9 15 0
8 4 15 8 15 5 0 9 50 10 110 0 61 -4 110 -9 110 -5 0 -9 7 -9 16 0 8 5 12 10
9 13 -8 13 70 0 95 -7 13 -7 21 0 25 13 8 13 102 0 110 -5 3 -10 11 -10 16 0
6 4 8 9 5 8 -5 8 64 1 249 -1 11 -1 130 -2 265 0 135 -1 376 -2 535 l-1 290
-31 65 c-86 181 -281 293 -619 357 -115 22 -481 26 -605 8z m101 -403 c-19 -2
-30 -7 -23 -11 6 -4 -7 -8 -30 -8 -23 -1 -45 -8 -50 -15 -8 -11 -11 -10 -15 1
-4 10 -7 11 -13 1 -6 -10 -26 -10 -86 -3 l-79 9 55 12 c30 7 93 16 140 19 47
3 86 7 88 8 2 2 13 0 25 -4 18 -5 16 -7 -12 -9z m-154 -94 c-3 -7 -5 -2 -5 12
0 14 2 19 5 13 2 -7 2 -19 0 -25z m61 9 c2 -10 -3 -17 -12 -17 -10 0 -16 9
-16 21 0 24 23 21 28 -4z m-38 -52 c11 -13 10 -14 -4 -9 -9 3 -16 10 -16 15 0
13 6 11 20 -6z m50 -36 c0 -6 -4 -7 -10 -4 -5 3 -10 11 -10 16 0 6 5 7 10 4 6
-3 10 -11 10 -16z m-45 -9 c-3 -5 -12 -10 -18 -10 -7 0 -6 4 3 10 19 12 23 12
15 0z m-5 -64 c0 -3 -4 -8 -10 -11 -5 -3 -10 -1 -10 4 0 6 5 11 10 11 6 0 10
-2 10 -4z m200 -131 c24 -13 30 -22 30 -50 0 -26 -7 -38 -30 -55 -28 -20 -34
-21 -63 -9 -18 8 -34 13 -37 12 -10 -3 2 71 14 82 10 10 47 34 54 35 2 0 16
-7 32 -15z m161 -6 c51 -36 28 -109 -34 -109 -64 0 -94 85 -39 114 36 20 39
20 73 -5z m-295 -5 c17 -4 23 -11 20 -23 -3 -9 -7 -30 -8 -48 -1 -17 -6 -29
-10 -27 -4 3 -19 -3 -33 -12 -24 -16 -29 -16 -61 -1 -30 15 -34 20 -28 44 8
35 61 86 81 79 8 -3 26 -9 39 -12z m452 -2 c34 -26 28 -82 -10 -100 -27 -13
-36 -11 -76 16 -7 5 -15 23 -18 40 -9 53 56 81 104 44z m144 -19 c33 -35 31
-73 -5 -93 -24 -13 -28 -13 -54 6 -35 26 -44 79 -16 100 27 20 47 17 75 -13z
m-767 5 c19 -8 25 -19 25 -42 0 -36 -6 -46 -39 -69 -21 -14 -27 -14 -51 -2
-26 13 -27 18 -20 50 4 19 19 44 31 55 29 23 23 22 54 8z m896 -19 c39 -27 42
-84 5 -100 -20 -10 -30 -8 -55 10 -35 25 -42 69 -15 95 20 21 30 20 65 -5z
m-1030 -9 c31 -17 26 -71 -11 -98 -23 -18 -34 -20 -49 -13 -26 14 -21 64 9 96
27 29 25 28 51 15z m1156 -22 c29 -27 32 -83 4 -97 -40 -22 -93 73 -59 107 17
17 28 15 55 -10z m115 -35 c22 -20 25 -88 4 -96 -21 -8 -56 35 -56 69 0 47 19
57 52 27z m-904 -29 c15 -11 22 -25 22 -50 0 -29 -5 -37 -35 -51 -26 -13 -42
-14 -63 -7 -23 8 -27 14 -24 44 2 22 12 43 28 58 30 26 42 27 72 6z m160 0
c34 -24 30 -70 -9 -93 -26 -16 -36 -17 -58 -8 -33 15 -41 26 -41 58 0 49 64
74 108 43z m156 -5 c36 -29 34 -64 -5 -88 -33 -20 -52 -18 -81 7 -27 22 -24
76 5 90 33 16 52 14 81 -9z m-457 -9 c22 -27 15 -67 -18 -94 -35 -30 -47 -32
-75 -11 -27 19 -21 60 14 98 28 29 59 32 79 7z m38 6 c-11 -8 -24 -12 -29 -8
-5 3 -1 9 10 13 31 12 39 10 19 -5z m569 -7 c60 -47 5 -126 -62 -88 -34 19
-43 76 -16 96 25 18 47 16 78 -8z m532 4 c19 -25 18 -93 -1 -93 -20 0 -35 32
-35 74 0 39 15 46 36 19z m-405 -10 c49 -29 53 -91 8 -107 -40 -14 -79 16 -79
62 0 21 7 40 18 48 22 17 19 17 53 -3z m-1261 -39 c0 -19 -5 -45 -11 -57 l-12
-21 -8 21 c-9 24 7 93 21 93 6 0 10 -16 10 -36z m374 20 c25 -24 19 -59 -14
-88 -26 -21 -34 -24 -55 -14 -20 9 -23 16 -18 47 5 35 35 70 60 71 6 0 19 -7
27 -16z m1031 -19 c33 -32 33 -72 -1 -87 -30 -14 -52 -4 -74 35 -11 20 -12 30
-2 51 15 33 45 34 77 1z m-1160 2 c39 -29 -14 -132 -56 -107 -18 12 -13 79 8
103 19 21 24 21 48 4z m1495 -6 c13 -25 13 -81 0 -81 -13 0 -30 43 -30 76 0
29 15 31 30 5z m-223 -23 c27 -26 32 -85 7 -95 -24 -9 -64 35 -64 72 0 51 19
59 57 23z m-1581 -56 c-12 -12 -18 8 -10 35 l8 28 4 -28 c2 -16 1 -31 -2 -35z
m1853 5 c-1 -31 -1 -31 -9 -7 -11 36 -11 52 0 45 6 -3 10 -21 9 -38z m-167 16
c22 -20 25 -88 4 -96 -25 -10 -52 48 -47 101 1 17 21 15 43 -5z m-878 -14 c17
-14 26 -30 26 -50 0 -24 -7 -33 -36 -46 -32 -16 -38 -16 -62 -2 -40 22 -42 67
-5 96 35 28 43 28 77 2z m150 10 c31 -15 43 -65 20 -90 -25 -28 -50 -32 -84
-14 -24 13 -30 22 -30 49 0 23 7 38 23 49 27 19 39 20 71 6z m157 -10 c22 -15
29 -28 29 -53 0 -28 -5 -36 -31 -47 -27 -10 -36 -10 -58 2 -37 21 -42 76 -9
101 29 22 34 22 69 -3z m-1011 -32 c0 -40 -13 -67 -32 -67 -12 0 -10 68 2 91
17 32 30 22 30 -24z m549 28 c16 -8 32 -11 37 -7 5 4 4 0 -2 -8 -6 -8 -11 -25
-12 -38 -1 -26 -38 -61 -65 -62 -61 -1 -80 71 -29 109 33 25 35 25 71 6z m611
-13 c14 -11 22 -30 23 -52 2 -29 -2 -36 -26 -44 -42 -15 -81 9 -85 54 -6 55
43 78 88 42z m-756 -8 c24 -23 19 -62 -10 -89 -30 -28 -37 -29 -65 -15 -26 15
-25 67 3 97 25 27 50 29 72 7z m1264 -9 c22 -48 9 -103 -16 -72 -24 29 -27 97
-4 97 5 0 14 -11 20 -25z m-371 -7 c29 -27 31 -73 4 -88 -29 -15 -39 -13 -66
15 -29 28 -32 57 -9 79 21 22 43 20 71 -6z m-1035 -5 c45 -41 -9 -131 -62
-103 -29 15 -25 58 7 92 31 33 31 33 55 11z m1155 -15 c11 -13 23 -38 26 -55
5 -26 2 -35 -14 -44 -47 -25 -106 84 -60 111 23 13 25 13 48 -12z m-1490 -25
c-8 -49 -27 -67 -27 -26 0 38 9 63 22 63 7 0 8 -14 5 -37z m1803 -28 c0 -29
-3 -36 -10 -25 -5 8 -10 33 -10 55 0 29 3 36 10 25 5 -8 10 -33 10 -55z m-198
18 c22 -20 25 -88 4 -96 -21 -8 -56 35 -56 69 0 47 19 57 52 27z m-757 -29
c19 -13 25 -25 25 -54 0 -33 -4 -39 -31 -50 -69 -29 -120 51 -62 97 33 27 37
28 68 7z m156 -1 c24 -14 29 -24 29 -54 0 -31 -4 -38 -31 -49 -45 -19 -83 5
-87 54 -3 29 1 37 25 50 35 19 30 19 64 -1z m709 -64 c0 -43 -5 -47 -32 -22
-18 16 -26 82 -11 97 14 14 43 -36 43 -75z m-1012 55 c33 -23 29 -67 -8 -94
-27 -19 -35 -21 -60 -10 -26 11 -30 18 -30 50 0 58 51 87 98 54z m453 -1 c52
-31 50 -88 -3 -107 -62 -22 -109 71 -56 108 27 20 24 20 59 -1z m-608 -7 c36
-28 3 -116 -44 -116 -38 0 -49 12 -49 50 0 30 6 43 26 59 31 24 42 25 67 7z
m-513 -32 c0 -38 -15 -74 -30 -74 -13 0 -13 40 1 79 15 42 29 39 29 -5z m1274
15 c36 -28 36 -73 -1 -93 -25 -13 -30 -12 -55 6 -47 33 -34 106 18 108 6 0 23
-9 38 -21z m-911 -3 c48 -37 -4 -132 -59 -107 -33 15 -32 57 3 93 30 32 32 32
56 14z m1034 -15 c22 -18 33 -67 20 -89 -12 -19 -52 -14 -72 8 -32 36 -19 100
20 100 6 -1 20 -9 32 -19z m343 0 c13 -25 13 -81 0 -81 -15 0 -30 35 -30 69 0
35 14 40 30 12z m-1492 -45 c3 -32 -1 -43 -19 -57 -35 -26 -59 -9 -53 38 5 45
21 65 48 61 17 -2 22 -11 24 -42z m1272 14 c28 -28 27 -86 -1 -95 -31 -10 -59
21 -59 66 0 33 8 46 33 48 4 1 16 -8 27 -19z m-1589 -47 c-9 -15 -10 -13 -11
13 0 17 3 34 8 38 11 12 14 -32 3 -51z m1856 -10 c-3 -10 -5 -2 -5 17 0 19 2
27 5 18 2 -10 2 -26 0 -35z m-161 20 c16 -22 18 -79 3 -88 -20 -13 -49 26 -49
67 0 42 22 52 46 21z m-1586 -46 c-1 -34 -20 -67 -38 -67 -7 0 -10 15 -7 41 7
69 45 92 45 26z m695 31 c36 -16 36 -78 0 -102 -66 -43 -130 45 -69 93 31 24
35 25 69 9z m167 -8 c35 -27 26 -80 -16 -95 -64 -22 -118 61 -64 99 30 21 50
20 80 -4z m149 -1 c38 -27 40 -71 3 -96 -24 -16 -28 -16 -60 2 -31 17 -35 23
-32 54 2 26 10 39 28 48 32 16 27 17 61 -8z m-463 -5 c34 -23 29 -67 -9 -95
-29 -21 -34 -21 -58 -8 -38 21 -41 70 -5 98 32 25 43 26 72 5z m618 -16 c28
-25 21 -75 -13 -91 -33 -15 -77 18 -81 61 -3 25 2 33 25 45 30 16 36 15 69
-15z m514 -39 c0 -35 -17 -47 -35 -23 -16 21 -19 52 -8 80 6 15 8 15 25 -6 10
-12 18 -35 18 -51z m-1269 32 c0 -3 2 -15 4 -25 8 -43 -37 -83 -81 -72 -35 9
-34 68 2 101 22 20 29 22 50 13 13 -6 24 -14 25 -17z m880 -2 c39 -27 41 -80
5 -97 -52 -23 -105 59 -65 99 24 24 25 24 60 -2z m-1380 -82 c-8 -8 -11 1 -11
29 0 53 14 67 18 19 2 -21 -1 -42 -7 -48z m352 69 c35 -36 -9 -114 -57 -102
-21 5 -26 12 -26 38 0 33 33 78 56 78 7 0 19 -6 27 -14z m1159 -13 c8 -10 18
-33 21 -50 5 -26 2 -35 -14 -44 -16 -8 -25 -7 -42 8 -12 10 -23 18 -25 19 -1
1 -4 15 -7 33 -5 46 37 68 67 34z m308 -36 c0 -31 -3 -38 -10 -27 -13 20 -13
83 0 75 6 -3 10 -25 10 -48z m-198 6 c24 -22 25 -93 1 -93 -41 0 -65 50 -43
91 13 23 18 24 42 2z m108 -84 c0 -46 -13 -57 -34 -27 -16 23 -22 79 -9 91 15
15 43 -27 43 -64z m-862 43 c33 -25 27 -77 -10 -100 -26 -15 -30 -15 -55 0
-41 24 -44 77 -6 100 36 21 43 21 71 0z m153 1 c24 -14 29 -24 29 -54 0 -31
-4 -38 -31 -49 -44 -19 -83 5 -87 52 -2 27 2 36 25 50 34 21 29 21 64 1z
m-303 -9 c35 -24 30 -68 -12 -93 -29 -18 -38 -20 -60 -10 -21 10 -26 19 -26
49 0 58 51 87 98 54z m451 1 c51 -26 56 -77 11 -100 -28 -15 -33 -14 -60 2
-25 14 -30 24 -30 54 0 32 15 51 48 58 2 1 16 -6 31 -14z m-1119 -30 c0 -34
-18 -77 -30 -70 -13 8 -13 61 1 86 13 24 29 16 29 -16z m508 19 c33 -23 29
-67 -9 -95 -25 -18 -35 -20 -55 -10 -32 14 -33 65 -2 98 25 27 36 28 66 7z
m771 -18 c50 -53 -2 -121 -62 -81 -20 13 -27 26 -27 51 0 54 50 72 89 30z
m-918 4 c31 -17 26 -74 -9 -99 -26 -18 -31 -19 -50 -5 -28 19 -28 54 -1 88 23
29 31 31 60 16z m1385 -25 c6 -35 -1 -73 -13 -62 -3 4 -9 27 -13 52 -8 55 15
65 26 10z m-348 9 c16 -11 22 -25 22 -54 0 -47 -25 -60 -65 -34 -19 13 -25 25
-25 54 0 50 27 63 68 34z m-1164 0 c24 -9 21 -76 -5 -100 -45 -41 -81 36 -38
82 26 27 22 26 43 18z m1285 -28 c28 -30 26 -89 -2 -94 -43 -8 -78 73 -45 106
17 17 21 15 47 -12z m-1592 -33 c-3 -10 -5 -2 -5 17 0 19 2 27 5 18 2 -10 2
-26 0 -35z m1695 0 c20 -18 25 -78 7 -88 -18 -12 -49 26 -49 60 0 47 12 55 42
28z m165 -15 c-3 -7 -5 -2 -5 12 0 14 2 19 5 13 2 -7 2 -19 0 -25z m-1751 -13
c3 -14 1 -39 -6 -55 -24 -58 -50 -23 -31 41 14 45 28 50 37 14z m702 -1 c15
-10 22 -25 22 -49 0 -28 -6 -37 -30 -50 -23 -12 -34 -13 -54 -3 -45 20 -47 85
-4 106 32 15 40 14 66 -4z m160 0 c27 -19 30 -71 5 -90 -41 -31 -103 -3 -103
46 0 30 30 60 60 60 9 0 26 -7 38 -16z m149 -2 c13 -9 25 -31 29 -49 5 -28 3
-33 -25 -48 -29 -15 -34 -15 -62 2 -25 15 -29 23 -27 53 2 25 10 38 28 47 31
16 31 16 57 -5z m657 2 c3 -9 6 -34 6 -56 0 -33 -2 -38 -14 -29 -15 12 -26 68
-19 89 7 17 20 15 27 -4z m-1124 -4 c27 -15 34 -58 13 -82 -31 -35 -52 -41
-79 -23 -33 22 -33 67 2 94 30 24 38 25 64 11z m614 -11 c36 -29 37 -81 0 -98
-22 -9 -30 -8 -55 10 -36 26 -40 69 -6 92 29 21 30 21 61 -4z m-749 -49 c0
-44 -42 -78 -74 -61 -32 18 -29 74 7 100 23 17 30 18 47 7 13 -9 20 -24 20
-46z m883 34 c30 -21 32 -90 2 -99 -23 -7 -69 18 -71 38 -3 30 4 53 19 65 20
15 23 15 50 -4z m-1377 -67 c-8 -8 -11 -1 -11 24 0 46 14 60 18 19 2 -18 -1
-37 -7 -43z m359 19 c0 -45 -39 -83 -69 -67 -30 16 -28 65 4 97 33 33 65 19
65 -30z m1149 20 c28 -30 26 -89 -2 -94 -43 -8 -78 73 -45 106 17 17 21 15 47
-12z m311 -29 c0 -31 -3 -38 -10 -27 -13 20 -13 83 0 75 6 -3 10 -25 10 -48z
m-196 1 c20 -28 21 -84 2 -91 -33 -13 -70 70 -44 100 15 18 25 16 42 -9z m100
-49 c5 -14 6 -39 2 -54 -7 -26 -8 -27 -26 -10 -27 24 -29 98 -3 93 10 -2 22
-15 27 -29z m-864 6 c25 -13 30 -22 30 -50 0 -28 -5 -37 -30 -50 -27 -14 -33
-14 -60 0 -25 13 -30 22 -30 50 0 27 6 37 28 49 34 19 28 19 62 1z m161 -6
c39 -27 40 -70 2 -94 -25 -17 -28 -17 -60 0 -44 24 -47 72 -5 97 34 22 29 22
63 -3z m-985 -75 c-3 -8 -10 -14 -16 -14 -14 0 -13 57 3 83 11 21 12 20 15
-17 2 -21 1 -44 -2 -52z m675 76 c13 -8 19 -21 19 -45 0 -29 -6 -39 -32 -55
-28 -17 -35 -18 -53 -6 -30 20 -33 80 -3 100 26 19 42 20 69 6z m465 -8 c12
-9 24 -31 26 -49 4 -27 0 -33 -28 -47 -30 -14 -34 -14 -58 5 -34 27 -36 81 -3
97 31 15 39 14 63 -6z m-625 -2 c29 -16 26 -73 -7 -99 -21 -16 -30 -18 -50 -9
-33 15 -35 79 -2 102 26 19 33 19 59 6z m791 -58 c3 -27 0 -37 -20 -50 -22
-14 -26 -14 -50 1 -38 22 -44 88 -10 104 35 16 75 -11 80 -55z m453 22 c9 -51
-10 -67 -24 -19 -10 37 -5 69 9 60 4 -3 11 -21 15 -41z m-1367 -20 c2 -21 -4
-36 -22 -53 -22 -21 -29 -23 -51 -13 -35 16 -34 63 2 96 24 23 30 24 48 12 11
-7 21 -26 23 -42z m1021 22 c31 -33 26 -90 -7 -94 -13 -2 -32 4 -43 14 -25 22
-26 79 -1 93 24 14 26 14 51 -13z m-1149 -40 c0 -42 -33 -75 -58 -60 -25 16
-26 56 -2 87 29 36 60 22 60 -27z m-323 -3 c-3 -10 -5 -2 -5 17 0 19 2 27 5
18 2 -10 2 -26 0 -35z m1593 22 c6 -8 13 -30 15 -50 5 -48 -23 -64 -54 -31
-20 21 -29 75 -14 89 11 12 40 8 53 -8z m267 -42 c-3 -10 -5 -4 -5 12 0 17 2
24 5 18 2 -7 2 -21 0 -30z m-163 5 c21 -29 21 -77 1 -85 -21 -8 -44 25 -45 63
0 49 19 58 44 22z m-1594 -42 c0 -41 -19 -74 -33 -59 -11 10 -8 62 3 84 18 32
30 22 30 -25z m1680 -35 c0 -36 -2 -41 -14 -32 -18 15 -27 72 -13 89 15 19 27
-4 27 -57z m-972 43 c42 -29 21 -103 -30 -104 -9 0 -29 5 -43 12 -32 14 -34
59 -3 88 26 24 46 25 76 4z m160 0 c15 -10 22 -25 22 -48 0 -28 -5 -36 -31
-47 -46 -18 -83 4 -87 52 -2 29 1 38 20 47 32 15 50 14 76 -4z m156 -5 c65
-51 -3 -131 -72 -83 -31 21 -31 77 1 92 32 15 41 14 71 -9z m-473 1 c13 -8 19
-21 19 -45 0 -45 -38 -73 -78 -59 -38 13 -44 74 -10 98 26 19 42 20 69 6z
m617 -9 c27 -23 31 -85 6 -95 -43 -17 -77 5 -86 57 -4 20 0 32 16 42 26 19 36
18 64 -4z m-1239 -24 c0 -12 -4 -31 -9 -42 -6 -15 -9 -8 -9 28 -1 30 3 46 9
42 6 -3 10 -16 9 -28z m474 19 c9 -7 17 -26 17 -43 0 -38 -39 -68 -76 -59 -20
5 -24 13 -24 45 0 29 6 43 23 54 27 20 37 20 60 3z m899 -13 c43 -39 5 -126
-40 -91 -27 21 -32 31 -32 65 0 43 38 57 72 26z m-1041 -3 c30 -17 26 -73 -8
-95 -52 -34 -87 33 -42 81 26 28 24 27 50 14z m1479 -33 c0 -24 -3 -28 -10
-17 -13 20 -13 63 0 55 6 -3 10 -21 10 -38z m-308 16 c24 -22 24 -79 -1 -92
-14 -8 -23 -5 -40 13 -48 51 -10 126 41 79z m118 -32 c15 -28 12 -78 -4 -84
-27 -10 -68 65 -51 92 10 18 44 12 55 -8z m90 -30 c13 -26 13 -68 -2 -77 -15
-10 -38 24 -38 56 0 43 22 54 40 21z m-1682 -48 c-4 -56 -28 -73 -28 -20 0 41
8 67 22 67 5 0 8 -21 6 -47z m823 30 c23 -14 29 -25 29 -50 0 -26 -6 -36 -30
-48 -27 -14 -33 -14 -60 0 -41 21 -43 72 -2 97 33 21 28 21 63 1z m187 -50 c3
-27 -2 -34 -28 -48 -28 -15 -33 -14 -60 2 -41 24 -42 71 -2 95 25 16 29 16 57
-1 22 -12 31 -26 33 -48z m-343 45 c19 -9 25 -19 25 -45 0 -27 -6 -37 -31 -52
-29 -18 -34 -18 -55 -4 -32 21 -33 75 -2 97 27 19 30 19 63 4z m469 -9 c60
-47 5 -127 -58 -85 -34 21 -35 68 -4 90 29 20 30 20 62 -5z m618 -29 c2 -25 0
-39 -7 -37 -5 2 -11 23 -13 46 -4 55 14 46 20 -9z m-1241 30 c13 -7 19 -21 19
-45 0 -44 -42 -78 -77 -62 -32 14 -32 79 -1 101 26 19 33 19 59 6z m769 -15
c54 -51 7 -125 -52 -83 -35 25 -38 70 -6 92 29 20 27 21 58 -9z m-899 -30 c2
-36 -2 -48 -24 -65 -21 -18 -46 -16 -59 4 -29 42 23 118 63 93 10 -6 20 -21
20 -32z m1028 11 c45 -48 10 -115 -42 -81 -33 21 -38 78 -9 94 24 14 26 14 51
-13z m-1472 -23 c-3 -10 -5 -4 -5 12 0 17 2 24 5 18 2 -7 2 -21 0 -30z m313
-17 c0 -48 -30 -77 -56 -55 -19 15 -11 77 12 94 29 20 44 7 44 -39z m1298 -34
c-2 -14 -11 -30 -20 -35 -13 -9 -21 -6 -37 14 -25 30 -27 67 -3 85 15 12 20
10 40 -12 14 -16 22 -36 20 -52z m92 14 c9 -24 6 -63 -5 -74 -11 -11 -45 32
-45 58 0 46 34 57 50 16z m-1600 -27 c0 -36 -17 -72 -31 -64 -12 8 -12 61 2
86 14 26 29 15 29 -22z m1674 5 c3 -9 6 -29 6 -46 0 -26 -2 -29 -15 -18 -8 7
-15 28 -15 46 0 35 13 46 24 18z m-964 -14 c29 -29 25 -65 -10 -90 -25 -18
-33 -19 -52 -9 -30 16 -38 28 -38 61 0 20 8 32 28 42 36 20 48 20 72 -4z m155
4 c18 -12 25 -25 25 -49 0 -27 -5 -35 -31 -46 -27 -10 -36 -10 -58 2 -36 20
-41 71 -9 93 28 20 42 20 73 0z m145 -1 c20 -11 29 -26 32 -49 3 -27 -1 -35
-24 -49 -27 -15 -30 -15 -58 5 -37 27 -41 71 -8 94 27 19 24 20 58 -1z m-459
-3 c13 -8 19 -21 19 -45 0 -45 -38 -73 -78 -59 -38 13 -44 74 -10 98 26 19 42
20 69 6z m616 -12 c29 -27 31 -73 4 -88 -28 -15 -45 -12 -68 10 -25 23 -23 67
4 88 23 17 33 15 60 -10z m-1247 -25 c0 -23 -4 -33 -9 -27 -9 8 -4 64 5 64 2
0 4 -17 4 -37z m482 20 c25 -22 23 -55 -6 -82 -18 -17 -32 -22 -50 -17 -22 5
-26 12 -26 46 0 29 6 43 22 54 28 20 37 20 60 -1z m900 -10 c26 -23 24 -79 -3
-94 -17 -9 -25 -7 -45 12 -54 51 -7 132 48 82z m438 2 c0 -8 -2 -15 -4 -15 -2
0 -6 7 -10 15 -3 8 -1 15 4 15 6 0 10 -7 10 -15z m-1479 -5 c27 -15 25 -61 -5
-89 -20 -19 -28 -21 -45 -12 -25 14 -28 57 -5 89 17 25 27 27 55 12z m1189
-66 c0 -24 -5 -34 -21 -39 -47 -15 -82 71 -41 101 25 18 62 -18 62 -62z m110
-13 c0 -41 -13 -55 -39 -42 -16 9 -21 21 -21 51 0 21 5 40 13 43 19 7 47 -24
47 -52z m80 -33 c0 -29 -3 -36 -15 -32 -15 6 -22 74 -8 87 11 12 23 -16 23
-55z m-1682 3 c1 -24 -4 -44 -13 -51 -13 -11 -15 -7 -15 23 0 69 26 95 28 28z
m834 2 c9 -8 15 -22 13 -31 -2 -9 -4 -24 -4 -33 -1 -9 -14 -22 -30 -29 -67
-27 -116 64 -54 102 28 17 47 14 75 -9z m-164 1 c34 -23 27 -72 -14 -96 -27
-16 -32 -16 -52 -2 -30 21 -30 77 0 98 28 20 38 20 66 0z m320 0 c32 -22 29
-67 -5 -89 -25 -17 -28 -17 -60 0 -26 14 -33 24 -33 48 0 51 53 73 98 41z
m143 -1 c53 -31 34 -103 -27 -103 -50 0 -73 76 -32 104 27 19 24 20 59 -1z
m619 -20 c0 -20 -3 -33 -7 -30 -9 10 -10 67 0 67 4 0 7 -16 7 -37z m-1239 17
c13 -8 19 -21 19 -45 0 -42 -35 -71 -75 -61 -21 5 -25 12 -25 46 0 29 6 43 22
54 26 19 33 19 59 6z m766 -12 c33 -31 32 -85 -2 -94 -61 -15 -103 65 -53 100
28 20 27 20 55 -6z m-915 0 c25 -21 28 -55 6 -83 -21 -27 -47 -32 -66 -13 -18
18 -14 52 9 82 23 30 29 31 51 14z m1041 -12 c26 -20 31 -76 9 -92 -23 -18
-25 -17 -50 6 -27 25 -29 75 -4 89 22 13 23 13 45 -3z m-1169 -2 c19 -7 22
-74 4 -92 -29 -29 -74 12 -48 43 6 7 7 15 3 18 -3 4 0 13 7 22 14 17 13 17 34
9z m1295 -27 c19 -35 11 -82 -14 -82 -30 0 -52 47 -37 79 14 32 35 33 51 3z
m94 -14 c-15 -6 -17 -33 -3 -33 6 0 10 -5 10 -11 0 -5 -4 -8 -9 -5 -5 4 -12 0
-14 -6 -3 -7 -6 4 -6 25 -1 29 3 37 17 36 10 0 12 -3 5 -6z m-1587 -42 c6 -33
-11 -75 -27 -66 -12 8 -12 62 2 87 13 24 19 19 25 -21z m1665 -13 c-3 -21 -6
-26 -9 -15 -3 17 3 47 11 47 2 0 1 -15 -2 -32z m-1744 -50 c-2 -13 -4 -3 -4
22 0 25 2 35 4 23 2 -13 2 -33 0 -45z m778 50 c20 -9 25 -18 25 -49 0 -30 -6
-42 -25 -55 -23 -15 -27 -15 -49 -1 -18 13 -44 75 -34 82 2 1 14 9 28 18 29
20 23 20 55 5z m168 -9 c44 -34 26 -98 -28 -99 -58 -1 -88 72 -42 103 30 21
40 21 70 -4z m177 -46 c0 -63 -70 -79 -100 -23 -18 33 -11 59 17 74 25 13 31
12 55 -2 22 -13 28 -24 28 -49z m-495 45 c34 -15 35 -70 3 -92 -43 -30 -77
-16 -85 34 -4 27 0 37 19 52 28 21 30 21 63 6z m616 -9 c60 -43 18 -123 -46
-89 -41 22 -31 106 13 110 2 0 17 -9 33 -21z m516 -1 c-3 -8 -6 -5 -6 6 -1 11
2 17 5 13 3 -3 4 -12 1 -19z m-1273 -7 c34 -37 -9 -109 -59 -97 -21 5 -25 12
-25 43 0 63 48 94 84 54z m908 -16 c4 -5 8 -25 8 -42 0 -27 -5 -34 -26 -39
-33 -8 -54 12 -61 58 -3 29 0 36 19 45 23 10 41 4 60 -22z m283 16 c-3 -6 -11
-8 -17 -5 -6 4 -5 9 3 15 16 10 23 4 14 -10z m-1324 -34 c9 -35 5 -49 -22 -65
-30 -19 -59 -6 -59 26 0 66 66 97 81 39z m1179 -33 c0 -12 -7 -30 -16 -38 -23
-23 -52 -4 -60 40 -5 28 -3 38 12 49 17 12 22 11 42 -7 12 -12 22 -32 22 -44z
m80 27 c0 -5 3 -18 7 -28 6 -15 4 -16 -9 -6 -8 7 -18 10 -21 6 -4 -3 -7 0 -7
9 0 8 3 18 7 21 9 10 23 9 23 -2z m-1575 -98 c-3 -13 -10 -23 -15 -23 -11 0
-13 33 -3 69 l6 25 9 -25 c5 -13 6 -34 3 -46z m664 23 c23 -13 27 -19 23 -50
-5 -46 -40 -71 -77 -54 -34 15 -36 78 -2 101 28 20 23 20 56 3z m162 4 c14 -8
19 -21 19 -51 0 -33 -4 -41 -26 -51 -60 -28 -116 58 -62 96 26 19 42 20 69 6z
m158 -5 c39 -20 38 -72 -2 -95 -24 -13 -29 -13 -54 2 -38 23 -45 79 -11 96 31
14 35 14 67 -3z m152 -6 c40 -28 40 -73 0 -93 -27 -14 -31 -14 -55 5 -33 26
-35 70 -3 92 28 20 24 20 58 -4z m-626 -1 c57 -26 12 -119 -51 -104 -20 5 -24
13 -24 46 0 29 6 43 22 54 27 19 21 19 53 4z m795 -60 c0 -32 -4 -39 -25 -44
-61 -15 -103 65 -53 100 19 14 24 14 50 -2 23 -13 28 -23 28 -54z m-939 52
c36 -20 15 -110 -27 -110 -20 0 -44 29 -44 53 0 11 10 31 22 44 25 27 23 26
49 13z m1042 -14 c26 -20 29 -74 4 -91 -19 -13 -23 -13 -44 7 -28 26 -30 73
-5 87 22 13 23 13 45 -3z m-1169 -2 c25 -10 22 -80 -4 -94 -11 -6 -25 -8 -30
-5 -14 9 -12 79 2 93 14 14 12 14 32 6z m1288 -21 c10 -9 18 -21 18 -26 0 -6
-6 -2 -14 8 -13 18 -14 18 -26 -4 -10 -19 -9 -22 1 -16 9 6 11 3 6 -8 -4 -10
0 -20 11 -26 15 -9 15 -10 -5 -11 -27 0 -48 52 -32 81 12 23 17 24 41 2z
m-1484 -59 c2 -16 -4 -38 -12 -49 -14 -19 -15 -19 -21 -2 -10 25 4 89 18 84 7
-2 13 -17 15 -33z m-81 -56 c-2 -13 -4 -3 -4 22 0 25 2 35 4 23 2 -13 2 -33 0
-45z m963 -13 c0 -26 -6 -39 -24 -50 -22 -15 -27 -15 -55 0 -26 13 -31 22 -31
50 0 27 6 37 27 49 24 12 31 12 55 0 22 -12 28 -21 28 -49z m-337 41 c27 -21
23 -80 -9 -101 -23 -15 -27 -15 -50 0 -33 21 -34 76 -1 98 27 20 37 20 60 3z
m158 4 c14 -8 19 -21 19 -49 0 -33 -4 -40 -29 -51 -62 -25 -113 56 -59 94 26
19 42 20 69 6z m317 -6 c15 -10 22 -25 22 -48 0 -28 -5 -36 -29 -46 -24 -10
-33 -9 -55 5 -35 23 -37 81 -3 95 32 13 40 12 65 -6z m162 -36 c0 -9 2 -23 6
-31 3 -8 -5 -21 -20 -31 -24 -15 -28 -15 -51 0 -43 28 -45 82 -2 101 26 12 66
-11 67 -39z m-789 32 c29 -16 26 -73 -7 -99 -21 -17 -29 -18 -45 -8 -24 15
-26 73 -2 99 19 21 27 22 54 8z m907 -16 c29 -20 27 -70 -4 -90 -18 -12 -23
-11 -42 6 -27 25 -29 75 -4 89 23 14 24 14 50 -5z m-1044 0 c11 -4 16 -19 16
-43 0 -30 -5 -40 -25 -51 -20 -11 -27 -11 -40 0 -20 16 -19 59 2 82 18 20 23
21 47 12z m1177 -46 c-9 -9 -12 -9 -7 -1 3 6 1 15 -5 19 -9 5 -10 0 -6 -17 4
-13 7 -28 7 -34 0 -5 5 -3 10 5 8 13 10 13 10 -2 0 -25 -41 -34 -57 -12 -35
47 2 113 42 74 16 -17 17 -22 6 -32z m-1472 -59 c1 -8 -5 -23 -12 -34 -13 -16
-14 -15 -15 16 -1 19 1 43 5 54 l6 20 8 -20 c4 -11 8 -27 8 -36z m818 -7 c33
-26 34 -70 2 -94 -26 -20 -28 -20 -58 -2 -42 25 -44 76 -3 98 34 19 33 19 59
-2z m166 -1 c21 -11 27 -21 27 -47 0 -27 -6 -37 -29 -49 -27 -13 -32 -13 -60
3 -42 23 -43 70 -3 94 15 10 29 16 32 15 3 -1 17 -9 33 -16z m-475 -7 c33 -23
29 -67 -8 -94 -23 -17 -34 -19 -50 -10 -29 16 -28 82 3 103 28 20 28 20 55 1z
m154 4 c24 -19 31 -64 13 -82 -41 -41 -90 -26 -97 30 -3 27 0 39 16 50 25 17
47 18 68 2z m476 -4 c15 -10 22 -25 22 -48 0 -28 -5 -36 -29 -46 -24 -10 -33
-9 -55 5 -35 23 -37 77 -3 93 31 15 39 14 65 -4z m-758 -48 c0 -51 -48 -84
-78 -54 -20 20 -14 57 13 84 21 21 27 23 45 12 13 -8 20 -24 20 -42z m898 38
c29 -20 30 -74 2 -92 -17 -11 -26 -10 -50 5 -23 13 -30 24 -30 50 0 48 37 66
78 37z m125 -11 c25 -29 31 -68 12 -87 -20 -20 -25 -20 -52 3 -28 24 -31 75
-5 90 23 14 27 14 45 -6z m-1155 -22 c9 -57 -29 -101 -55 -65 -18 24 -16 54 4
76 22 24 47 19 51 -11z m1250 -13 c4 -27 9 -61 11 -67 0 -2 9 3 19 10 15 13
16 12 3 -4 -13 -17 -15 -17 -37 4 -12 12 -21 27 -18 35 12 39 14 44 17 44 1 0
4 -10 5 -22z m40 -13 c-3 -3 -9 2 -12 12 -6 14 -5 15 5 6 7 -7 10 -15 7 -18z
m-1498 -28 c0 -18 -7 -40 -14 -50 -12 -16 -14 -16 -20 -1 -9 23 -7 53 5 75 14
27 29 14 29 -24z m-83 -49 c-2 -13 -4 -3 -4 22 0 25 2 35 4 23 2 -13 2 -33 0
-45z m651 -30 c-2 -20 -13 -38 -30 -51 -24 -18 -31 -19 -53 -7 -37 20 -36 79
2 102 24 15 30 15 56 2 23 -13 28 -21 25 -46z m135 50 c9 -7 20 -27 23 -45 6
-28 3 -34 -27 -52 -31 -19 -34 -19 -61 -3 -21 12 -28 24 -28 48 0 49 55 80 93
52z m162 -4 c18 -12 25 -25 25 -49 0 -27 -5 -35 -31 -46 -27 -10 -36 -10 -58
2 -36 20 -41 71 -9 93 28 20 42 20 73 0z m150 0 c36 -24 35 -78 -2 -97 -62
-33 -118 57 -61 97 28 20 33 20 63 0z m-617 -10 c34 -24 30 -70 -10 -94 -44
-26 -68 -13 -68 40 0 29 6 43 22 54 12 9 25 16 28 16 3 0 16 -7 28 -16z m770
0 c15 -10 22 -25 22 -48 0 -28 -5 -36 -29 -46 -25 -10 -33 -9 -55 7 -33 23
-34 66 -4 87 12 9 27 16 33 16 6 0 21 -7 33 -16z m-897 -27 c0 -7 2 -20 4 -31
2 -10 -8 -29 -22 -42 -25 -23 -27 -23 -45 -8 -24 23 -23 63 3 90 17 18 26 21
40 13 11 -5 19 -15 20 -22z m1031 16 c25 -22 24 -75 -2 -91 -31 -19 -70 10
-70 54 0 48 38 68 72 37z m112 -16 c-4 -7 -4 -9 1 -5 15 14 34 -13 29 -40 -8
-45 -26 -56 -52 -32 -26 25 -29 68 -5 86 20 14 37 9 27 -9z m116 -24 c0 -15 2
-16 10 -3 8 12 10 11 10 -7 0 -17 -6 -23 -21 -23 -15 0 -19 -5 -15 -16 3 -8 2
-12 -4 -9 -14 9 -12 45 3 46 9 0 9 2 -1 6 -6 2 -10 9 -6 14 9 15 24 10 24 -8z
m-1570 -47 c0 -18 -7 -39 -15 -46 -13 -11 -15 -7 -15 27 0 22 3 43 7 46 14 15
23 5 23 -27z m821 -27 c43 -30 40 -74 -5 -96 -32 -15 -37 -15 -60 1 -37 24
-36 75 2 98 34 22 29 22 63 -3z m184 -49 c0 -23 -7 -36 -28 -48 -25 -15 -30
-15 -55 -2 -39 22 -42 70 -6 99 27 21 27 21 58 1 24 -15 31 -26 31 -50z m-500
48 c20 -9 25 -18 25 -47 0 -30 -5 -40 -30 -54 -43 -26 -70 -9 -70 42 0 29 6
43 23 54 27 20 22 19 52 5z m161 -2 c13 -9 19 -24 18 -43 -2 -42 -2 -41 -32
-57 -25 -13 -30 -12 -49 2 -12 10 -25 30 -29 46 -6 23 -2 32 17 47 29 22 48
24 75 5z m469 -2 c37 -24 35 -78 -2 -98 -25 -13 -31 -12 -55 2 -37 22 -40 83
-5 100 30 15 34 14 62 -4z m-772 -8 c27 -21 22 -71 -10 -95 -24 -20 -27 -20
-45 -5 -24 23 -23 63 4 91 25 27 27 27 51 9z m912 -2 c34 -22 35 -75 1 -93
-20 -11 -28 -10 -50 4 -43 28 -31 103 17 105 4 0 19 -7 32 -16z m132 -16 c28
-26 30 -59 4 -82 -18 -17 -21 -17 -45 -1 -32 21 -37 78 -8 94 23 14 22 14 49
-11z m-1159 -29 c2 -24 -3 -42 -14 -53 -21 -22 -37 -16 -48 17 -14 38 7 79 37
75 17 -2 23 -10 25 -39z m1294 -20 c3 -19 -1 -34 -13 -45 -16 -14 -19 -13 -38
7 -25 27 -27 56 -4 81 15 17 18 17 34 2 9 -8 19 -28 21 -45z m76 4 c-6 -7 -14
-13 -19 -13 -13 0 -11 24 3 38 16 16 31 -7 16 -25z m-1583 -13 c4 -19 1 -37
-8 -50 -17 -24 -27 -16 -27 21 0 59 24 79 35 29z m-78 -52 c-2 -13 -4 -3 -4
22 0 25 2 35 4 23 2 -13 2 -33 0 -45z m1670 11 c2 -17 -1 -18 -13 -9 -17 15
-19 41 -1 34 7 -2 13 -14 14 -25z m70 -1 c-3 -7 -5 -2 -5 12 0 14 2 19 5 13 2
-7 2 -19 0 -25z m-1087 -59 c0 -22 -8 -34 -31 -48 -29 -18 -34 -18 -55 -4 -35
22 -33 75 3 101 27 20 28 20 55 0 20 -14 28 -28 28 -49z m134 50 c40 -31 36
-75 -8 -96 -32 -15 -37 -15 -60 1 -38 24 -37 80 2 100 35 20 35 20 66 -5z
m157 4 c39 -23 41 -73 3 -98 -25 -16 -29 -16 -60 -1 -29 13 -34 21 -34 50 0
24 7 38 23 49 28 20 33 20 68 0z m150 0 c24 -14 29 -24 29 -54 0 -31 -4 -38
-30 -49 -25 -10 -34 -10 -55 4 -34 22 -35 77 -2 99 28 20 24 20 58 0z m-619
-7 c10 -7 21 -27 24 -43 5 -26 1 -34 -25 -52 -24 -18 -35 -20 -51 -11 -29 16
-28 83 2 104 27 19 28 19 50 2z m772 -1 c19 -13 24 -24 22 -53 -1 -30 -6 -38
-28 -46 -61 -22 -109 61 -56 98 28 20 33 20 62 1z m-894 -55 c0 -41 -14 -60
-46 -60 -39 0 -47 67 -13 99 30 28 59 9 59 -39z m1028 44 c30 -21 31 -79 1
-94 -16 -9 -26 -8 -45 5 -30 19 -34 78 -6 94 23 14 24 14 50 -5z m124 -6 c23
-19 28 -75 8 -93 -38 -35 -85 56 -48 93 15 15 20 15 40 0z m116 -20 c14 -14
16 -67 2 -88 -21 -34 -58 44 -38 83 10 20 20 21 36 5z m84 -43 c-3 -22 0 -35
7 -35 7 0 9 -5 6 -10 -11 -18 -35 10 -35 40 0 26 7 40 20 40 3 0 4 -16 2 -35z
m-1662 -10 c0 -30 -10 -55 -21 -55 -10 0 -12 73 -3 83 12 11 24 -3 24 -28z
m1737 -27 c-2 -13 -4 -5 -4 17 -1 22 1 32 4 23 2 -10 2 -28 0 -40z m-1082 -10
c14 -6 25 -16 25 -22 0 -6 3 -21 6 -32 4 -16 -2 -27 -25 -43 -28 -20 -33 -21
-58 -7 -40 20 -43 67 -7 95 31 25 27 24 59 9z m165 -3 c24 -12 30 -22 30 -48
0 -26 -6 -36 -30 -50 -27 -16 -32 -17 -60 -2 -24 13 -30 22 -30 50 0 24 7 39
22 49 28 20 32 20 68 1z m165 -1 c37 -24 35 -74 -5 -97 -27 -16 -32 -17 -60
-2 -24 13 -30 22 -30 50 0 24 7 39 22 49 28 20 43 20 73 0z m145 1 c40 -21 43
-76 6 -100 -22 -15 -27 -15 -55 0 -25 13 -31 22 -31 50 0 24 7 39 22 49 27 19
23 19 58 1z m-767 -9 c28 -21 23 -80 -9 -101 -24 -16 -27 -16 -45 1 -25 23
-24 62 3 91 25 27 27 27 51 9z m151 1 c27 -20 18 -74 -17 -95 -37 -23 -61 -7
-65 42 -5 55 40 84 82 53z m764 -3 c18 -12 22 -24 20 -52 -6 -74 -98 -63 -98
11 0 28 22 56 45 57 6 0 21 -7 33 -16z m132 -14 c47 -47 7 -120 -46 -85 -41
27 -28 103 19 105 4 0 16 -9 27 -20z m-1162 -35 c2 -32 -2 -43 -18 -53 -27
-17 -50 -1 -50 35 0 38 18 65 43 61 18 -2 23 -11 25 -43z m1295 -9 c4 -22 -1
-37 -14 -50 -18 -19 -19 -19 -38 -2 -23 21 -24 82 -2 96 21 13 49 -10 54 -44z
m85 22 c15 -15 16 -74 2 -83 -18 -11 -40 16 -40 50 0 44 14 57 38 33z m-1594
-14 c10 -27 7 -61 -7 -73 -18 -14 -27 -4 -27 30 0 32 9 59 20 59 4 0 11 -7 14
-16z m1684 -28 c3 -20 0 -26 -8 -21 -9 6 -9 2 0 -15 10 -18 9 -21 -2 -18 -7 3
-14 23 -16 47 -2 32 0 42 10 39 7 -3 14 -17 16 -32z m-1758 -18 c0 -28 -3 -39
-10 -32 -9 9 -3 74 6 74 2 0 4 -19 4 -42z m1807 -20 c-3 -8 -6 -5 -6 6 -1 11
2 17 5 13 3 -3 4 -12 1 -19z m-839 -57 c5 -52 -37 -75 -93 -49 -20 9 -25 18
-25 47 0 29 6 40 28 53 25 16 29 16 57 -1 22 -12 31 -26 33 -50z m-478 28 c3
-5 6 -22 5 -39 0 -23 -7 -36 -28 -48 -35 -21 -59 -8 -68 38 -6 27 -3 37 18 56
21 20 29 22 47 12 11 -6 23 -15 26 -19z m140 11 c31 -31 22 -78 -21 -100 -54
-30 -98 68 -47 104 30 21 44 20 68 -4z m155 6 c36 -26 29 -78 -13 -100 -62
-33 -117 58 -60 98 28 20 48 20 73 2z m313 -2 c32 -22 30 -76 -3 -98 -24 -16
-27 -16 -55 1 -54 31 -36 108 25 112 6 1 21 -6 33 -15z m143 -1 c39 -23 41
-75 4 -99 -22 -14 -26 -14 -55 2 -38 23 -42 73 -7 97 28 20 24 20 58 0z m143
-12 c21 -24 18 -80 -6 -95 -12 -7 -24 -6 -42 4 -21 11 -26 21 -26 51 0 55 41
77 74 40z m-1036 -37 c4 -49 -20 -77 -55 -63 -18 7 -23 16 -23 47 0 45 16 64
50 60 21 -3 25 -9 28 -44z m1171 15 c8 -15 11 -36 8 -51 -15 -57 -77 -38 -77
22 0 62 41 79 69 29z m117 -52 c-7 -44 -22 -54 -46 -32 -24 22 -26 68 -3 90
16 16 18 16 35 -5 12 -15 17 -33 14 -53z m79 42 c9 -14 11 -77 2 -85 -13 -13
-37 19 -37 51 0 42 19 61 35 34z m-1677 -56 c-5 -44 -28 -40 -28 5 0 21 3 42
7 46 11 11 25 -22 21 -51z m1750 3 c2 -20 -2 -36 -8 -36 -5 0 -10 18 -10 41 0
49 15 45 18 -5z m-1821 -28 c-3 -8 -6 -5 -6 6 -1 11 2 17 5 13 3 -3 4 -12 1
-19z m737 -9 c38 -30 33 -76 -10 -101 -31 -18 -31 -18 -57 6 -35 33 -35 68 1
95 34 25 34 25 66 0z m157 4 c25 -15 29 -23 27 -53 -2 -25 -10 -38 -30 -50
-25 -13 -31 -13 -55 0 -21 12 -29 24 -31 52 -3 32 1 39 25 52 35 19 30 19 64
-1z m163 -4 c36 -29 33 -77 -6 -99 -25 -13 -31 -13 -55 0 -21 12 -29 24 -31
52 -3 32 1 39 25 52 36 20 36 20 67 -5z m-604 -49 c0 -50 -30 -78 -65 -62 -32
15 -34 66 -4 98 18 19 25 21 45 12 19 -9 24 -19 24 -48z m133 46 c10 -8 17
-27 17 -47 0 -28 -6 -38 -30 -52 -42 -25 -70 -7 -70 47 0 40 20 65 50 65 8 0
23 -6 33 -13z m629 -3 c10 -9 18 -30 18 -49 0 -26 -6 -36 -27 -48 -25 -12 -31
-12 -55 2 -35 21 -43 77 -14 98 27 19 55 18 78 -3z m133 1 c36 -24 36 -86 0
-102 -40 -18 -75 9 -75 58 0 33 14 51 48 59 1 1 14 -6 27 -15z m-1037 -6 c17
-17 15 -83 -4 -99 -39 -32 -74 52 -38 92 20 22 26 23 42 7z m1174 -5 c26 -23
24 -79 -3 -94 -50 -26 -102 49 -63 92 21 23 42 24 66 2z m120 -10 c24 -21 23
-65 -2 -88 -19 -17 -21 -17 -40 0 -32 29 -22 105 14 105 5 0 18 -7 28 -17z
m106 -18 c23 -50 5 -93 -32 -79 -20 8 -23 90 -3 97 21 9 23 8 35 -18z m-1602
-11 c8 -30 -6 -79 -21 -79 -12 0 -19 49 -11 81 8 32 24 30 32 -2z m1684 -3
c14 -27 13 -56 -3 -70 -19 -15 -37 6 -37 44 0 48 21 61 40 26z m-1769 -74 c-8
-8 -11 1 -11 29 0 53 14 67 18 19 2 -21 -1 -42 -7 -48z m1829 20 c0 -16 -4
-26 -10 -22 -5 3 -10 23 -10 43 0 28 3 33 10 22 5 -8 10 -28 10 -43z m-1200
-22 c24 -13 30 -22 30 -50 0 -26 -7 -38 -30 -55 -28 -20 -31 -20 -55 -4 -14 9
-25 22 -25 29 0 7 -3 20 -6 29 -4 9 5 25 22 41 32 30 27 29 64 10z m164 -6
c40 -31 36 -75 -8 -96 -32 -15 -37 -15 -60 1 -35 22 -36 76 -3 99 30 21 40 21
71 -4z m157 5 c26 -13 30 -20 27 -50 -2 -26 -10 -40 -31 -52 -25 -15 -30 -15
-55 -2 -37 21 -44 81 -10 104 28 20 32 20 69 0z m157 -1 c12 -10 22 -33 24
-52 2 -29 -2 -37 -23 -50 -22 -12 -31 -13 -58 -2 -27 12 -31 18 -31 51 0 28 6
42 23 53 29 21 41 21 65 0z m147 1 c35 -23 35 -87 0 -110 -22 -14 -26 -14 -55
2 -24 15 -30 25 -30 54 0 28 6 39 28 52 33 21 28 21 57 2z m-889 -41 c13 -50
-27 -94 -66 -73 -29 15 -28 83 1 104 26 18 57 3 65 -31z m126 30 c10 -9 18
-30 18 -47 0 -25 -7 -36 -30 -50 -29 -16 -33 -16 -55 -2 -33 22 -35 78 -3 100
29 20 47 20 70 -1z m900 0 c28 -25 24 -86 -6 -102 -57 -31 -107 65 -53 102 29
20 37 21 59 0z m130 -10 c22 -20 24 -76 2 -94 -13 -11 -20 -11 -42 2 -22 13
-26 22 -24 49 4 57 30 74 64 43z m116 -5 c17 -17 15 -83 -3 -98 -13 -10 -19
-10 -35 5 -33 30 -22 105 15 105 6 0 16 -5 23 -12z m90 -10 c18 -18 15 -87 -3
-95 -16 -6 -44 22 -45 44 0 19 19 63 28 63 4 0 13 -5 20 -12z m-1680 -54 c-2
-27 -8 -39 -18 -39 -19 0 -25 47 -10 76 17 30 32 10 28 -37z m1758 21 c3 -14
3 -37 0 -51 -6 -21 -9 -24 -21 -14 -15 13 -21 71 -8 83 13 13 23 7 29 -18z
m-1816 -26 c0 -25 -4 -39 -11 -37 -6 2 -10 7 -10 11 1 4 1 21 1 37 0 17 5 30
10 30 6 0 10 -18 10 -41z m1860 -6 c0 -26 -3 -34 -11 -26 -9 9 -3 63 7 63 2 0
4 -17 4 -37z m-990 -387 c0 -2 -18 -6 -40 -8 -22 -2 -40 0 -40 4 0 5 18 8 40
8 22 0 40 -2 40 -4z m-270 -15 c0 -13 -57 -17 -165 -11 l-90 5 85 5 c143 10
170 10 170 1z m470 -1 c18 -6 7 -8 -42 -9 -39 -1 -68 3 -68 9 0 12 74 12 110
0z m70 0 c0 -5 -4 -10 -10 -10 -5 0 -10 5 -10 10 0 6 5 10 10 10 6 0 10 -4 10
-10z m-1090 -154 c0 -3 -4 -8 -10 -11 -5 -3 -10 -1 -10 4 0 6 5 11 10 11 6 0
10 -2 10 -4z m718 -36 c-2 -16 -11 -35 -19 -42 -9 -7 -38 -40 -65 -73 -38 -46
-198 -209 -357 -362 -5 -4 -34 -36 -66 -70 -51 -55 -62 -63 -94 -63 -20 0 -37
3 -37 6 0 46 585 632 633 634 4 0 7 -13 5 -30z m248 9 c19 -11 130 -127 248
-258 219 -244 296 -336 296 -358 0 -9 -17 -13 -50 -13 -42 0 -52 4 -67 26 -10
15 -36 46 -58 69 -68 72 -191 208 -221 245 -16 19 -43 49 -60 67 -31 32 -131
213 -118 213 3 0 1 7 -6 15 -17 21 -3 19 36 -6z m-1081 -349 l0 -145 -175 -7
c-96 -4 -194 -8 -217 -10 -51 -4 -53 6 -15 55 15 20 61 83 102 141 41 57 84
106 95 109 11 3 63 4 115 3 l95 -1 0 -145z m2222 128 c50 -57 213 -279 213
-291 0 -11 -10 -12 -52 -6 -29 5 -133 13 -232 18 -98 6 -181 13 -184 15 -5 6
-6 66 -3 209 l1 77 118 0 c110 0 120 -2 139 -22z m-1382 -428 c51 -6 -52 -7
-285 -4 -201 3 -390 9 -420 14 -73 10 602 1 705 -10z m1743 -352 c-3 -166 -4
-173 -23 -171 -11 2 -81 12 -155 23 -74 11 -204 26 -288 34 -84 7 -155 15
-157 17 -2 3 -5 65 -6 139 l-1 135 43 7 c24 4 139 12 254 19 116 6 235 14 265
18 54 6 55 5 63 -21 4 -15 6 -105 5 -200z m-69 -194 c14 -8 33 -14 41 -14 14
0 18 -21 11 -63 -1 -10 -81 -47 -101 -47 -8 0 4 9 28 20 36 16 42 23 42 49 0
31 -20 42 -120 70 -30 8 -27 9 19 4 30 -3 66 -12 80 -19z m-3355 -69 c3 -8 1
-15 -4 -15 -6 0 -10 7 -10 15 0 8 2 15 4 15 2 0 6 -7 10 -15z m846 -56 l0 -70
-57 6 c-32 3 -75 8 -95 11 l-38 6 0 53 0 54 43 4 c23 2 66 4 95 5 l52 2 0 -71z
m2258 19 c78 -12 129 -25 124 -30 -19 -19 -414 -69 -429 -54 -3 3 -2 31 2 62
l7 57 81 -7 c45 -4 142 -16 215 -28z m-2638 -18 c0 -23 -31 -27 -49 -7 -14 17
-4 27 26 27 16 0 23 -6 23 -20z m-215 -16 l50 -13 -54 5 c-55 5 -109 24 -66
23 11 -1 43 -7 70 -15z m3150 -14 c-42 -19 -358 -62 -528 -73 -107 -7 -34 10
98 22 136 13 386 49 394 56 2 3 16 5 30 4 24 0 24 -1 6 -9z m-3058 -6 c-3 -3
-12 -4 -19 -1 -8 3 -5 6 6 6 11 1 17 -2 13 -5z m56 -11 c-7 -2 -19 -2 -25 0
-7 3 -2 5 12 5 14 0 19 -2 13 -5z m695 -50 c-10 -2 -28 -2 -40 0 -13 2 -5 4
17 4 22 1 32 -1 23 -4z m365 -10 c-35 -2 -91 -2 -125 0 -35 2 -7 3 62 3 69 0
97 -1 63 -3z m-103 -29 c157 -3 301 -10 320 -15 21 -5 -91 -6 -269 -3 -167 3
-307 7 -311 9 -3 2 -47 5 -96 6 -50 2 -100 6 -110 11 -11 4 26 6 81 3 55 -2
228 -7 385 -11z m-984 -95 c91 -16 91 -16 129 -84 20 -36 41 -62 48 -59 11 4
37 -38 37 -60 0 -5 11 -24 25 -41 l24 -33 -31 -6 c-17 -3 -32 -5 -33 -4 -2 2
-19 35 -39 75 -40 81 -51 93 -51 55 0 -15 -4 -28 -8 -30 -9 -3 -177 178 -177
190 0 10 5 10 76 -3z m2752 -86 c-17 -32 -49 -89 -71 -127 -31 -54 -36 -70
-26 -77 9 -5 -12 -9 -55 -9 -60 0 -67 -2 -56 -15 7 -8 23 -15 36 -15 13 0 24
-3 24 -7 0 -7 -125 -53 -144 -53 -17 0 16 28 39 34 35 9 31 30 -7 41 -33 10
-51 35 -25 35 8 0 20 6 26 14 10 12 5 15 -29 21 l-41 7 3 86 3 87 140 16 c77
9 157 17 178 18 l37 1 -32 -57z m-2285 25 c14 -7 17 -23 17 -103 l0 -94 -32
-15 c-38 -20 -42 -20 -35 -1 5 11 0 13 -26 8 -18 -3 -40 -12 -49 -21 -10 -8
-24 -12 -33 -9 -12 5 -15 28 -15 132 l0 125 78 -7 c42 -3 85 -10 95 -15z m286
-24 c17 -4 31 -12 31 -18 0 -6 79 -91 175 -189 96 -98 175 -183 175 -188 0 -5
7 -9 15 -9 8 0 15 -7 15 -15 0 -8 4 -15 8 -15 4 0 25 -27 47 -61 21 -33 49
-68 62 -76 13 -8 23 -22 23 -29 0 -11 -12 -8 -47 10 -33 17 -126 103 -298 278
-138 139 -261 268 -274 286 l-22 32 29 0 c16 0 44 -3 61 -6z m1321 -10 c0 -21
-402 -492 -483 -566 -40 -37 -77 -54 -77 -37 0 5 4 9 8 9 5 0 16 6 26 13 16
12 16 14 2 14 -9 0 -16 -5 -16 -10 0 -6 -3 -7 -6 -4 -4 3 5 21 20 39 68 84
116 148 116 155 0 5 18 23 40 42 22 19 40 37 40 42 0 4 17 25 38 46 21 21 56
61 77 88 22 28 49 59 60 71 11 11 37 39 58 62 28 31 45 42 67 42 17 0 30 -3
30 -6z m-1763 -423 c4 -76 3 -91 -9 -91 -12 0 -16 19 -21 80 -6 87 0 127 15
112 6 -6 12 -51 15 -101z m-50 -123 c-3 -8 -6 -5 -6 6 -1 11 2 17 5 13 3 -3 4
-12 1 -19z m43 -18 c0 -22 5 -40 11 -40 5 0 8 -4 5 -9 -7 -10 57 -42 122 -61
l42 -13 1 -186 c0 -102 4 -270 8 -373 6 -170 8 -189 26 -203 20 -15 20 -15 0
-8 -19 6 -19 5 1 -18 16 -18 24 -48 32 -113 21 -162 88 -254 237 -327 116 -56
254 -86 520 -115 l70 -8 -111 -7 c-60 -4 -184 -18 -275 -30 -219 -29 -319 -34
-392 -19 -119 23 -162 59 -223 187 l-37 75 -8 208 c-5 114 -13 385 -17 602 -6
288 -11 400 -20 411 -13 15 -12 87 1 87 4 0 7 -18 7 -40z m1847 -452 c-8 -61
-67 -113 -137 -122 -28 -4 -55 -4 -59 -1 -5 2 -12 -7 -16 -22 -3 -16 -12 -31
-18 -35 -14 -9 -57 -11 -57 -3 0 13 42 161 50 174 6 11 41 22 102 32 147 25
142 26 135 -23z m-257 -22 c0 -20 -15 -35 -71 -73 -49 -34 -72 -56 -76 -75 -4
-21 -12 -27 -39 -30 -42 -5 -45 -2 -34 28 8 20 3 28 -36 63 -34 29 -45 46 -42
63 2 19 10 24 41 26 26 2 37 -1 37 -11 0 -7 11 -24 25 -37 30 -28 52 -21 105
32 44 44 90 51 90 14z m-555 -13 c-3 -10 -16 -51 -28 -90 l-21 -73 -39 0 c-27
0 -38 4 -35 13 3 6 16 47 29 89 l24 78 39 0 c32 0 37 -3 31 -17z m244 10 c0
-5 -13 -46 -28 -93 l-26 -85 -39 -3 c-33 -3 -38 -1 -34 15 14 50 17 48 -59 51
-73 3 -78 6 -67 36 5 13 22 16 85 16 65 0 79 3 79 16 0 34 20 54 55 54 19 0
35 -3 34 -7z m-1274 -953 c10 -11 16 -20 13 -20 -3 0 -13 9 -23 20 -10 11 -16
20 -13 20 3 0 13 -9 23 -20z"/>
<path d="M5710 6729 c0 -5 5 -7 10 -4 6 3 10 8 10 11 0 2 -4 4 -10 4 -5 0 -10
-5 -10 -11z"/>
<path d="M6160 3584 c0 -8 10 -14 26 -14 28 0 25 15 -6 23 -13 3 -20 0 -20 -9z"/>
<path d="M5620 2711 c-21 -4 -36 -13 -38 -22 -3 -15 3 -16 45 -7 55 12 95 39
53 37 -14 -1 -41 -4 -60 -8z"/>
<path d="M6409 3633 c-13 -16 -12 -17 4 -4 16 13 21 21 13 21 -2 0 -10 -8 -17
-17z"/>
<path d="M6375 3600 c-3 -5 -2 -10 4 -10 5 0 13 5 16 10 3 6 2 10 -4 10 -5 0
-13 -4 -16 -10z"/>
<path d="M5990 2810 c0 -5 5 -10 10 -10 6 0 10 5 10 10 0 6 -4 10 -10 10 -5 0
-10 -4 -10 -10z"/>
<path d="M5885 2770 c-38 -13 -46 -19 -32 -25 21 -9 22 -31 2 -39 -8 -3 -15
-10 -15 -15 0 -13 103 22 108 37 2 7 -6 12 -20 13 l-23 0 23 16 c21 15 30 34
15 32 -5 0 -30 -9 -58 -19z"/>
</g>
</svg>
