<?xml version="1.0" standalone="no"?>
<!DOCTYPE svg PUBLIC "-//W3C//DTD SVG 20010904//EN"
 "http://www.w3.org/TR/2001/REC-SVG-20010904/DTD/svg10.dtd">
<svg version="1.0" xmlns="http://www.w3.org/2000/svg"
 width="1000.000000pt" height="1000.000000pt" viewBox="0 0 1000.000000 1000.000000"
 preserveAspectRatio="xMidYMid meet">

<g transform="translate(0.000000,1000.000000) scale(0.100000,-0.100000)"
fill="#000000" stroke="none">
<path d="M3017 8758 c-78 -191 -116 -281 -188 -453 -44 -104 -93 -218 -109
-251 l-29 -62 21 -18 c11 -11 31 -38 45 -61 22 -38 23 -45 12 -85 -24 -83 -97
-148 -167 -148 -26 0 -32 -6 -50 -52 -28 -72 -119 -294 -136 -332 -8 -17 -26
-60 -39 -96 -24 -61 -57 -140 -77 -185 -5 -11 -28 -67 -51 -125 -36 -93 -104
-258 -129 -315 -4 -11 -24 -58 -43 -105 -19 -47 -52 -128 -74 -180 -22 -52
-64 -156 -93 -230 -29 -74 -63 -157 -75 -185 -13 -27 -42 -97 -65 -155 -23
-58 -51 -124 -61 -147 -11 -24 -19 -48 -19 -53 0 -6 -7 -25 -16 -41 -8 -17
-14 -38 -12 -47 3 -10 15 6 32 43 46 99 56 123 56 133 0 6 9 27 19 49 45 90
71 151 71 165 0 8 11 32 25 52 14 20 25 44 25 52 0 9 7 32 16 52 9 21 20 46
25 57 5 11 13 33 19 49 8 20 14 26 21 19 8 -8 6 -20 -5 -41 -9 -17 -16 -38
-16 -47 0 -8 -4 -15 -10 -15 -5 0 -7 -6 -4 -13 3 -8 -2 -20 -11 -27 -13 -11
-13 -15 -3 -22 10 -7 10 -11 -3 -21 -9 -6 -24 -35 -33 -64 -10 -29 -28 -68
-42 -88 -13 -20 -24 -41 -24 -48 0 -16 -25 -85 -33 -93 -4 -4 -7 -17 -7 -29 0
-12 -3 -25 -7 -29 -12 -12 -43 -100 -43 -123 0 -12 -6 -26 -13 -30 -15 -9 -37
-65 -37 -95 0 -11 15 -27 35 -39 19 -12 35 -25 35 -30 0 -14 -57 18 -68 37 -8
14 -11 14 -26 -7 -14 -20 -15 -25 -3 -33 12 -7 8 -16 -19 -43 -50 -49 -46 -79
12 -104 25 -12 54 -19 64 -16 18 5 57 -30 46 -41 -3 -3 -43 7 -88 22 -70 23
-84 25 -93 13 -6 -8 -46 -102 -89 -208 -43 -107 -86 -212 -96 -234 -10 -22
-28 -65 -40 -95 -12 -30 -32 -80 -45 -110 -12 -30 -35 -86 -50 -125 -16 -38
-32 -74 -37 -80 -4 -5 -8 -15 -8 -22 0 -11 -70 -188 -110 -278 -5 -11 -19 -45
-30 -75 -12 -30 -38 -90 -58 -133 -34 -73 -36 -80 -19 -91 9 -7 23 -31 31 -52
8 -21 37 -88 65 -148 57 -121 59 -146 12 -121 -17 8 -37 15 -46 15 -8 0 -23 5
-33 10 -9 6 -42 16 -72 24 -68 17 -69 23 -11 159 43 101 47 117 32 117 -12 0
-41 -63 -92 -194 -15 -41 -19 -63 -13 -74 9 -13 124 -54 189 -67 123 -26 128
-27 495 -137 74 -22 167 -50 205 -61 39 -11 140 -42 226 -68 86 -27 160 -49
166 -49 25 0 120 -35 138 -50 11 -10 31 -20 45 -23 33 -7 223 -63 430 -127
276 -85 361 -111 455 -137 50 -14 99 -29 110 -33 11 -5 49 -17 85 -28 36 -11
119 -36 185 -56 275 -85 375 -115 475 -146 58 -17 119 -36 135 -41 17 -5 84
-25 150 -45 234 -70 351 -106 464 -143 51 -16 108 -33 125 -36 17 -4 63 -17
101 -30 39 -13 117 -38 175 -55 92 -27 304 -93 439 -136 29 -9 48 -11 56 -4 8
6 28 3 61 -9 27 -11 69 -25 94 -31 25 -7 54 -16 65 -20 21 -8 90 -29 165 -51
25 -7 54 -19 65 -26 11 -7 30 -13 42 -13 12 0 40 -6 60 -14 21 -7 58 -19 83
-26 25 -7 68 -21 96 -31 29 -10 54 -15 58 -12 3 3 11 2 18 -3 14 -11 74 -30
208 -68 47 -13 110 -33 140 -45 30 -11 65 -21 77 -21 12 0 24 -4 27 -9 7 -10
64 -26 114 -30 6 -1 12 -6 12 -12 0 -12 -67 -4 -110 14 -14 5 -32 11 -40 13
-38 7 -223 61 -255 74 -11 4 -40 13 -65 20 -25 7 -63 19 -85 28 -22 8 -51 16
-65 18 -14 1 -59 14 -100 27 -41 14 -93 30 -115 35 -22 6 -62 18 -90 27 -27 9
-70 21 -95 26 -25 5 -57 17 -72 25 -15 8 -33 14 -40 13 -7 -1 -20 0 -28 3 -8
3 -42 13 -75 23 -33 9 -77 23 -99 30 -21 8 -43 12 -47 9 -15 -9 -10 -24 7 -24
15 0 68 -15 174 -50 98 -32 213 -68 320 -100 58 -17 116 -35 130 -40 14 -4 45
-13 70 -19 25 -7 65 -19 90 -28 25 -8 59 -19 75 -23 17 -5 68 -21 115 -35 47
-14 130 -39 185 -55 55 -15 114 -33 130 -39 44 -17 243 -81 249 -81 3 0 19 46
36 103 18 56 42 134 55 172 13 39 34 106 48 150 14 44 36 112 50 150 14 39 46
135 71 215 26 80 51 154 56 165 5 11 52 155 106 320 109 340 128 398 143 440
22 62 150 461 157 489 11 46 -12 23 -31 -32 -10 -26 -20 -56 -25 -67 -30 -82
-42 -123 -41 -142 0 -11 -5 -23 -13 -26 -7 -3 -16 -28 -20 -56 -4 -27 -10 -53
-15 -56 -5 -3 -15 -29 -21 -57 -7 -29 -17 -62 -23 -73 -6 -11 -12 -29 -14 -40
-2 -11 -8 -24 -13 -29 -6 -6 -10 -17 -10 -26 0 -9 -9 -33 -20 -55 -11 -22 -20
-49 -20 -61 0 -12 -7 -35 -15 -50 -8 -16 -15 -37 -15 -46 0 -9 -5 -30 -11 -45
-6 -15 -15 -37 -20 -48 -21 -52 -52 -144 -59 -175 -12 -52 -60 -191 -76 -223
-8 -16 -14 -38 -14 -50 0 -12 -7 -31 -15 -41 -8 -11 -15 -32 -15 -47 0 -15 -7
-40 -15 -55 -8 -16 -15 -38 -15 -50 0 -11 -5 -25 -11 -31 -6 -6 -14 -26 -19
-44 -17 -68 -52 -153 -68 -165 -14 -10 -15 -16 -5 -32 10 -16 7 -25 -12 -54
-13 -19 -25 -48 -28 -64 -4 -26 -4 -25 -6 8 -1 46 23 140 43 170 9 12 16 37
16 55 0 18 6 36 15 40 9 5 17 29 20 57 2 27 11 56 19 65 7 9 17 36 21 61 4 25
13 59 20 75 8 17 17 46 20 65 4 19 16 58 27 85 29 72 43 113 61 170 8 28 25
84 37 125 13 41 27 84 31 95 11 24 53 154 108 330 22 72 56 175 74 230 19 55
46 141 61 190 15 50 32 99 37 110 5 11 18 50 28 86 10 37 26 82 34 100 8 19
20 52 25 74 12 46 31 102 43 127 5 10 9 24 9 32 0 9 32 110 70 226 39 116 70
218 70 226 0 9 6 28 14 42 8 15 42 115 76 222 34 107 84 265 112 350 28 85 68
211 90 280 22 69 56 170 74 226 19 56 34 109 34 118 0 9 5 24 10 34 6 9 24 57
40 107 l29 90 -40 57 c-93 133 -51 262 107 334 l71 32 63 194 c35 106 81 245
102 308 22 63 42 125 45 138 3 12 9 25 14 28 21 12 6 22 -25 17 -26 -4 -39 0
-55 16 -26 26 -27 43 -1 66 27 25 25 35 -7 35 -28 0 -100 18 -243 60 -41 12
-106 30 -145 40 -93 25 -224 61 -370 103 -66 19 -196 56 -290 82 -93 26 -197
55 -230 65 -33 11 -89 26 -125 35 -36 9 -78 20 -95 26 -16 5 -77 22 -135 38
-58 16 -185 53 -283 81 l-179 52 -23 -22 c-29 -27 -59 -20 -84 21 -16 26 -20
28 -31 14 -15 -18 -61 -20 -78 -3 -7 7 -12 20 -12 30 0 22 0 22 -36 3 -40 -21
-51 -19 -71 13 -9 15 -18 28 -19 30 -1 2 -14 -4 -28 -13 -24 -16 -28 -16 -51
-1 -31 21 -33 59 -3 80 23 16 21 18 -35 30 l-28 7 22 -22 21 -21 -23 -24 c-37
-39 -99 -28 -99 18 0 22 -13 23 -30 3 -21 -25 -59 -18 -78 14 -16 29 -17 29
-43 14 -25 -15 -29 -15 -53 1 -33 21 -33 51 0 72 l25 17 -38 13 c-48 17 -63
17 -40 0 9 -7 17 -22 17 -33 0 -26 -45 -56 -70 -48 -44 14 -49 77 -8 90 26 9
12 21 -35 29 l-38 7 20 -20 c28 -28 27 -36 -9 -61 -29 -21 -32 -21 -55 -6 -34
22 -33 61 2 79 l26 14 -37 13 c-44 14 -52 10 -35 -18 27 -43 -48 -83 -85 -46
-34 33 -13 73 38 75 30 1 30 1 -9 14 -22 8 -49 14 -59 14 -18 1 -18 0 -1 -19
15 -16 16 -22 5 -35 -34 -41 -84 -42 -99 -2 -12 30 5 57 34 57 36 0 31 16 -7
23 -18 4 -44 9 -58 13 l-25 7 23 -22 c12 -12 22 -25 22 -30 0 -10 -30 -36 -51
-44 -22 -7 -59 19 -59 42 0 20 30 51 51 52 17 0 -70 29 -90 29 -7 0 -2 -10 13
-21 l27 -21 -22 -24 c-25 -27 -61 -31 -79 -10 -18 22 -8 59 20 73 17 8 20 13
10 16 -8 3 -60 17 -115 32 -55 15 -121 33 -147 41 -63 19 -65 18 -38 -11 20
-21 21 -27 9 -41 -24 -29 -60 -37 -80 -18 -27 25 -23 52 10 72 l30 18 -45 12
c-60 16 -73 15 -46 -4 27 -18 28 -36 4 -57 -28 -25 -71 -22 -81 6 -11 29 -3
47 26 58 31 11 22 25 -19 32 -38 5 -170 41 -231 62 -49 17 -57 13 -32 -15 18
-20 18 -21 -5 -45 -28 -30 -51 -32 -75 -5 -15 17 -16 24 -7 45 7 15 20 25 32
25 11 0 20 5 20 10 0 6 -7 10 -16 10 -8 0 -39 7 -67 15 -70 21 -79 24 -337 95
-124 34 -261 72 -305 86 -44 13 -134 37 -200 55 -233 60 -473 128 -611 173
-19 6 -25 -1 -47 -56z m194 -11 c28 -19 35 -30 37 -64 3 -37 -1 -44 -35 -72
-53 -44 -103 -43 -149 3 -44 44 -46 86 -5 127 38 38 101 40 152 6z m164 -52
c11 -2 23 -4 28 -4 4 -1 7 -5 7 -11 0 -12 -53 -2 -95 17 l-30 14 35 -7 c19 -3
44 -8 55 -9z m118 -42 c-7 -2 -19 -2 -25 0 -7 3 -2 5 12 5 14 0 19 -2 13 -5z
m61 -10 c4 -4 13 -8 19 -8 31 -2 88 -18 93 -27 4 -6 -1 -8 -12 -5 -11 3 -43
11 -72 17 -28 7 -55 16 -58 21 -6 11 19 12 30 2z m-564 -75 c-11 -28 -27 -59
-35 -67 -17 -17 -13 -5 28 92 21 49 27 28 7 -25z m838 10 c32 -32 -3 -72 -56
-66 -21 2 -28 9 -30 32 -2 16 2 32 10 37 19 13 62 11 76 -3z m117 -38 c18 -20
18 -21 -4 -44 -31 -33 -75 -22 -79 19 -6 46 49 63 83 25z m106 -20 c26 -15 24
-46 -6 -66 -31 -20 -63 -10 -71 22 -11 44 31 68 77 44z m127 -44 c19 -19 0
-54 -34 -62 -19 -5 -32 -1 -46 14 -20 20 -20 22 -4 47 14 22 23 26 44 20 15
-3 33 -12 40 -19z m-321 -22 c7 -20 -25 -54 -52 -54 -32 0 -62 36 -49 58 22
34 87 32 101 -4z m-913 9 c-3 -10 -9 -27 -14 -38 -4 -11 -13 -35 -20 -52 -7
-18 -16 -33 -21 -33 -13 0 -11 16 10 63 10 23 21 50 25 60 3 9 10 17 15 17 6
0 8 -8 5 -17z m1024 -52 c-4 -36 -50 -52 -78 -26 -27 25 -25 42 7 59 38 19 75
2 71 -33z m326 26 c9 -15 6 -23 -18 -43 -25 -23 -30 -24 -50 -11 -23 16 -31
39 -22 63 8 22 76 15 90 -9z m111 -27 c17 -19 17 -21 0 -40 -31 -35 -95 -21
-95 20 0 41 64 55 95 20z m-331 -3 c40 -29 -21 -87 -63 -60 -23 15 -26 45 -5
60 23 17 45 17 68 0z m437 -17 c26 -14 24 -32 -6 -60 -21 -20 -28 -22 -50 -12
-16 8 -25 20 -25 35 0 42 38 60 81 37z m-323 -12 c19 -19 14 -46 -12 -63 -44
-29 -94 19 -60 56 19 22 54 25 72 7z m-314 -17 c15 -16 15 -22 4 -40 -27 -44
-98 -30 -98 20 0 38 65 52 94 20z m430 -20 c33 -36 -18 -85 -64 -61 -26 14
-26 45 2 64 29 21 41 20 62 -3z m-322 -8 c23 -21 23 -36 -2 -58 -23 -21 -65
-14 -80 15 -8 15 -6 23 12 40 26 24 45 25 70 3z m761 -8 c25 -18 18 -46 -15
-65 -33 -18 -61 -6 -66 29 -7 45 42 67 81 36z m-332 -14 c26 -21 21 -43 -14
-65 -19 -12 -44 -1 -61 28 -9 14 -6 21 13 37 13 10 27 19 31 19 4 0 18 -9 31
-19z m-1541 -26 c-7 -14 -17 -25 -22 -25 -5 0 -1 14 7 31 9 17 19 28 22 25 4
-3 0 -17 -7 -31z m1225 21 c16 -12 18 -19 10 -43 -12 -31 -42 -41 -74 -23 -25
13 -27 37 -4 62 19 22 42 23 68 4z m-369 -66 c191 -57 485 -141 609 -175 156
-42 1040 -289 1095 -305 79 -24 417 -120 445 -127 30 -7 262 -72 320 -88 97
-29 341 -97 445 -125 58 -16 211 -59 340 -95 129 -37 276 -78 325 -91 50 -14
119 -33 155 -44 89 -26 207 -60 390 -110 231 -63 452 -130 480 -145 68 -37
119 -118 120 -190 0 -57 -50 -241 -120 -445 -34 -96 -72 -209 -85 -250 -13
-41 -38 -115 -55 -163 -16 -48 -30 -94 -30 -102 0 -8 20 -38 44 -68 24 -29 55
-72 70 -93 41 -62 35 -88 -151 -639 -68 -203 -160 -478 -203 -610 -178 -540
-201 -611 -210 -630 -5 -11 -25 -74 -46 -140 -54 -174 -66 -198 -122 -228 -26
-13 -58 -28 -72 -32 -85 -25 -160 -74 -160 -104 0 -9 -14 -54 -30 -101 -17
-47 -39 -112 -51 -145 -11 -33 -24 -69 -29 -80 -5 -11 -20 -56 -35 -100 -14
-44 -30 -90 -35 -102 -19 -43 -27 -68 -45 -128 -17 -59 -25 -82 -45 -127 -5
-13 -21 -63 -35 -113 -62 -220 -115 -305 -215 -340 -74 -27 -155 -12 -450 81
-146 45 -296 92 -335 104 -38 12 -124 39 -190 60 -66 21 -148 46 -183 56 -71
19 -96 44 -108 109 -12 66 -32 104 -65 121 -30 15 -107 38 -162 48 -14 2 -36
10 -48 17 -13 6 -66 24 -119 40 -183 54 -325 98 -385 119 -33 12 -78 25 -100
31 -22 5 -49 14 -61 20 -11 6 -24 9 -30 8 -5 -1 -20 2 -34 9 -14 6 -52 18 -85
27 -33 10 -118 35 -190 57 -71 22 -175 54 -230 70 -55 17 -131 41 -170 53 -38
12 -97 30 -130 39 -33 9 -83 26 -110 36 -28 11 -57 20 -65 20 -15 0 -175 50
-227 72 -16 6 -37 12 -48 14 -54 8 -186 44 -311 86 l-60 20 -52 -26 c-28 -14
-73 -39 -99 -56 -56 -36 -71 -37 -149 -9 -32 11 -81 26 -109 34 -91 24 -864
264 -897 279 -43 18 -79 57 -80 87 0 13 -8 48 -16 78 -21 79 -11 159 33 261
20 47 79 189 130 315 51 127 127 314 169 417 42 103 76 196 76 205 0 10 -14
38 -30 63 -81 121 -83 197 -11 365 40 93 118 286 203 500 11 28 25 64 32 80
44 103 103 248 197 485 50 124 105 261 123 305 43 103 125 306 167 413 18 46
39 87 48 91 9 5 59 23 111 40 52 18 104 38 116 46 14 9 50 87 108 237 48 123
98 250 112 283 13 33 46 119 73 192 72 192 114 246 226 286 69 24 108 19 351
-53z m1119 58 c45 -20 27 -78 -25 -78 -50 0 -68 47 -28 74 27 19 21 19 53 4z
m-637 -24 c29 -20 28 -38 -4 -63 -21 -16 -30 -18 -50 -9 -31 14 -32 51 -2 72
12 9 25 16 28 16 3 0 16 -7 28 -16z m326 0 c20 -19 20 -23 -1 -46 -22 -24 -59
-23 -77 4 -14 20 -14 24 1 40 20 22 56 23 77 2z m116 -29 c29 -35 -17 -83 -60
-62 -14 7 -26 21 -28 31 -7 36 63 62 88 31z m-316 -17 c17 -28 -4 -53 -44 -53
-44 0 -61 26 -35 55 22 25 63 23 79 -2z m-1422 -26 c16 -16 16 -20 3 -39 -19
-26 -59 -34 -85 -16 -24 17 -25 31 -4 62 18 26 56 23 86 -7z m1852 9 c32 -36
-18 -85 -62 -62 -30 16 -34 39 -12 61 25 25 52 25 74 1z m-319 -11 c17 -18 17
-21 1 -45 -26 -40 -86 -26 -86 20 0 43 54 59 85 25z m758 -4 c22 -17 22 -39
-2 -60 -24 -22 -59 -17 -77 9 -29 44 34 85 79 51z m-332 -6 c42 -23 3 -88 -45
-76 -36 9 -44 45 -16 68 26 21 34 22 61 8z m-307 -22 c14 -23 -11 -68 -37 -68
-22 0 -57 27 -57 43 0 6 8 19 17 29 20 22 61 20 77 -4z m754 -4 c12 -8 22 -21
22 -29 0 -19 -39 -45 -67 -45 -21 0 -43 25 -43 49 0 16 30 41 48 41 10 0 28
-7 40 -16z m-330 -10 c12 -8 22 -20 22 -26 0 -20 -32 -48 -55 -48 -46 0 -63
58 -22 78 30 14 29 14 55 -4z m-316 -11 c22 -20 23 -31 1 -55 -21 -23 -55 -23
-77 1 -20 22 -12 49 18 61 31 13 37 12 58 -7z m-1684 -5 c7 -7 12 -21 12 -33
0 -45 -61 -62 -94 -27 -15 18 -15 21 5 45 22 28 57 35 77 15z m2130 -31 c17
-21 -12 -57 -47 -57 -54 0 -70 49 -24 74 29 14 49 10 71 -17z m-2258 5 c28
-23 21 -54 -16 -71 -22 -9 -31 -9 -50 4 -29 19 -30 39 -4 65 25 25 41 25 70 2z
m1918 2 c28 -19 28 -45 1 -70 -19 -17 -23 -17 -47 -3 -34 19 -39 42 -13 68 25
25 30 26 59 5z m452 -35 c15 -27 6 -47 -25 -59 -30 -11 -46 -6 -63 21 -11 18
-11 24 4 40 23 26 70 25 84 -2z m-320 -9 c22 -40 -27 -83 -70 -60 -23 12 -28
65 -7 73 30 13 67 6 77 -13z m421 -10 c23 -13 24 -37 2 -62 -20 -22 -41 -23
-65 -1 -22 20 -23 31 -1 55 18 20 36 23 64 8z m-311 -15 c16 -20 5 -62 -19
-70 -27 -8 -71 15 -71 38 0 40 65 63 90 32z m-2066 -14 c14 -15 15 -24 7 -40
-24 -44 -101 -34 -101 14 0 43 63 61 94 26z m2498 -8 c22 -20 23 -31 1 -55
-22 -25 -59 -23 -77 4 -15 20 -14 24 6 45 25 27 45 29 70 6z m-320 -10 c22
-20 23 -31 1 -55 -21 -24 -55 -23 -78 2 -15 17 -16 22 -4 37 30 38 52 42 81
16z m429 -13 c21 -12 25 -50 7 -68 -7 -7 -24 -12 -38 -12 -50 0 -68 47 -28 74
26 19 33 19 59 6z m-304 -27 c15 -19 2 -47 -28 -63 -26 -14 -69 11 -69 40 0
43 68 60 97 23z m437 -26 c15 -24 -4 -51 -38 -55 -52 -6 -76 43 -35 72 24 16
57 9 73 -17z m-316 -25 c5 -32 -38 -56 -71 -41 -32 14 -41 37 -25 56 32 39 89
30 96 -15z m-2548 -34 c0 -12 -17 -9 -28 5 -5 6 -13 23 -17 37 -6 24 -6 24 19
-5 14 -16 25 -33 26 -37z m2976 31 c22 -24 11 -49 -29 -63 -21 -8 -31 -6 -47
9 -24 22 -25 33 -3 57 21 24 55 23 79 -3z m-321 -9 c17 -18 17 -21 1 -45 -19
-29 -42 -32 -74 -9 -26 18 -28 31 -5 56 21 24 55 23 78 -2z m433 -12 c29 -29
3 -78 -42 -78 -18 0 -46 27 -46 45 0 36 62 59 88 33z m-327 -8 c37 -20 12 -80
-33 -80 -46 0 -66 49 -30 76 21 16 37 17 63 4z m437 -26 c26 -18 28 -42 5 -60
-37 -27 -83 -11 -83 29 0 20 26 46 45 47 6 0 21 -7 33 -16z m-320 -10 c29 -20
28 -38 -4 -63 -21 -17 -30 -19 -48 -9 -40 21 -45 39 -16 68 24 24 38 25 68 4z
m-2908 -82 c-12 -27 -31 -58 -43 -68 -40 -35 -76 -54 -82 -44 -3 5 13 19 35
32 22 13 47 37 55 55 9 18 20 35 24 38 5 3 13 20 17 38 5 19 9 25 11 15 3 -9
-5 -39 -17 -66z m3030 46 c25 -28 25 -30 -5 -58 -25 -23 -27 -23 -53 -8 -35
21 -40 52 -10 72 30 21 43 20 68 -6z m314 16 c21 -8 20 -48 -1 -65 -28 -24
-83 -4 -83 30 0 34 41 51 84 35z m-206 -40 c26 -18 28 -41 5 -66 -31 -35 -83
-17 -83 28 0 20 32 54 50 54 3 0 16 -7 28 -16z m338 -9 c16 -24 15 -26 -7 -45
-30 -24 -47 -25 -71 -3 -23 20 -23 49 0 62 30 18 61 12 78 -14z m108 -21 c20
-20 20 -33 -1 -56 -20 -22 -51 -23 -75 -1 -22 20 -23 31 -1 55 20 22 56 23 77
2z m-320 -10 c20 -20 20 -33 -1 -56 -20 -22 -56 -23 -77 -2 -20 20 -20 33 1
56 20 22 56 23 77 2z m430 -17 c23 -17 18 -55 -9 -73 -16 -11 -25 -11 -45 -1
-31 16 -37 43 -14 68 20 22 43 24 68 6z m-320 -10 c43 -32 -14 -103 -59 -73
-27 18 -31 54 -8 71 23 18 44 19 67 2z m434 -23 c30 -21 25 -55 -10 -72 -53
-25 -95 23 -57 65 26 27 37 28 67 7z m-320 -10 c27 -19 28 -45 3 -68 -27 -24
-62 -17 -81 17 -14 27 -14 29 9 48 28 23 40 24 69 3z m122 -39 c19 -20 22 -30
14 -42 -18 -29 -41 -38 -71 -27 -35 12 -41 46 -14 73 27 27 42 26 71 -4z m332
0 c9 -21 8 -28 -7 -45 -22 -24 -43 -25 -73 -4 -41 28 -17 73 41 74 20 0 31 -7
39 -25z m-4110 -14 c-16 -4 -30 -22 -44 -56 -11 -28 -26 -63 -33 -80 -8 -16
-28 -65 -46 -108 -37 -88 -73 -132 -40 -49 23 58 68 166 80 191 53 110 54 111
80 110 25 -1 25 -1 3 -8z m3896 -14 c21 -16 14 -55 -13 -73 -23 -15 -27 -15
-50 0 -32 21 -33 58 -2 79 22 14 40 13 65 -6z m323 13 c28 -15 24 -56 -7 -77
-24 -15 -29 -15 -53 -2 -68 38 -10 116 60 79z m-199 -54 c14 -32 5 -54 -27
-66 -49 -19 -93 34 -59 71 25 28 72 25 86 -5z m106 -22 c30 -21 25 -54 -10
-73 -53 -30 -102 26 -61 71 20 22 42 23 71 2z m612 -65 c0 -5 -4 -9 -10 -9 -5
0 -10 7 -10 16 0 8 5 12 10 9 6 -3 10 -10 10 -16z m326 -74 c16 -8 22 -15 14
-15 -8 1 -24 7 -34 15 -25 19 -16 19 20 0z m-5266 -229 c-6 -19 -18 -40 -26
-47 -12 -10 -11 0 5 42 12 30 21 56 22 59 0 3 3 -1 6 -7 2 -7 0 -28 -7 -47z
m6003 17 c-7 -2 -19 -2 -25 0 -7 3 -2 5 12 5 14 0 19 -2 13 -5z m377 -103 c0
-5 -4 -10 -10 -10 -5 0 -10 5 -10 10 0 6 5 10 10 10 6 0 10 -4 10 -10z m100
-20 c0 -5 -7 -10 -16 -10 -8 0 -12 5 -9 10 3 6 10 10 16 10 5 0 9 -4 9 -10z
m-6530 -25 c0 -8 -4 -15 -10 -15 -5 0 -10 7 -10 15 0 8 5 15 10 15 6 0 10 -7
10 -15z m-30 -55 c0 -11 -7 -20 -15 -20 -13 0 -13 3 -3 20 7 11 14 20 15 20 2
0 3 -9 3 -20z m-47 -129 c-6 -3 -13 -17 -16 -31 -9 -34 -24 -56 -33 -47 -4 3
-2 12 3 19 6 7 13 26 17 43 4 16 13 36 19 44 10 12 13 11 15 -4 2 -10 0 -20
-5 -24z m62 -51 c3 -5 1 -10 -4 -10 -6 0 -11 5 -11 10 0 6 2 10 4 10 3 0 8 -4
11 -10z m-132 -102 c-10 -11 -17 -22 -15 -24 8 -14 0 -44 -13 -44 -19 0 -19 2
5 45 11 20 20 44 20 54 0 27 15 36 18 11 2 -12 -5 -31 -15 -42z m6667 -32 c0
-3 -4 -8 -10 -11 -5 -3 -10 -1 -10 4 0 6 5 11 10 11 6 0 10 -2 10 -4z m-6724
-121 c-9 -18 -16 -36 -16 -41 0 -11 -51 -96 -56 -92 -2 3 5 22 16 43 11 22 20
45 20 52 0 7 4 21 10 31 5 9 15 31 22 47 9 24 12 26 15 12 3 -10 -2 -33 -11
-52z m-81 -195 c-9 -40 -34 -90 -46 -90 -13 0 -12 5 16 66 27 60 40 70 30 24z
m-73 -163 c-5 -12 -18 -40 -28 -62 -9 -22 -19 -35 -21 -29 -5 15 51 136 56
122 2 -5 -1 -20 -7 -31z m21 -214 c-7 -2 -19 -2 -25 0 -7 3 -2 5 12 5 14 0 19
-2 13 -5z m-248 -583 c3 -5 -3 -10 -15 -10 -12 0 -18 5 -15 10 3 6 10 10 15
10 5 0 12 -4 15 -10z m-26 -69 c16 -10 6 -31 -14 -31 -17 0 -28 17 -20 30 8
12 16 12 34 1z m-39 -141 c0 -4 -7 -10 -15 -14 -10 -4 -15 1 -15 14 0 13 5 18
15 14 8 -4 15 -10 15 -14z m-22 -62 c2 -12 -3 -18 -16 -18 -22 0 -46 23 -35
34 13 13 48 1 51 -16z m58 -65 c-11 -11 -19 6 -11 24 8 17 8 17 12 0 3 -10 2
-21 -1 -24z m684 -1853 c0 -12 -64 -169 -93 -230 -24 -49 -65 -71 -52 -28 15
48 125 268 135 268 6 0 10 -4 10 -10z m-160 -43 c0 -7 -5 -18 -12 -25 -8 -8
-8 -15 2 -27 10 -12 10 -19 2 -27 -7 -7 -15 -9 -18 -5 -9 9 6 97 17 97 5 0 9
-6 9 -13z m1941 -399 c70 -25 130 -82 131 -125 1 -38 -24 -75 -66 -98 -29 -16
-37 -16 -65 -4 -18 8 -31 21 -31 31 0 10 -4 18 -10 18 -5 0 -10 -7 -10 -15 0
-25 -28 -29 -58 -9 -15 10 -34 17 -43 16 -9 -2 -22 4 -29 13 -8 10 -21 13 -38
8 -23 -5 -24 -4 -18 20 3 14 9 32 12 41 4 11 1 16 -10 16 -9 0 -16 -8 -16 -18
0 -23 -35 -57 -44 -43 -4 6 -3 18 3 28 5 10 14 30 20 46 14 35 52 36 79 2 24
-31 30 -31 34 -2 2 12 10 22 18 22 21 0 25 -49 6 -65 -18 -14 -21 -40 -6 -40
6 0 15 11 20 25 19 50 90 41 90 -12 0 -32 17 -21 25 18 8 33 30 48 47 31 8 -8
8 -15 1 -24 -6 -7 -18 -30 -26 -50 -14 -33 -14 -38 -1 -38 8 0 31 15 51 34 34
31 37 37 28 62 -22 61 -131 105 -269 109 -69 1 -101 18 -54 28 44 10 173 -5
229 -25z m-276 -25 c-5 -10 -16 -38 -25 -62 -18 -50 -40 -66 -40 -29 0 36 50
132 63 119 5 -5 6 -18 2 -28z m-68 -12 c-61 -65 -56 -114 17 -155 63 -36 111
-48 220 -55 80 -5 101 -9 101 -21 0 -12 -19 -16 -98 -18 -105 -3 -184 16 -253
61 -32 22 -74 78 -74 100 0 25 31 76 61 102 39 32 59 22 26 -14z m1943 -610
c0 -6 -4 -13 -10 -16 -5 -3 -10 1 -10 9 0 9 5 16 10 16 6 0 10 -4 10 -9z m-40
-93 c-15 -47 -30 -71 -30 -48 0 21 32 101 38 95 3 -3 -1 -24 -8 -47z m1424
-485 c32 -32 30 -49 -6 -76 -36 -27 -78 -15 -92 26 -8 22 -6 31 14 52 30 32
51 32 84 -2z m46 -93 c0 -5 -2 -10 -4 -10 -3 0 -8 5 -11 10 -3 6 -1 10 4 10 6
0 11 -4 11 -10z"/>
<path d="M4290 7629 c0 -5 5 -7 10 -4 6 3 10 8 10 11 0 2 -4 4 -10 4 -5 0 -10
-5 -10 -11z"/>
<path d="M4694 7575 c-3 -8 -4 -20 -2 -27 3 -7 7 -1 10 15 6 29 1 36 -8 12z"/>
<path d="M4770 7547 c0 -13 -7 -32 -15 -43 -20 -26 -19 -34 5 -34 13 0 20 7
20 19 0 11 4 22 9 25 5 3 11 17 13 31 4 19 1 25 -13 25 -13 0 -19 -7 -19 -23z"/>
<path d="M4485 7550 c3 -5 13 -10 21 -10 8 0 12 5 9 10 -3 6 -13 10 -21 10 -8
0 -12 -4 -9 -10z"/>
<path d="M4550 7541 c0 -5 5 -13 10 -16 6 -3 10 -2 10 4 0 5 -4 13 -10 16 -5
3 -10 2 -10 -4z"/>
<path d="M4610 7519 c0 -5 9 -9 20 -9 11 0 20 2 20 4 0 2 -9 6 -20 9 -11 3
-20 1 -20 -4z"/>
<path d="M4667 7516 c-4 -10 -5 -21 -2 -24 9 -9 17 6 13 25 -3 17 -4 17 -11
-1z"/>
<path d="M4557 7448 c-9 -18 -13 -36 -10 -42 8 -13 43 32 43 55 0 29 -16 23
-33 -13z"/>
<path d="M4612 7379 c-15 -47 -7 -59 36 -59 15 0 22 6 22 19 0 11 5 23 10 26
14 9 12 45 -2 45 -7 0 -22 3 -33 6 -16 4 -22 -2 -33 -37z m42 -14 c-4 -8 -10
-12 -15 -9 -11 6 -2 24 11 24 5 0 7 -7 4 -15z"/>
<path d="M4090 7363 c-15 -35 -17 -48 -8 -54 17 -11 26 -3 33 31 4 16 11 32
16 35 14 10 10 35 -6 35 -8 0 -23 -21 -35 -47z"/>
<path d="M4520 7365 c-9 -11 -10 -19 -2 -27 14 -14 32 -1 32 23 0 23 -13 25
-30 4z"/>
<path d="M5465 7318 c-8 -27 -15 -33 -37 -33 -14 0 -30 -3 -34 -7 -4 -5 1 -8
12 -8 10 0 30 -3 43 -7 17 -4 22 -3 17 6 -4 6 -1 23 8 36 17 26 21 45 8 45 -4
0 -12 -15 -17 -32z"/>
<path d="M4477 7247 c-30 -86 -30 -87 -14 -87 9 0 19 18 27 45 7 25 17 48 21
51 14 8 11 44 -3 44 -7 0 -21 -24 -31 -53z"/>
<path d="M4036 7235 c-6 -17 16 -31 33 -21 5 4 12 2 16 -4 3 -5 19 -10 35 -10
16 0 32 -4 35 -10 3 -5 19 -10 36 -10 16 0 29 -4 29 -10 0 -16 27 -12 34 5 6
17 9 16 -89 43 -115 33 -122 33 -129 17z"/>
<path d="M5364 7191 c4 -6 16 -11 26 -11 10 0 20 -6 23 -12 2 -7 8 -10 12 -5
12 10 -5 24 -39 33 -21 5 -27 4 -22 -5z"/>
<path d="M4280 7170 c0 -13 7 -20 20 -20 11 0 29 -5 40 -12 22 -14 35 -6 27
17 -4 8 -17 15 -31 15 -14 0 -28 5 -31 10 -10 17 -25 11 -25 -10z"/>
<path d="M5390 7131 c-8 -16 -18 -19 -48 -15 l-37 4 30 -14 c39 -19 75 -20 75
-2 0 8 3 21 6 30 9 23 -13 20 -26 -3z"/>
<path d="M6070 7100 c0 -5 5 -10 10 -10 6 0 10 5 10 10 0 6 -4 10 -10 10 -5 0
-10 -4 -10 -10z"/>
<path d="M3964 7054 c-14 -38 -46 -120 -58 -149 -7 -16 -21 -50 -31 -75 -10
-25 -23 -58 -31 -75 -7 -16 -31 -77 -53 -135 -23 -58 -50 -125 -60 -150 -11
-25 -36 -88 -56 -140 -21 -52 -43 -108 -50 -125 -7 -16 -32 -77 -55 -135 -43
-109 -67 -168 -100 -247 -11 -27 -71 -181 -135 -343 -64 -162 -120 -303 -125
-312 -6 -10 -10 -22 -10 -28 0 -6 -8 -29 -19 -53 -10 -23 -26 -62 -36 -87 -9
-25 -25 -64 -36 -88 -10 -23 -19 -48 -19 -55 0 -6 -7 -25 -16 -42 -9 -16 -29
-66 -45 -110 -16 -44 -34 -89 -39 -100 -5 -11 -21 -49 -35 -85 -14 -36 -30
-73 -35 -82 -6 -10 -10 -22 -10 -28 0 -6 -9 -29 -19 -53 -33 -71 -80 -191 -87
-220 -16 -67 31 -182 90 -221 21 -13 151 -54 651 -206 133 -40 441 -132 460
-137 11 -2 47 -13 80 -24 33 -10 105 -32 160 -48 55 -16 181 -55 280 -86 99
-31 200 -63 225 -70 392 -112 477 -138 697 -209 193 -63 234 -67 308 -32 91
43 130 99 185 266 10 30 60 174 110 320 51 146 105 306 122 355 16 50 34 99
38 110 9 20 87 247 157 455 19 58 39 114 44 125 4 11 24 70 44 130 20 61 40
119 44 130 12 27 26 68 45 135 9 30 21 64 25 75 24 56 32 85 26 95 -4 6 -17
-10 -30 -36 -13 -26 -22 -51 -19 -55 2 -4 0 -10 -6 -14 -5 -3 -10 -15 -10 -27
0 -14 -5 -18 -15 -14 -10 4 -15 -1 -15 -15 0 -22 -18 -23 -64 -4 -27 12 -16
-17 12 -30 15 -7 21 -17 20 -35 -3 -30 -15 -40 -45 -40 -16 0 -23 -6 -23 -20
0 -11 3 -20 8 -20 4 0 13 -9 20 -21 12 -18 11 -19 -7 -10 -10 6 -21 16 -23 21
-2 8 -13 6 -32 -4 -16 -8 -34 -12 -41 -10 -18 7 -29 -14 -15 -30 8 -11 8 -15
-2 -19 -10 -4 -8 -9 5 -20 14 -11 15 -17 6 -23 -8 -4 -18 1 -27 14 -18 28 -43
28 -60 1 -8 -13 -19 -18 -29 -15 -8 4 -22 1 -30 -5 -7 -7 -16 -9 -20 -5 -3 3
-15 -2 -25 -11 -15 -14 -21 -15 -27 -4 -10 15 -15 8 -25 -31 -9 -37 -26 -36
-26 2 0 20 5 30 15 30 10 0 15 7 13 18 -3 18 3 19 37 6 11 -4 17 -4 13 1 -4 4
-3 14 3 22 9 10 8 13 -5 13 -9 0 -16 -5 -16 -11 0 -6 -6 -9 -13 -6 -8 3 -27
-5 -43 -18 -24 -19 -28 -29 -26 -64 2 -35 -2 -46 -28 -69 -21 -19 -29 -34 -24
-45 5 -13 2 -16 -10 -11 -9 3 -16 12 -16 20 0 7 -10 22 -22 34 -25 23 -20 25
17 8 14 -6 28 -8 32 -5 9 10 -28 36 -51 37 -14 0 -16 3 -8 13 15 17 4 57 -15
57 -11 0 -13 -4 -5 -12 16 -21 -2 -53 -29 -53 -13 0 -27 4 -30 9 -4 5 -20 4
-38 -2 -17 -6 -38 -9 -45 -6 -7 3 -16 -3 -20 -12 -9 -22 2 -32 15 -14 8 12 9
9 5 -9 -3 -16 1 -29 12 -37 10 -7 13 -16 8 -21 -5 -4 -11 -2 -13 4 -3 9 -10
10 -24 3 -15 -8 -17 -7 -13 5 8 20 -20 20 -40 0 -18 -18 -36 -19 -37 -2 -1 6
-5 -1 -9 -18 -7 -28 -8 -28 -9 12 -1 34 2 41 14 37 8 -4 15 -10 15 -15 0 -18
15 -8 32 21 14 24 14 30 3 30 -8 0 -17 -5 -20 -10 -5 -8 -11 -7 -21 1 -7 6
-21 8 -30 5 -9 -4 -27 0 -39 8 -21 14 -23 14 -18 -4 3 -11 0 -20 -6 -20 -6 0
-11 4 -11 10 0 17 -67 41 -108 39 -43 -3 -61 -21 -42 -44 6 -7 8 -25 4 -39 -4
-16 -1 -32 6 -41 7 -9 8 -15 2 -15 -15 0 -44 49 -36 62 4 6 3 8 -4 5 -14 -9
-72 24 -72 41 0 9 -5 10 -16 4 -9 -5 -24 -7 -33 -5 -18 5 -86 -21 -96 -37 -3
-5 -10 -10 -14 -10 -8 0 7 53 20 75 17 26 19 72 5 84 -8 7 -14 18 -12 24 1 7
1 9 -1 5 -2 -4 -19 -4 -38 -1 -35 6 -65 -13 -78 -49 -5 -13 -19 -16 -72 -16
-56 0 -70 -3 -91 -23 -26 -24 -31 -20 -13 13 9 16 8 23 -2 29 -8 5 -9 9 -4 9
6 0 16 -5 22 -11 8 -8 15 -3 27 19 18 36 20 46 6 37 -5 -3 -10 3 -10 14 0 34
-27 24 -40 -14 -13 -40 -10 -39 -62 -23 -29 9 -37 15 -32 27 3 9 9 24 11 34 5
16 13 18 54 12 52 -7 65 4 27 22 -44 22 -66 21 -86 -1 -32 -35 -51 -83 -39
-95 8 -8 8 -11 0 -11 -6 0 -13 4 -15 8 -7 18 -76 62 -96 62 -12 0 -22 5 -22
10 0 13 47 13 55 0 4 -6 12 -10 18 -9 28 3 36 -2 30 -18 -5 -16 -4 -16 10 -3
20 18 12 60 -11 60 -10 0 -7 8 12 26 32 33 33 42 3 53 -29 11 -51 37 -43 50 4
6 -4 17 -18 26 -16 11 -22 22 -19 35 3 11 1 20 -5 20 -13 0 -19 -37 -12 -75 4
-21 12 -31 28 -33 25 -4 30 -27 6 -36 -24 -9 -34 -7 -28 7 3 9 -4 13 -23 12
-40 -2 -47 5 -25 21 22 15 35 51 21 60 -6 3 -7 15 -3 27 6 21 6 21 -17 -2 -17
-16 -20 -25 -11 -28 17 -7 15 -33 -3 -33 -8 0 -15 5 -15 10 0 6 -5 10 -11 10
-6 0 -8 -9 -4 -20 5 -16 2 -20 -15 -20 -18 0 -19 3 -9 23 7 12 20 33 30 46 23
29 24 51 4 51 -18 0 -20 -16 -2 -23 8 -4 7 -6 -4 -6 -9 -1 -22 10 -29 24 -7
14 -17 25 -22 25 -5 0 -7 4 -4 9 6 9 50 -1 88 -20 10 -5 27 -9 37 -9 11 0 22
-4 25 -9 3 -5 20 -11 38 -14 73 -11 214 -38 228 -44 8 -3 27 -5 42 -4 14 1 43
-2 65 -8 21 -6 82 -11 136 -12 53 -1 99 -5 102 -9 14 -23 506 18 521 42 4 7
-9 8 -37 4 -57 -9 -258 -25 -334 -27 -51 -2 -123 2 -300 16 -107 9 -173 18
-190 25 -11 5 -38 11 -60 14 -22 2 -58 9 -80 15 -22 5 -67 16 -100 24 -59 14
-140 40 -180 56 -209 88 -327 157 -421 243 -53 49 -111 130 -144 203 -31 69
-39 211 -16 298 29 108 65 166 161 262 65 65 117 106 187 148 54 31 102 57
108 57 14 0 12 -32 -3 -51 -7 -8 -34 -30 -62 -48 -115 -77 -215 -196 -254
-301 -94 -255 57 -476 419 -615 25 -9 53 -21 62 -26 10 -5 27 -9 37 -9 11 0
23 -4 26 -10 3 -5 17 -10 30 -10 13 0 26 -4 29 -9 3 -5 20 -11 38 -14 18 -4
67 -13 108 -22 41 -8 100 -20 130 -26 68 -13 223 -29 229 -24 8 9 -52 25 -92
25 -44 0 -149 17 -182 30 -26 10 -131 33 -150 33 -8 0 -15 4 -15 9 0 4 -15 8
-34 8 -19 0 -38 5 -41 10 -3 6 -15 10 -26 10 -10 0 -19 5 -19 10 0 6 -11 10
-24 10 -13 0 -37 7 -52 15 -16 8 -37 15 -46 15 -10 0 -18 5 -18 10 0 6 -11 10
-24 10 -13 0 -26 4 -28 8 -1 4 -25 18 -51 30 -28 13 -45 27 -41 33 4 7 -1 9
-15 4 -13 -4 -21 -2 -21 5 0 6 -11 15 -25 22 -13 6 -22 15 -19 19 3 5 -1 9 -8
9 -18 0 -123 99 -114 107 3 4 15 -3 26 -15 11 -11 25 -24 32 -29 7 -4 18 -17
24 -27 15 -28 34 -32 34 -8 0 12 -15 32 -32 47 -30 24 -31 26 -10 23 23 -3 39
-24 63 -83 14 -34 42 -52 77 -47 29 4 23 27 -7 26 -16 0 -20 3 -15 15 3 9 9
24 11 34 3 10 15 17 32 17 26 0 26 1 -6 16 -18 9 -33 21 -33 26 0 17 30 20 46
3 9 -9 19 -13 23 -10 3 4 -2 12 -12 19 -9 7 -17 21 -17 30 0 19 -20 22 -20 4
-1 -31 -97 -68 -107 -42 -2 7 6 10 24 6 25 -5 27 -3 14 11 -7 9 -33 27 -57 39
-24 12 -44 24 -44 28 0 17 14 18 26 2 12 -15 15 -15 24 -2 5 8 11 19 13 25 2
5 15 2 29 -7 24 -16 24 -15 23 5 -1 12 -7 22 -13 22 -7 0 -12 3 -12 8 0 4 0
13 0 20 0 6 13 -3 29 -21 16 -18 43 -37 61 -43 27 -10 34 -9 54 10 12 11 31
49 41 83 10 35 22 70 26 78 3 8 11 26 17 40 5 14 17 41 25 60 8 19 25 64 37
100 13 36 27 68 33 71 10 7 1 29 -11 29 -4 0 -12 -12 -19 -27 -12 -28 -145
-373 -156 -405 -17 -49 -107 21 -107 83 0 29 42 146 130 367 11 26 11 26 74 7
28 -8 52 -11 55 -7 3 5 15 14 26 20 18 10 18 11 -10 17 -17 3 -40 11 -53 16
-13 5 -32 9 -42 9 -25 0 -25 12 2 77 14 36 27 53 39 53 10 0 20 -4 23 -9 3 -5
26 -12 51 -15 25 -4 45 -11 45 -15 0 -4 -9 -26 -20 -49 -22 -46 -25 -65 -9
-60 6 2 20 26 30 52 17 45 17 50 2 70 -14 19 -62 37 -133 50 -19 4 -40 -26
-62 -87 -16 -45 -16 -51 -1 -73 12 -19 12 -23 2 -19 -8 3 -19 1 -26 -3 -14 -9
-62 -112 -69 -152 -4 -16 -10 -30 -15 -30 -5 0 -9 -9 -9 -19 0 -11 -4 -23 -10
-26 -5 -3 -10 -15 -10 -26 0 -26 -16 -24 -23 3 -4 14 -1 26 8 31 12 6 13 12 3
30 -22 41 -40 48 -67 24 l-23 -22 6 23 c9 27 -11 30 -30 5 -7 -10 -14 -13 -14
-7 0 5 20 30 44 55 88 89 149 134 172 125 8 -3 13 -2 9 3 -3 5 4 25 16 45 19
32 19 37 6 57 -9 11 -27 27 -42 35 -35 18 -40 18 -20 -2 15 -15 14 -17 -11
-30 -26 -14 -57 -8 -34 6 7 4 9 13 5 20 -6 10 -11 9 -21 -5 -8 -10 -17 -16
-20 -12 -9 9 24 40 35 33 5 -3 15 1 22 10 8 10 21 13 36 9 14 -3 23 -1 23 6 0
6 -9 13 -20 16 -24 6 -25 16 -5 37 8 8 15 19 15 24 0 5 9 12 20 15 11 3 20 12
20 21 0 20 -14 21 -30 1 -7 -8 -18 -15 -25 -15 -7 0 -12 -6 -12 -12 0 -7 -5
-28 -12 -46 -16 -40 -54 -53 -80 -26 -26 29 -33 54 -15 54 8 0 12 5 9 10 -3 6
-1 10 5 10 6 0 8 -10 4 -25 -4 -15 -2 -25 5 -25 6 0 11 5 11 10 0 6 5 10 11
10 8 0 7 -5 -1 -15 -18 -21 -3 -32 17 -13 14 15 14 20 -6 62 -12 24 -28 47
-34 49 -9 3 -9 8 -1 17 12 12 26 4 70 -38 8 -8 14 -9 14 -3 0 6 7 11 15 11 18
0 19 12 4 27 -7 7 -7 13 0 17 5 4 15 -3 21 -14 6 -11 21 -20 33 -20 l22 0 -23
18 c-26 20 -20 32 17 32 16 0 22 3 15 10 -5 5 -24 6 -47 1 -28 -7 -37 -6 -37
4 0 7 18 15 43 18 32 5 45 2 55 -10 9 -13 12 -14 12 -2 0 8 -7 22 -15 33 -12
16 -12 20 1 33 8 9 22 12 32 8 16 -6 16 -7 -2 -21 -22 -16 -15 -30 10 -20 12
5 15 14 11 35 -5 23 -1 33 16 45 22 15 22 15 -10 15 -18 1 -33 6 -33 11 0 6
-11 10 -24 10 -14 0 -28 5 -31 10 -3 6 -19 10 -36 10 -16 0 -38 5 -49 10 -11
6 -29 15 -40 20 -11 6 -31 10 -45 10 -14 0 -25 5 -25 10 0 6 -11 10 -25 10
-14 0 -33 4 -43 9 -9 5 -46 17 -81 26 -36 10 -71 19 -78 22 -7 3 -16 -3 -19
-13z m346 -144 c0 -5 -2 -10 -4 -10 -3 0 -8 5 -11 10 -3 6 -1 10 4 10 6 0 11
-4 11 -10z m150 -9 c0 -18 -18 -21 -30 -6 -10 13 -9 15 9 15 11 0 21 -4 21 -9z
m-110 -41 c-12 -22 -31 -23 -38 -2 -2 7 5 12 17 12 15 0 19 5 14 18 -5 13 -3
14 6 6 10 -9 10 -17 1 -34z m50 30 c0 -5 7 -10 15 -10 21 0 19 -15 -8 -46 -33
-37 -56 -28 -26 11 16 19 19 30 11 33 -14 4 -16 22 -2 22 6 0 10 -4 10 -10z
m-62 -72 c-3 -7 -15 -14 -29 -16 -24 -4 -24 -3 -4 12 24 19 38 20 33 4z m-28
-63 c0 -17 -2 -18 -24 -9 -23 9 -20 24 4 24 11 0 20 -7 20 -15z m-130 -84 c0
-5 -7 -11 -15 -15 -15 -5 -20 5 -8 17 9 10 23 9 23 -2z m14 -72 c-6 -11 -34
15 -34 32 0 8 7 6 20 -6 11 -10 17 -22 14 -26z m-24 -29 c0 -5 -5 -10 -11 -10
-5 0 -7 5 -4 10 3 6 8 10 11 10 2 0 4 -4 4 -10z m20 -38 c0 -13 -39 -46 -46
-39 -9 9 16 47 31 47 8 0 15 -4 15 -8z m13 -59 c-3 -18 -11 -33 -18 -33 -7 0
-15 -6 -18 -12 -3 -10 -9 -10 -23 -2 -30 18 -29 35 2 32 23 -2 31 3 42 25 17
35 21 32 15 -10z m47 2 c-14 -17 -40 -20 -40 -5 0 11 42 31 49 24 2 -2 -2 -10
-9 -19z m-180 -5 c0 -5 -2 -10 -4 -10 -3 0 -8 5 -11 10 -3 6 -1 10 4 10 6 0
11 -4 11 -10z m-20 -40 c0 -5 -2 -10 -4 -10 -3 0 -8 5 -11 10 -3 6 -1 10 4 10
6 0 11 -4 11 -10z m78 -32 c-8 -7 -24 -22 -38 -33 l-23 -20 23 33 c13 17 30
32 38 32 11 0 11 -2 0 -12z m-78 -56 c0 -5 -11 -19 -25 -32 -14 -13 -25 -18
-25 -12 0 7 4 12 9 12 5 0 11 9 14 20 5 19 27 29 27 12z m-70 -82 c0 -5 -10
-15 -22 -21 -23 -12 -23 -12 -4 10 21 23 26 26 26 11z m270 -65 c17 -21 7 -29
-18 -16 -17 9 -22 8 -27 -9 -6 -20 -16 -25 -27 -14 -8 7 33 52 48 53 6 1 17
-6 24 -14z m-320 -5 c0 -5 -5 -10 -11 -10 -5 0 -7 5 -4 10 3 6 8 10 11 10 2 0
4 -4 4 -10z m197 -12 c-3 -8 -6 -5 -6 6 -1 11 2 17 5 13 3 -3 4 -12 1 -19z
m-22 -66 c-12 -13 -24 22 -12 37 10 12 13 11 15 -8 2 -13 1 -26 -3 -29z m60
38 c3 -5 1 -10 -4 -10 -6 0 -11 5 -11 10 0 6 2 10 4 10 3 0 8 -4 11 -10z m65
2 c0 -13 -23 -32 -39 -32 -11 0 -10 4 4 20 19 21 35 26 35 12z m24 -94 c-8
-22 -14 -58 -14 -79 0 -30 -3 -37 -15 -33 -17 7 -21 -11 -4 -22 8 -4 8 -9 0
-17 -8 -8 -14 -8 -23 1 -7 7 -19 12 -27 12 -9 0 -27 12 -40 25 -28 30 -19 32
20 4 24 -17 33 -18 44 -9 22 18 18 30 -11 30 l-25 0 27 25 c15 14 31 25 35 25
16 0 9 31 -8 37 -19 7 -42 33 -43 47 0 5 8 2 18 -7 24 -22 32 -21 33 1 1 16 2
16 6 -1 2 -9 8 -15 13 -12 5 3 6 13 3 23 -6 15 -4 15 9 4 15 -12 15 -18 2 -54z
m-94 27 c0 -9 -6 -12 -15 -9 -8 4 -15 2 -15 -4 0 -6 6 -12 13 -15 6 -2 8 -8 4
-13 -4 -5 -12 -2 -17 5 -4 8 -15 11 -25 7 -26 -10 -13 17 16 31 31 16 39 16
39 -2z m-92 -45 c-14 -22 -24 -19 -15 5 4 8 11 15 17 15 6 0 6 -7 -2 -20z
m122 -9 c0 -5 -7 -11 -15 -15 -9 -3 -15 0 -15 9 0 8 7 15 15 15 8 0 15 -4 15
-9z m-60 -21 c0 -5 -4 -10 -10 -10 -5 0 -10 5 -10 10 0 6 5 10 10 10 6 0 10
-4 10 -10z m-73 -32 c-3 -8 -6 -5 -6 6 -1 11 2 17 5 13 3 -3 4 -12 1 -19z m2
-70 c-1 -39 -2 -41 -8 -13 -4 17 -5 36 -3 43 8 23 12 12 11 -30z m78 -28 c-12
-10 -24 -16 -27 -13 -3 3 0 8 7 10 7 2 10 10 7 18 -4 10 0 12 15 8 20 -5 20
-5 -2 -23z m-53 -36 c3 -9 6 -25 6 -37 0 -20 0 -20 -15 -1 -16 21 -20 54 -6
54 5 0 12 -7 15 -16z m116 -44 c0 -5 -4 -10 -10 -10 -5 0 -10 5 -10 10 0 6 5
10 10 10 6 0 10 -4 10 -10z m-320 -34 c0 -3 -4 -8 -10 -11 -5 -3 -10 -1 -10 4
0 6 5 11 10 11 6 0 10 -2 10 -4z m410 -60 c0 -16 -24 -38 -33 -30 -8 9 11 44
23 44 6 0 10 -6 10 -14z m-260 -186 c0 -5 -2 -10 -4 -10 -3 0 -8 5 -11 10 -3
6 -1 10 4 10 6 0 11 -4 11 -10z m75 -60 c3 -6 -1 -7 -9 -4 -18 7 -21 14 -7 14
6 0 13 -4 16 -10z m35 -30 c0 -5 -2 -10 -4 -10 -3 0 -8 5 -11 10 -3 6 -1 10 4
10 6 0 11 -4 11 -10z m114 -81 c-5 -9 -74 31 -74 43 0 4 18 -3 40 -14 21 -12
37 -25 34 -29z m44 -8 c9 -5 43 -21 75 -36 32 -15 56 -29 53 -32 -7 -7 -78 17
-96 32 -8 7 -24 15 -34 16 -11 2 -21 10 -24 17 -4 14 2 15 26 3z m7 -61 c3 -5
1 -10 -4 -10 -6 0 -11 5 -11 10 0 6 2 10 4 10 3 0 8 -4 11 -10z m165 -20 c0
-5 -7 -10 -15 -10 -8 0 -15 5 -15 10 0 6 7 10 15 10 8 0 15 -4 15 -10z m-100
-10 c0 -5 -4 -10 -10 -10 -5 0 -10 5 -10 10 0 6 5 10 10 10 6 0 10 -4 10 -10z
m71 -11 c17 -8 18 -13 8 -25 -9 -11 -9 -18 -1 -26 8 -8 13 -7 18 5 7 20 24 23
24 5 0 -7 -11 -18 -25 -25 -22 -10 -27 -8 -35 7 -7 13 -7 21 1 26 8 4 4 13
-12 25 -26 20 -10 26 22 8z m-331 -59 c0 -5 -2 -10 -4 -10 -3 0 -8 5 -11 10
-3 6 -1 10 4 10 6 0 11 -4 11 -10z m81 -30 c15 -8 18 -17 13 -38 -9 -33 -20
-41 -48 -34 -38 9 -45 21 -34 53 11 31 34 37 69 19z m299 -10 c0 -5 -7 -10
-15 -10 -8 0 -15 5 -15 10 0 6 7 10 15 10 8 0 15 -4 15 -10z m-225 -10 c3 -5
1 -10 -4 -10 -6 0 -11 5 -11 10 0 6 2 10 4 10 3 0 8 -4 11 -10z m2235 -46 c0
-8 -5 -12 -10 -9 -6 4 -8 11 -5 16 9 14 15 11 15 -7z m-2017 -20 c6 -6 -16
-34 -26 -34 -3 0 -3 9 0 20 5 20 15 25 26 14z m-314 -20 c4 -3 -29 -104 -51
-154 -6 -14 -14 -34 -18 -45 -35 -89 -33 -87 -64 -81 -16 4 -32 9 -35 11 -6 7
33 124 60 177 5 10 9 22 9 27 0 5 7 25 15 45 15 35 18 37 48 31 18 -4 34 -9
36 -11z m441 -4 c0 -5 -7 -10 -15 -10 -8 0 -15 5 -15 10 0 6 7 10 15 10 8 0
15 -4 15 -10z m90 1 c0 -5 -7 -12 -16 -15 -8 -3 -14 -14 -12 -23 1 -10 -1 -20
-6 -23 -14 -8 -18 41 -5 56 13 16 39 19 39 5z m-291 -15 c7 -8 8 -17 3 -20 -6
-3 -15 1 -22 10 -7 8 -19 13 -26 10 -7 -3 -16 -1 -19 4 -10 16 51 11 64 -4z
m131 -6 c0 -5 -4 -10 -10 -10 -5 0 -10 5 -10 10 0 6 5 10 10 10 6 0 10 -4 10
-10z m1934 -9 c6 -9 -35 -24 -43 -15 -6 5 18 24 31 24 4 0 9 -4 12 -9z m-2111
-20 c48 -21 77 -53 77 -86 0 -12 -16 -60 -35 -108 -19 -48 -35 -93 -35 -101 0
-20 -35 -29 -60 -16 -22 12 -25 30 -11 58 6 9 22 50 37 91 l28 73 -23 19 c-49
40 -63 28 -106 -87 -22 -58 -42 -107 -45 -109 -12 -7 -62 9 -67 21 -4 11 43
144 82 232 14 30 18 32 64 32 27 0 69 -9 94 -19z m220 -2 c3 -13 1 -19 -6 -16
-15 5 -22 37 -9 37 5 0 12 -9 15 -21z m34 -1 c-3 -8 -6 -5 -6 6 -1 11 2 17 5
13 3 -3 4 -12 1 -19z m-147 -18 c0 -5 -4 -10 -10 -10 -5 0 -10 5 -10 10 0 6 5
10 10 10 6 0 10 -4 10 -10z m40 -10 c0 -5 -4 -10 -10 -10 -5 0 -10 5 -10 10 0
6 5 10 10 10 6 0 10 -4 10 -10z m1870 -19 c0 -16 -14 -20 -27 -10 -19 17 -16
28 7 22 11 -3 20 -9 20 -12z m28 -16 c-3 -3 -9 2 -12 12 -6 14 -5 15 5 6 7 -7
10 -15 7 -18z m-1918 11 c0 -3 -4 -8 -10 -11 -5 -3 -10 -1 -10 4 0 6 5 11 10
11 6 0 10 -2 10 -4z m172 -38 c38 -22 43 -32 32 -62 -8 -21 -22 -20 -69 4 -39
20 -75 26 -75 13 0 -4 17 -27 38 -52 59 -70 65 -85 48 -124 -9 -22 -27 -40
-51 -51 -32 -16 -43 -16 -82 -6 -76 22 -109 60 -84 99 7 11 19 9 65 -13 31
-15 61 -24 66 -21 15 9 12 31 -7 46 -33 28 -73 93 -73 119 0 26 29 61 60 73
25 10 92 -3 132 -25z m-356 -25 c-11 -11 -17 4 -9 23 7 18 8 18 11 1 2 -10 1
-21 -2 -24z m834 -8 c10 -12 10 -21 2 -38 -14 -30 -37 -93 -62 -169 -22 -68
-35 -99 -56 -138 -12 -22 -19 -25 -66 -23 -99 5 -158 49 -158 121 0 49 31 122
67 158 31 31 39 34 93 34 32 0 62 -4 65 -10 12 -19 21 -10 34 35 12 39 17 45
41 45 15 0 33 -7 40 -15z m-325 -9 c17 -12 18 -17 7 -41 -7 -15 -22 -55 -33
-88 -20 -63 -66 -167 -72 -167 -15 0 -67 24 -67 31 0 8 9 33 40 104 9 22 25
65 34 95 10 30 19 61 21 68 6 16 47 15 70 -2z m1395 -21 c14 -19 14 -19 -2 -6
-10 7 -18 18 -18 24 0 6 1 8 3 6 1 -2 9 -13 17 -24z m50 21 c0 -3 -4 -8 -10
-11 -5 -3 -10 -1 -10 4 0 6 5 11 10 11 6 0 10 -2 10 -4z m-79 -43 c12 -15 12
-16 -3 -10 -10 3 -18 2 -18 -3 0 -6 -9 -10 -19 -10 -11 0 -23 -5 -26 -10 -4
-6 -11 -7 -17 -4 -7 4 -4 10 6 16 9 5 13 14 10 20 -5 7 2 9 20 4 15 -4 26 -2
26 4 0 14 6 13 21 -7z m156 -9 c-3 -3 -12 -4 -19 -1 -8 3 -5 6 6 6 11 1 17 -2
13 -5z m-799 -54 c2 0 1 -11 -2 -25 -8 -30 9 -33 26 -5 13 21 33 26 42 11 9
-14 -26 -91 -41 -91 -7 0 -13 5 -13 10 0 6 -11 8 -26 4 -25 -6 -26 -6 -14 17
13 24 13 24 -9 5 -28 -25 -38 -14 -17 19 10 15 16 34 14 43 -3 12 -12 4 -33
-28 -27 -40 -30 -43 -33 -22 -2 13 2 30 9 38 10 12 9 17 -6 28 -36 26 -7 35
47 15 29 -10 54 -19 56 -19z m665 25 c-3 -9 -8 -14 -10 -11 -3 3 -2 9 2 15 9
16 15 13 8 -4z m67 6 c0 -5 -7 -11 -14 -14 -10 -4 -13 -1 -9 9 6 15 23 19 23
5z m-402 -25 c-8 -6 -19 -20 -26 -31 -9 -18 -11 -18 -17 -4 -4 11 -14 15 -26
12 -14 -4 -19 0 -19 16 0 19 4 21 34 16 20 -4 36 -2 41 4 3 6 11 8 17 5 7 -5
6 -11 -4 -18z m42 -28 c18 -23 18 -38 -1 -38 -5 0 -9 7 -9 15 0 8 -7 15 -15
15 -8 0 -15 7 -15 15 0 22 19 18 40 -7z m200 12 c0 -5 -4 -10 -9 -10 -6 0 -13
5 -16 10 -3 6 1 10 9 10 9 0 16 -4 16 -10z m117 4 c-3 -3 -12 -4 -19 -1 -8 3
-5 6 6 6 11 1 17 -2 13 -5z m-910 -34 c45 -27 67 -73 59 -123 -11 -67 -22 -79
-64 -71 -20 3 -41 10 -46 15 -6 5 -18 9 -28 9 -10 0 -27 6 -38 12 -28 18 -43
0 -27 -32 14 -27 42 -38 104 -39 50 -1 59 -12 37 -46 -13 -20 -24 -25 -60 -25
-52 0 -130 34 -145 63 -6 11 -15 33 -20 49 -15 55 48 174 106 198 35 15 89 11
122 -10z m713 -5 c0 -8 -7 -15 -15 -15 -8 0 -15 7 -15 15 0 8 7 15 15 15 8 0
15 -7 15 -15z m-214 -22 c-10 -10 -19 5 -10 18 6 11 8 11 12 0 2 -7 1 -15 -2
-18z m54 -24 c0 -5 7 -9 15 -9 8 0 15 -7 15 -17 0 -15 -1 -15 -18 0 -22 20
-59 22 -65 5 -3 -10 -7 -10 -19 -1 -8 7 -18 10 -21 7 -8 -9 -57 4 -57 15 0 5
22 7 49 5 27 -3 52 -1 55 5 7 11 46 3 46 -10z m-177 4 c4 -3 -2 -13 -14 -21
-24 -17 -37 -9 -19 13 14 16 23 19 33 8z m279 -7 c7 4 3 -3 -9 -15 -28 -27
-30 -26 -30 4 0 20 2 23 13 14 7 -6 19 -7 26 -3z m103 4 c-3 -5 -10 -10 -16
-10 -5 0 -9 5 -9 10 0 6 7 10 16 10 8 0 12 -4 9 -10z m-658 -32 c-3 -8 -6 -5
-6 6 -1 11 2 17 5 13 3 -3 4 -12 1 -19z m53 12 c0 -5 -4 -10 -9 -10 -5 0 -12
-8 -14 -17 -3 -11 -5 -7 -6 10 -1 18 4 27 14 27 8 0 15 -4 15 -10z m159 -28
c-5 -2 -17 -1 -25 2 -13 5 -14 9 -4 21 11 13 14 13 26 -2 7 -10 9 -19 3 -21z
m-136 -8 c-3 -9 0 -20 8 -24 7 -5 11 -12 7 -15 -3 -4 -15 1 -26 11 -16 14 -18
21 -9 35 13 21 29 15 20 -7z m373 -1 c-8 -8 -36 5 -36 17 0 7 6 7 21 0 11 -7
18 -14 15 -17z m-326 2 c0 -8 6 -15 13 -15 14 0 47 -35 47 -50 0 -6 -18 7 -40
27 -40 38 -49 53 -30 53 6 0 10 -7 10 -15z m178 -5 c-7 -11 -17 -20 -22 -20
-5 0 -1 9 9 20 10 11 20 20 22 20 2 0 -2 -9 -9 -20z m307 10 c3 -5 1 -10 -4
-10 -6 0 -11 5 -11 10 0 6 2 10 4 10 3 0 8 -4 11 -10z m62 -6 c-3 -3 -12 -4
-19 -1 -8 3 -5 6 6 6 11 1 17 -2 13 -5z m-147 -19 c7 -9 8 -15 2 -15 -5 0 -12
7 -16 15 -3 8 -4 15 -2 15 2 0 9 -7 16 -15z m-516 -10 c-4 -8 -8 -15 -10 -15
-2 0 -4 7 -4 15 0 8 4 15 10 15 5 0 7 -7 4 -15z m218 -17 c-7 -7 -10 -5 -7 8
5 29 6 30 12 16 3 -8 1 -18 -5 -24z m108 2 c0 -5 -2 -10 -4 -10 -3 0 -8 5 -11
10 -3 6 -1 10 4 10 6 0 11 -4 11 -10z m265 1 c3 -5 1 -12 -5 -16 -5 -3 -10 1
-10 9 0 18 6 21 15 7z m-535 -22 c0 -6 -4 -7 -10 -4 -5 3 -10 11 -10 16 0 6 5
7 10 4 6 -3 10 -11 10 -16z m70 -2 c0 -2 -10 -12 -21 -23 -22 -19 -22 -19 -10
4 10 18 31 31 31 19z m-1779 -52 c20 -14 40 -29 44 -34 5 -8 -7 -43 -20 -59
-1 -1 -22 9 -46 23 -51 29 -99 32 -122 8 -20 -24 -77 -167 -77 -197 0 -36 31
-57 91 -61 61 -4 73 -21 40 -54 -40 -40 -135 -19 -185 39 -20 25 -26 42 -26
80 0 27 5 62 11 77 27 66 33 80 47 109 23 47 34 60 77 83 49 27 109 21 166
-14z m1863 13 c-3 -5 -12 -4 -20 3 -19 16 -18 18 6 12 11 -3 17 -9 14 -15z
m176 12 c0 -5 -2 -10 -4 -10 -3 0 -8 5 -11 10 -3 6 -1 10 4 10 6 0 11 -4 11
-10z m-955 -30 c3 -5 1 -10 -4 -10 -6 0 -11 5 -11 10 0 6 2 10 4 10 3 0 8 -4
11 -10z m214 -4 c10 -12 8 -13 -8 -9 -12 3 -21 9 -21 14 0 14 16 11 29 -5z
m-172 -12 c-3 -3 -12 -4 -19 -1 -8 3 -5 6 6 6 11 1 17 -2 13 -5z m-870 -46
c46 -21 83 -59 94 -98 10 -32 8 -47 -15 -111 -37 -104 -57 -139 -98 -172 -31
-25 -45 -29 -97 -29 -52 0 -67 4 -97 27 -38 29 -64 78 -64 119 0 47 67 201
100 231 49 44 121 58 177 33z m1246 -45 c-7 -2 -21 -2 -30 0 -10 3 -4 5 12 5
17 0 24 -2 18 -5z m-908 -58 c74 -25 105 -59 105 -112 0 -24 -7 -57 -15 -73
-16 -32 -65 -70 -89 -70 -13 0 -15 -9 -10 -47 3 -27 10 -68 15 -92 11 -48 0
-67 -30 -51 -9 5 -23 11 -32 14 -16 4 -21 23 -35 129 -5 38 -12 51 -31 60 -29
13 -34 8 -57 -63 -24 -70 -31 -78 -61 -72 -39 7 -49 26 -32 64 8 18 27 67 42
108 15 41 30 84 35 95 5 11 16 42 26 69 10 26 23 54 30 61 15 14 59 8 139 -20z
m371 -107 c67 -23 77 -37 50 -73 -13 -18 -15 -18 -80 3 -37 11 -73 19 -80 16
-11 -4 -46 -65 -46 -79 0 -2 34 -14 75 -27 63 -19 75 -26 75 -44 0 -42 -23
-48 -101 -24 -39 11 -72 20 -73 18 -26 -42 -34 -106 -13 -112 144 -42 145 -43
125 -76 -10 -16 -20 -20 -43 -17 -104 17 -166 49 -179 95 -8 30 0 67 34 147 5
11 18 47 30 80 30 84 62 115 118 115 24 0 73 -10 108 -22z m163 -38 c11 0 11
-3 -2 -18 -8 -9 -20 -29 -26 -45 -6 -15 -18 -27 -27 -27 -12 0 -14 5 -8 18 4
9 8 32 8 50 -1 29 2 33 20 28 12 -3 27 -6 35 -6z m47 -45 c-8 -30 9 -33 24 -5
6 11 18 20 26 20 13 0 14 -8 9 -42 -7 -40 -18 -57 -38 -58 -5 0 -5 10 -1 22 6
21 5 21 -10 9 -15 -12 -19 -13 -26 -1 -7 11 -12 11 -23 2 -23 -19 -26 -4 -8
39 10 25 22 39 35 39 14 0 17 -5 12 -25z m217 -34 c10 -10 3 -46 -13 -71 -8
-12 -13 -13 -30 -2 -11 6 -27 12 -35 12 -18 0 -19 20 -3 55 10 23 16 26 42 21
17 -4 34 -10 39 -15z m196 -70 c31 -10 67 -22 81 -25 45 -11 52 -20 39 -49
-15 -32 -36 -34 -110 -9 -60 21 -79 19 -79 -7 0 -9 -5 -22 -12 -29 -15 -15 -4
-26 44 -41 45 -15 98 -72 98 -106 0 -37 -37 -107 -68 -130 -43 -32 -144 -27
-199 10 -43 27 -51 47 -34 74 8 13 18 11 63 -12 73 -37 103 -36 128 6 37 59
20 85 -70 113 -30 10 -58 20 -63 24 -4 3 13 50 38 103 52 109 52 109 144 78z
m-255 -31 c27 -10 32 -28 17 -58 -17 -33 -30 -68 -61 -157 -17 -49 -35 -94
-40 -99 -9 -9 -70 11 -70 24 0 4 14 45 31 91 17 46 37 104 46 129 29 84 32 87
77 70z"/>
<path d="M4927 4732 c-19 -21 -47 -95 -47 -124 0 -12 12 -24 35 -34 44 -18 41
-19 55 19 18 49 29 75 42 102 14 30 6 40 -38 49 -22 5 -34 2 -47 -12z m43 -31
c0 -5 -7 -11 -15 -15 -9 -3 -15 0 -15 9 0 8 7 15 15 15 8 0 15 -4 15 -9z m-25
-72 c8 -23 1 -34 -14 -24 -13 8 -15 45 -2 45 5 0 13 -9 16 -21z"/>
<path d="M5218 4649 c-25 -14 -23 -39 3 -39 11 0 30 -5 41 -11 31 -17 45 4 24
35 -17 27 -39 32 -68 15z"/>
<path d="M3918 4337 c-29 -27 -81 -150 -80 -190 1 -38 17 -55 58 -63 43 -8 76
13 93 58 19 49 32 81 42 100 5 10 9 31 9 48 0 23 -7 35 -32 50 -42 26 -60 25
-90 -3z"/>
<path d="M4273 4243 c-3 -10 -12 -33 -20 -52 -16 -40 -10 -46 50 -56 40 -7 60
2 78 37 15 29 1 58 -37 74 -44 19 -63 18 -71 -3z"/>
<path d="M5040 7033 c8 -3 21 -10 28 -16 7 -5 15 -7 19 -3 10 9 0 15 -33 20
-16 2 -22 1 -14 -1z"/>
<path d="M4917 6993 c-4 -3 -7 -15 -7 -26 0 -16 3 -17 15 -7 8 7 15 19 15 26
0 15 -12 19 -23 7z"/>
<path d="M4835 6949 c-10 -15 1 -23 20 -15 9 3 13 10 10 16 -8 13 -22 13 -30
-1z"/>
<path d="M4715 6900 c4 -6 11 -8 16 -5 14 9 11 15 -7 15 -8 0 -12 -5 -9 -10z"/>
<path d="M4545 6888 c-11 -6 -21 -12 -23 -14 -8 -6 31 -53 40 -48 6 4 4 10 -6
16 -20 11 -22 42 -1 35 8 -4 17 -2 20 3 9 14 -9 19 -30 8z"/>
<path d="M4624 6881 c5 -8 56 -3 56 5 0 2 -14 4 -31 4 -16 0 -28 -4 -25 -9z"/>
<path d="M4580 6860 c0 -5 5 -10 10 -10 6 0 10 5 10 10 0 6 -4 10 -10 10 -5 0
-10 -4 -10 -10z"/>
<path d="M4490 6810 c0 -5 7 -10 15 -10 8 0 15 5 15 10 0 6 -7 10 -15 10 -8 0
-15 -4 -15 -10z"/>
<path d="M4480 6770 c0 -5 5 -10 11 -10 5 0 7 5 4 10 -3 6 -8 10 -11 10 -2 0
-4 -4 -4 -10z"/>
<path d="M7090 6760 c0 -5 5 -10 10 -10 6 0 10 5 10 10 0 6 -4 10 -10 10 -5 0
-10 -4 -10 -10z"/>
<path d="M7081 6704 c0 -11 3 -14 6 -6 3 7 2 16 -1 19 -3 4 -6 -2 -5 -13z"/>
<path d="M4270 6684 c0 -3 7 -12 15 -21 20 -19 32 -9 15 12 -12 15 -30 20 -30
9z"/>
<path d="M4998 6663 c-21 -2 -38 -9 -38 -15 0 -6 12 -8 31 -4 17 3 87 6 156 6
68 0 122 4 119 9 -5 8 -200 11 -268 4z"/>
<path d="M4390 6646 c0 -9 5 -16 10 -16 6 0 10 4 10 9 0 6 -4 13 -10 16 -5 3
-10 -1 -10 -9z"/>
<path d="M7050 6650 c0 -5 5 -10 10 -10 6 0 10 5 10 10 0 6 -4 10 -10 10 -5 0
-10 -4 -10 -10z"/>
<path d="M4840 6641 c-8 -5 -44 -11 -80 -15 -40 -4 -69 -12 -76 -21 -6 -8 -16
-15 -22 -15 -10 0 -26 -49 -18 -57 2 -3 11 9 20 25 11 20 25 32 48 36 18 4 56
11 83 17 28 6 74 13 103 16 28 3 50 9 46 14 -7 11 -84 11 -104 0z"/>
<path d="M5330 6640 c17 -11 107 -14 97 -3 -4 3 -31 8 -59 9 -35 2 -47 0 -38
-6z"/>
<path d="M4360 6621 c0 -6 5 -13 10 -16 6 -3 10 1 10 9 0 9 -4 16 -10 16 -5 0
-10 -4 -10 -9z"/>
<path d="M5497 6619 c8 -8 16 -8 30 0 16 9 14 10 -11 11 -22 0 -27 -3 -19 -11z"/>
<path d="M5555 6620 c3 -5 8 -10 11 -10 2 0 4 5 4 10 0 6 -5 10 -11 10 -5 0
-7 -4 -4 -10z"/>
<path d="M7035 6590 c3 -5 8 -10 11 -10 2 0 4 5 4 10 0 6 -5 10 -11 10 -5 0
-7 -4 -4 -10z"/>
<path d="M5708 6583 c6 -2 18 -2 25 0 6 3 1 5 -13 5 -14 0 -19 -2 -12 -5z"/>
<path d="M4930 6560 c-11 -7 -7 -10 18 -10 17 0 32 5 32 10 0 13 -30 13 -50 0z"/>
<path d="M4990 6560 c0 -6 26 -10 60 -9 33 1 60 6 60 10 0 5 -27 9 -60 9 -34
0 -60 -4 -60 -10z"/>
<path d="M5130 6560 c0 -5 6 -10 14 -10 8 0 18 5 21 10 3 6 -3 10 -14 10 -12
0 -21 -4 -21 -10z"/>
<path d="M5185 6560 c3 -5 10 -10 16 -10 5 0 9 5 9 10 0 6 -7 10 -16 10 -8 0
-12 -4 -9 -10z"/>
<path d="M4380 6551 c0 -6 4 -13 10 -16 6 -3 7 1 4 9 -7 18 -14 21 -14 7z"/>
<path d="M7016 6551 c-4 -5 -2 -12 3 -15 5 -4 12 -2 15 3 4 5 2 12 -3 15 -5 4
-12 2 -15 -3z"/>
<path d="M4730 6540 c0 -12 97 -12 125 0 14 6 -3 9 -52 9 -43 1 -73 -3 -73 -9z"/>
<path d="M5395 6540 c4 -6 11 -8 16 -5 14 9 11 15 -7 15 -8 0 -12 -5 -9 -10z"/>
<path d="M4670 6520 c0 -5 9 -10 19 -10 11 0 23 5 26 10 4 6 -5 10 -19 10 -14
0 -26 -4 -26 -10z"/>
<path d="M5508 6523 c7 -3 16 -2 19 1 4 3 -2 6 -13 5 -11 0 -14 -3 -6 -6z"/>
<path d="M5618 6503 c7 -3 16 -2 19 1 4 3 -2 6 -13 5 -11 0 -14 -3 -6 -6z"/>
<path d="M5680 6490 c0 -5 5 -10 11 -10 5 0 7 5 4 10 -3 6 -8 10 -11 10 -2 0
-4 -4 -4 -10z"/>
<path d="M7000 6489 c0 -5 5 -7 10 -4 6 3 10 8 10 11 0 2 -4 4 -10 4 -5 0 -10
-5 -10 -11z"/>
<path d="M5745 6470 c3 -5 8 -10 11 -10 2 0 4 5 4 10 0 6 -5 10 -11 10 -5 0
-7 -4 -4 -10z"/>
<path d="M6980 6440 c0 -5 5 -10 10 -10 6 0 10 5 10 10 0 6 -4 10 -10 10 -5 0
-10 -4 -10 -10z"/>
<path d="M5948 6393 c7 -3 16 -2 19 1 4 3 -2 6 -13 5 -11 0 -14 -3 -6 -6z"/>
<path d="M6960 6390 c0 -5 5 -10 10 -10 6 0 10 5 10 10 0 6 -4 10 -10 10 -5 0
-10 -4 -10 -10z"/>
<path d="M4310 6355 c0 -8 4 -15 9 -15 5 0 14 7 21 15 10 13 9 15 -9 15 -12 0
-21 -6 -21 -15z"/>
<path d="M6951 6334 c0 -11 3 -14 6 -6 3 7 2 16 -1 19 -3 4 -6 -2 -5 -13z"/>
<path d="M4621 6304 c-17 -14 -31 -34 -31 -44 0 -10 -4 -22 -10 -25 -5 -3 -10
-14 -10 -23 0 -9 -7 -30 -15 -46 -8 -15 -15 -37 -15 -47 0 -10 -4 -21 -10 -24
-5 -3 -10 -15 -10 -26 0 -10 -4 -19 -10 -19 -5 0 -10 -9 -10 -19 0 -11 -4 -23
-10 -26 -5 -3 -10 -17 -10 -31 0 -13 -4 -24 -8 -24 -4 0 -13 -19 -20 -42 -7
-24 -15 -49 -18 -55 -3 -7 -1 -13 6 -13 12 0 55 89 83 170 9 25 34 92 56 150
23 58 41 110 41 116 0 6 6 16 13 22 12 10 62 -1 260 -60 21 -7 53 -28 72 -50
19 -21 35 -32 35 -26 -1 32 -67 84 -124 98 -75 19 -181 51 -198 61 -24 12 -22
13 -57 -17z"/>
<path d="M4231 6293 c-12 -16 -19 -22 -15 -14 5 9 3 12 -4 7 -14 -9 -16 -46
-3 -46 6 0 13 5 16 10 4 6 11 8 17 4 5 -4 8 2 6 13 -2 11 3 27 11 36 7 10 9
17 4 17 -5 0 -19 -12 -32 -27z"/>
<path d="M4276 6294 c-8 -21 -4 -25 14 -14 11 7 12 12 4 20 -8 8 -13 7 -18 -6z"/>
<path d="M6130 6296 c0 -2 8 -10 18 -17 15 -13 16 -12 3 4 -13 16 -21 21 -21
13z"/>
<path d="M6931 6284 c0 -11 3 -14 6 -6 3 7 2 16 -1 19 -3 4 -6 -2 -5 -13z"/>
<path d="M5125 6249 c-6 -19 0 -38 9 -28 10 12 16 49 7 49 -5 0 -13 -9 -16
-21z"/>
<path d="M4271 6224 c0 -11 3 -14 6 -6 3 7 2 16 -1 19 -3 4 -6 -2 -5 -13z"/>
<path d="M6910 6229 c0 -5 5 -7 10 -4 6 3 10 8 10 11 0 2 -4 4 -10 4 -5 0 -10
-5 -10 -11z"/>
<path d="M5101 6172 c-7 -20 -21 -56 -32 -79 -10 -24 -19 -50 -19 -58 0 -8 -4
-15 -10 -15 -5 0 -10 -10 -10 -23 0 -13 -4 -27 -8 -32 -5 -6 -17 -37 -27 -70
-11 -33 -23 -65 -27 -71 -4 -6 -5 -14 -1 -17 9 -9 29 34 59 122 14 42 30 87
36 101 6 14 14 34 18 45 4 11 17 44 28 72 12 29 17 55 13 57 -4 3 -13 -12 -20
-32z"/>
<path d="M5281 6194 c0 -11 3 -14 6 -6 3 7 2 16 -1 19 -3 4 -6 -2 -5 -13z"/>
<path d="M6897 6194 c-4 -4 -7 -14 -7 -23 0 -11 3 -12 11 -4 6 6 10 16 7 23
-2 6 -7 8 -11 4z"/>
<path d="M4723 6143 c-26 -73 -106 -281 -114 -295 -12 -24 -11 -40 2 -36 11 4
20 26 55 128 8 25 24 64 35 87 10 24 19 49 19 56 0 7 6 21 13 31 12 16 20 17
53 9 34 -8 39 -13 39 -37 1 -16 -9 -50 -22 -75 -12 -25 -23 -52 -23 -59 0 -15
-32 -92 -57 -135 -14 -27 -14 -30 1 -45 16 -16 17 -16 10 1 -3 9 -2 23 4 30
14 18 72 169 72 190 0 9 4 17 8 17 10 0 35 85 30 100 -3 9 -93 47 -116 50 -1
0 -5 -8 -9 -17z"/>
<path d="M5260 6145 c0 -9 9 -15 21 -15 18 0 19 2 5 15 -8 8 -17 15 -20 15 -3
0 -6 -7 -6 -15z"/>
<path d="M6440 6130 c0 -5 5 -10 11 -10 5 0 7 5 4 10 -3 6 -8 10 -11 10 -2 0
-4 -4 -4 -10z"/>
<path d="M6870 6125 c0 -8 5 -15 10 -15 6 0 10 7 10 15 0 8 -4 15 -10 15 -5 0
-10 -7 -10 -15z"/>
<path d="M5000 6116 c0 -9 5 -16 10 -16 6 0 10 4 10 9 0 6 -4 13 -10 16 -5 3
-10 -1 -10 -9z"/>
<path d="M6856 6081 c-4 -7 -5 -15 -2 -18 9 -9 19 4 14 18 -4 11 -6 11 -12 0z"/>
<path d="M4995 6062 c-10 -25 -64 -167 -91 -241 -27 -71 -28 -81 -14 -81 6 0
10 5 10 11 0 6 6 25 14 42 7 18 23 57 34 87 11 30 31 85 45 122 14 38 22 70
17 73 -4 3 -11 -3 -15 -13z"/>
<path d="M5330 6065 c0 -8 5 -15 10 -15 6 0 10 7 10 15 0 8 -4 15 -10 15 -5 0
-10 -7 -10 -15z"/>
<path d="M6060 6070 c0 -5 5 -10 11 -10 5 0 7 5 4 10 -3 6 -8 10 -11 10 -2 0
-4 -4 -4 -10z"/>
<path d="M5455 6060 c-18 -8 -17 -9 8 -9 16 -1 26 3 22 9 -3 6 -7 10 -8 9 -1
0 -11 -4 -22 -9z"/>
<path d="M5578 6053 c6 -2 18 -2 25 0 6 3 1 5 -13 5 -14 0 -19 -2 -12 -5z"/>
<path d="M5378 6022 c-34 -25 -88 -83 -88 -95 0 -3 24 19 54 49 30 30 62 54
70 54 9 0 16 5 16 10 0 16 -12 11 -52 -18z"/>
<path d="M5635 6034 c11 -8 31 -24 43 -35 13 -11 26 -18 28 -16 7 6 -68 67
-81 67 -5 0 -1 -7 10 -16z"/>
<path d="M6311 6034 c0 -11 3 -14 6 -6 3 7 2 16 -1 19 -3 4 -6 -2 -5 -13z"/>
<path d="M5316 6031 c-4 -7 -5 -15 -2 -18 9 -9 19 4 14 18 -4 11 -6 11 -12 0z"/>
<path d="M6483 6005 c0 -22 2 -30 4 -17 2 12 2 30 0 40 -3 9 -5 -1 -4 -23z"/>
<path d="M6830 6021 c0 -6 5 -13 10 -16 6 -3 10 1 10 9 0 9 -4 16 -10 16 -5 0
-10 -4 -10 -9z"/>
<path d="M5207 6014 c-3 -3 -3 -13 0 -21 5 -12 7 -12 14 -1 15 23 4 40 -14 22z"/>
<path d="M6026 5981 c-4 -7 -5 -15 -2 -18 9 -9 19 4 14 18 -4 11 -6 11 -12 0z"/>
<path d="M6160 5969 c0 -5 5 -7 10 -4 6 3 10 8 10 11 0 2 -4 4 -10 4 -5 0 -10
-5 -10 -11z"/>
<path d="M6815 5969 c-10 -15 3 -25 16 -12 7 7 7 13 1 17 -6 3 -14 1 -17 -5z"/>
<path d="M5191 5954 c0 -11 3 -14 6 -6 3 7 2 16 -1 19 -3 4 -6 -2 -5 -13z"/>
<path d="M6481 5934 c0 -11 3 -14 6 -6 3 7 2 16 -1 19 -3 4 -6 -2 -5 -13z"/>
<path d="M5730 5931 c0 -5 5 -13 10 -16 6 -3 10 -2 10 4 0 5 -4 13 -10 16 -5
3 -10 2 -10 -4z"/>
<path d="M6005 5927 c-4 -10 -5 -21 -1 -24 10 -10 18 4 13 24 -4 17 -4 17 -12
0z"/>
<path d="M5452 5910 c-28 -26 -28 -40 -1 -40 11 0 29 -5 40 -11 11 -5 30 -9
42 -6 16 2 9 7 -25 16 -28 8 -48 19 -48 27 0 8 6 14 14 14 8 0 18 5 21 10 11
18 -21 10 -43 -10z"/>
<path d="M5563 5919 c9 -5 17 -17 17 -24 0 -8 5 -15 10 -15 18 0 11 29 -9 40
-25 13 -42 13 -18 -1z"/>
<path d="M5170 5904 c0 -8 5 -12 10 -9 6 4 8 11 5 16 -9 14 -15 11 -15 -7z"/>
<path d="M6790 5904 c0 -9 5 -14 12 -12 18 6 21 28 4 28 -9 0 -16 -7 -16 -16z"/>
<path d="M5277 5903 c-4 -3 -7 -11 -7 -17 0 -6 5 -5 12 2 6 6 9 14 7 17 -3 3
-9 2 -12 -2z"/>
<path d="M5987 5875 c-4 -8 -2 -17 3 -20 6 -4 10 3 10 14 0 25 -6 27 -13 6z"/>
<path d="M6311 5874 c0 -11 3 -14 6 -6 3 7 2 16 -1 19 -3 4 -6 -2 -5 -13z"/>
<path d="M5150 5849 c0 -11 5 -17 10 -14 6 3 10 13 10 21 0 8 -4 14 -10 14 -5
0 -10 -9 -10 -21z"/>
<path d="M6780 5854 c0 -8 5 -12 10 -9 6 3 10 10 10 16 0 5 -4 9 -10 9 -5 0
-10 -7 -10 -16z"/>
<path d="M5256 5851 c-4 -7 -5 -15 -2 -18 9 -9 19 4 14 18 -4 11 -6 11 -12 0z"/>
<path d="M4215 5840 c-8 -12 53 -43 72 -36 8 3 11 11 8 17 -4 6 -13 8 -20 5
-8 -3 -19 2 -25 10 -14 16 -26 18 -35 4z"/>
<path d="M5565 5840 c3 -5 13 -10 21 -10 8 0 14 5 14 10 0 6 -9 10 -21 10 -11
0 -17 -4 -14 -10z"/>
<path d="M6460 5834 c0 -8 5 -12 10 -9 6 3 10 10 10 16 0 5 -4 9 -10 9 -5 0
-10 -7 -10 -16z"/>
<path d="M4460 5831 c0 -6 8 -11 18 -11 10 0 22 -4 28 -9 5 -5 29 -12 54 -15
25 -3 38 -3 30 0 -8 4 -22 12 -30 19 -21 18 -100 30 -100 16z"/>
<path d="M6290 5820 c0 -17 -105 -133 -155 -170 -29 -22 -66 -39 -95 -43 -23
-4 -23 -4 3 -6 74 -3 221 119 256 212 7 17 7 27 1 27 -6 0 -10 -9 -10 -20z"/>
<path d="M5801 5814 c0 -11 3 -14 6 -6 3 7 2 16 -1 19 -3 4 -6 -2 -5 -13z"/>
<path d="M5971 5814 c0 -11 3 -14 6 -6 3 7 2 16 -1 19 -3 4 -6 -2 -5 -13z"/>
<path d="M5130 5803 c0 -10 12 -24 27 -30 33 -16 43 -16 43 -3 0 6 -7 10 -15
10 -8 0 -20 9 -27 20 -16 25 -28 26 -28 3z"/>
<path d="M6760 5805 c0 -8 5 -15 10 -15 6 0 10 7 10 15 0 8 -4 15 -10 15 -5 0
-10 -7 -10 -15z"/>
<path d="M5235 5801 c-3 -5 -1 -12 5 -16 5 -3 10 1 10 9 0 18 -6 21 -15 7z"/>
<path d="M4435 5790 c-3 -5 -1 -10 4 -10 6 0 11 5 11 10 0 6 -2 10 -4 10 -3 0
-8 -4 -11 -10z"/>
<path d="M5397 5783 c-11 -19 7 -75 30 -90 31 -21 45 -7 15 16 -13 9 -24 29
-26 44 -3 30 -11 43 -19 30z"/>
<path d="M5957 5784 c-4 -4 -7 -14 -7 -23 0 -11 3 -12 11 -4 6 6 10 16 7 23
-2 6 -7 8 -11 4z"/>
<path d="M6428 5748 c-23 -53 -15 -63 8 -12 10 22 20 42 22 47 2 4 0 7 -5 7
-4 0 -16 -19 -25 -42z"/>
<path d="M4976 5748 c14 -47 93 -108 138 -108 13 0 26 -5 28 -12 2 -6 10 -8
17 -4 9 6 5 12 -14 22 -15 8 -34 14 -41 14 -25 0 -83 44 -101 78 -20 37 -38
43 -27 10z"/>
<path d="M5230 5756 c0 -8 5 -18 10 -21 6 -3 10 1 10 9 0 8 -4 18 -10 21 -5 3
-10 -1 -10 -9z"/>
<path d="M5435 5760 c3 -5 13 -10 21 -10 8 0 14 5 14 10 0 6 -9 10 -21 10 -11
0 -17 -4 -14 -10z"/>
<path d="M6740 5755 c0 -8 5 -15 10 -15 6 0 10 7 10 15 0 8 -4 15 -10 15 -5 0
-10 -7 -10 -15z"/>
<path d="M4760 5741 c0 -5 15 -11 33 -14 17 -3 42 -8 55 -12 35 -12 25 10 -11
23 -39 14 -77 16 -77 3z"/>
<path d="M5495 5740 c3 -5 13 -10 21 -10 8 0 14 5 14 10 0 6 -9 10 -21 10 -11
0 -17 -4 -14 -10z"/>
<path d="M4435 5730 c3 -5 8 -10 11 -10 2 0 4 5 4 10 0 6 -5 10 -11 10 -5 0
-7 -4 -4 -10z"/>
<path d="M5197 5706 c-20 -44 -21 -56 -7 -56 6 0 10 8 10 18 0 10 5 23 11 29
6 6 9 19 7 29 -3 14 -9 9 -21 -20z"/>
<path d="M5937 5730 c-55 -148 -77 -210 -82 -235 -7 -28 -6 -29 7 -10 8 11 22
47 32 80 21 66 30 93 47 129 6 13 9 30 6 38 -4 10 -6 10 -10 -2z"/>
<path d="M5563 5719 c14 -8 22 -8 30 0 8 8 3 11 -18 11 -26 -1 -28 -2 -12 -11z"/>
<path d="M5761 5714 c0 -11 3 -14 6 -6 3 7 2 16 -1 19 -3 4 -6 -2 -5 -13z"/>
<path d="M4400 5706 c0 -8 5 -18 10 -21 6 -3 10 3 10 14 0 12 -4 21 -10 21 -5
0 -10 -6 -10 -14z"/>
<path d="M5625 5710 c-4 -6 3 -10 14 -10 25 0 27 6 6 13 -8 4 -17 2 -20 -3z"/>
<path d="M6725 5707 c-4 -10 -5 -21 -1 -24 10 -10 18 4 13 24 -4 17 -4 17 -12
0z"/>
<path d="M4357 5703 c-4 -3 -7 -11 -7 -17 0 -6 5 -5 12 2 6 6 9 14 7 17 -3 3
-9 2 -12 -2z"/>
<path d="M5247 5690 c3 -10 26 -41 52 -69 57 -61 132 -92 222 -89 90 2 82 18
-10 18 -44 0 -83 5 -86 10 -3 6 -14 10 -23 10 -26 0 -109 70 -127 108 -17 35
-36 44 -28 12z"/>
<path d="M4455 5690 c3 -5 8 -10 11 -10 2 0 4 5 4 10 0 6 -5 10 -11 10 -5 0
-7 -4 -4 -10z"/>
<path d="M5475 5679 c-4 -5 14 -9 39 -9 25 0 46 4 46 9 0 12 -78 12 -85 0z"/>
<path d="M6335 5623 c-50 -56 -74 -72 -165 -115 -58 -27 -113 -54 -122 -59
-10 -5 -34 -9 -53 -9 -22 0 -34 -4 -30 -10 3 -5 19 -10 35 -10 16 0 32 5 35
10 3 6 14 10 23 10 27 0 193 87 243 127 45 37 117 124 102 122 -4 0 -35 -30
-68 -66z"/>
<path d="M5615 5659 c9 -28 24 -49 35 -49 10 0 -17 57 -32 66 -7 4 -8 -2 -3
-17z"/>
<path d="M5740 5664 c0 -8 5 -12 10 -9 6 3 10 10 10 16 0 5 -4 9 -10 9 -5 0
-10 -7 -10 -16z"/>
<path d="M4415 5660 c-3 -5 -3 -15 1 -21 6 -11 23 6 24 24 0 10 -18 9 -25 -3z"/>
<path d="M4480 5660 c0 -5 7 -10 15 -10 8 0 15 5 15 10 0 6 -7 10 -15 10 -8 0
-15 -4 -15 -10z"/>
<path d="M6705 5655 c-4 -11 -11 -31 -16 -44 -7 -16 -6 -28 0 -34 7 -7 12 0
17 19 4 16 10 34 15 39 4 6 4 17 -1 25 -7 12 -10 11 -15 -5z"/>
<path d="M4380 5632 c6 -13 14 -21 18 -18 3 4 -2 14 -12 24 -18 16 -18 16 -6
-6z"/>
<path d="M5722 5608 c-4 -18 -6 -44 -4 -57 5 -25 84 -111 102 -111 18 0 11 16
-14 29 -45 24 -71 71 -69 124 3 55 -3 60 -15 15z"/>
<path d="M4340 5603 c-13 -15 -12 -16 3 -10 9 3 17 2 17 -3 0 -6 9 -10 20 -10
11 0 23 -7 26 -15 4 -8 10 -12 16 -9 8 5 -48 63 -62 63 -3 0 -12 -7 -20 -16z"/>
<path d="M5965 5587 c-16 -13 -15 -14 13 -9 18 2 32 8 32 13 0 13 -24 11 -45
-4z"/>
<path d="M4450 5570 c0 -5 7 -10 15 -10 8 0 15 5 15 10 0 6 -7 10 -15 10 -8 0
-15 -4 -15 -10z"/>
<path d="M5600 5560 c0 -5 9 -10 20 -10 11 0 20 5 20 10 0 6 -9 10 -20 10 -11
0 -20 -4 -20 -10z"/>
<path d="M5925 5547 c-4 -10 -5 -21 -1 -24 10 -10 18 4 13 24 -4 17 -4 17 -12
0z"/>
<path d="M6670 5539 c0 -11 5 -17 10 -14 6 3 10 13 10 21 0 8 -4 14 -10 14 -5
0 -10 -9 -10 -21z"/>
<path d="M4476 5535 c4 -8 8 -15 10 -15 2 0 4 7 4 15 0 8 -4 15 -10 15 -5 0
-7 -7 -4 -15z"/>
<path d="M5902 5481 c-16 -45 -15 -50 4 -23 8 12 14 30 12 40 -3 11 -8 6 -16
-17z"/>
<path d="M6651 5497 c-7 -9 -10 -21 -7 -26 4 -5 2 -12 -4 -16 -5 -3 -10 -13
-10 -22 0 -9 -7 -21 -15 -27 -17 -12 -25 -84 -10 -86 5 -1 17 27 28 62 10 35
23 73 29 85 14 29 7 50 -11 30z"/>
<path d="M4630 5490 c0 -5 5 -10 10 -10 6 0 10 5 10 10 0 6 -4 10 -10 10 -5 0
-10 -4 -10 -10z"/>
<path d="M5918 5413 c6 -2 18 -2 25 0 6 3 1 5 -13 5 -14 0 -19 -2 -12 -5z"/>
<path d="M5770 5370 c0 -5 9 -10 19 -10 11 0 23 5 26 10 4 6 -5 10 -19 10 -14
0 -26 -4 -26 -10z"/>
<path d="M5703 5362 c-29 -2 -53 -7 -53 -13 0 -12 80 -12 100 1 21 13 12 15
-47 12z"/>
<path d="M5838 5327 c-30 -59 -59 -149 -47 -145 7 2 22 33 34 68 12 36 25 73
30 83 14 32 0 27 -17 -6z"/>
<path d="M5183 5342 c-13 -2 -23 -8 -23 -13 0 -5 86 -9 208 -9 197 0 252 4
252 19 0 6 -395 9 -437 3z"/>
<path d="M6500 5210 c0 -5 5 -10 10 -10 6 0 10 5 10 10 0 6 -4 10 -10 10 -5 0
-10 -4 -10 -10z"/>
<path d="M6425 5180 c-3 -5 -1 -10 4 -10 6 0 11 5 11 10 0 6 -2 10 -4 10 -3 0
-8 -4 -11 -10z"/>
<path d="M4697 5163 c-10 -9 -9 -23 2 -23 5 0 11 7 15 15 5 15 -5 20 -17 8z"/>
<path d="M4790 5131 c-14 -4 -20 -10 -14 -13 13 -9 54 1 54 13 0 10 -4 10 -40
0z"/>
<path d="M4707 5123 c-13 -12 -7 -33 8 -33 8 0 15 9 15 20 0 20 -11 26 -23 13z"/>
<path d="M4876 5117 c3 -10 9 -15 12 -12 3 3 0 11 -7 18 -10 9 -11 8 -5 -6z"/>
<path d="M6362 5108 c3 -7 15 -14 29 -16 24 -4 24 -3 4 12 -24 19 -38 20 -33
4z"/>
<path d="M4600 5090 c0 -5 5 -10 10 -10 6 0 10 5 10 10 0 6 -4 10 -10 10 -5 0
-10 -4 -10 -10z"/>
<path d="M4770 5076 c0 -17 22 -56 31 -56 6 0 9 7 5 15 -3 8 -1 15 5 15 6 0 8
4 4 10 -3 5 -13 6 -22 3 -11 -4 -14 -3 -9 5 4 7 2 12 -3 12 -6 0 -11 -2 -11
-4z"/>
<path d="M6340 5070 c0 -6 7 -13 15 -16 8 -4 15 -12 15 -20 0 -18 -5 -18 -33
0 -18 12 -25 13 -40 1 -13 -9 -15 -15 -6 -20 6 -4 15 -1 20 6 7 11 12 9 25 -9
15 -23 17 -23 34 -5 15 16 16 21 3 46 -13 27 -33 37 -33 17z"/>
<path d="M6430 5070 c0 -5 5 -10 10 -10 6 0 10 5 10 10 0 6 -4 10 -10 10 -5 0
-10 -4 -10 -10z"/>
<path d="M4860 5045 c0 -8 7 -15 16 -15 14 0 14 3 4 15 -7 8 -14 15 -16 15 -2
0 -4 -7 -4 -15z"/>
<path d="M6255 5050 c3 -5 8 -10 11 -10 2 0 4 5 4 10 0 6 -5 10 -11 10 -5 0
-7 -4 -4 -10z"/>
<path d="M4942 5014 c-17 -19 -15 -29 3 -14 12 10 18 10 30 0 8 -7 15 -8 15
-4 0 5 -8 14 -18 20 -13 9 -20 8 -30 -2z"/>
<path d="M4730 5006 c0 -22 27 -27 33 -5 4 14 0 19 -14 19 -10 0 -19 -6 -19
-14z"/>
<path d="M4860 5012 c0 -10 33 -42 43 -42 15 0 5 19 -18 34 -14 9 -25 13 -25
8z"/>
<path d="M5335 5010 c-3 -5 -1 -10 4 -10 6 0 11 5 11 10 0 6 -2 10 -4 10 -3 0
-8 -4 -11 -10z"/>
<path d="M6120 5000 c0 -5 5 -10 11 -10 5 0 7 5 4 10 -3 6 -8 10 -11 10 -2 0
-4 -4 -4 -10z"/>
<path d="M6242 4984 c-10 -11 -17 -12 -27 -4 -10 8 -12 4 -12 -17 0 -16 2 -22
4 -15 7 18 27 15 41 -8 7 -11 17 -20 22 -20 17 0 11 28 -7 39 -10 5 -14 13
-10 17 4 4 12 3 18 -3 13 -13 39 -6 39 9 0 6 -7 8 -15 5 -8 -4 -17 -2 -20 3
-8 14 -18 12 -33 -6z"/>
<path d="M5300 4980 c0 -5 5 -10 10 -10 6 0 10 5 10 10 0 6 -4 10 -10 10 -5 0
-10 -4 -10 -10z"/>
<path d="M5040 4971 c0 -5 7 -12 16 -15 14 -5 15 -4 4 9 -14 17 -20 19 -20 6z"/>
<path d="M4926 4955 c-3 -8 -1 -15 4 -15 6 0 10 7 10 15 0 8 -2 15 -4 15 -2 0
-6 -7 -10 -15z"/>
<path d="M5265 4960 c-3 -5 -1 -10 4 -10 6 0 11 5 11 10 0 6 -2 10 -4 10 -3 0
-8 -4 -11 -10z"/>
<path d="M6137 4963 c-11 -10 -8 -23 6 -23 16 -1 53 -32 59 -50 3 -11 8 -10
17 7 9 18 9 22 -2 17 -7 -2 -24 9 -37 26 -24 31 -32 35 -43 23z"/>
<path d="M4980 4953 c0 -14 19 -38 25 -32 8 8 -5 39 -16 39 -5 0 -9 -3 -9 -7z"/>
<path d="M5024 4908 l-29 -33 30 25 c17 14 34 28 40 32 5 5 5 8 -1 8 -6 0 -23
-15 -40 -32z"/>
<path d="M6015 4931 c-3 -5 -1 -12 5 -16 5 -3 10 1 10 9 0 18 -6 21 -15 7z"/>
<path d="M4942 4906 c-14 -32 -16 -58 -3 -37 8 12 12 13 25 1 22 -18 33 -4 14
17 -9 10 -17 24 -20 32 -2 8 -8 3 -16 -13z"/>
<path d="M5310 4910 c0 -11 5 -20 10 -20 6 0 10 9 10 20 0 11 -4 20 -10 20 -5
0 -10 -9 -10 -20z"/>
<path d="M5730 4920 c0 -5 5 -10 11 -10 5 0 7 5 4 10 -3 6 -8 10 -11 10 -2 0
-4 -4 -4 -10z"/>
<path d="M5225 4911 c-3 -5 -1 -12 5 -16 5 -3 10 -3 10 1 0 3 7 0 17 -7 15
-13 15 -12 4 9 -12 23 -26 28 -36 13z"/>
<path d="M5680 4915 c0 -7 39 -45 45 -45 9 0 -29 49 -37 50 -5 0 -8 -2 -8 -5z"/>
<path d="M5640 4896 c0 -10 -9 -16 -25 -16 -15 0 -25 -6 -25 -14 0 -11 6 -11
35 2 36 17 42 26 25 37 -5 3 -10 -1 -10 -9z"/>
<path d="M5460 4885 c0 -5 5 -17 10 -25 5 -8 10 -10 10 -5 0 6 -5 17 -10 25
-5 8 -10 11 -10 5z"/>
<path d="M5530 4870 c0 -5 5 -10 10 -10 6 0 10 5 10 10 0 6 -4 10 -10 10 -5 0
-10 -4 -10 -10z"/>
<path d="M5200 4860 c0 -5 5 -10 10 -10 6 0 10 5 10 10 0 6 -4 10 -10 10 -5 0
-10 -4 -10 -10z"/>
<path d="M5650 4860 c0 -6 7 -10 15 -10 8 0 15 2 15 4 0 2 -7 6 -15 10 -8 3
-15 1 -15 -4z"/>
<path d="M5310 4844 c0 -8 5 -12 10 -9 6 3 10 10 10 16 0 5 -4 9 -10 9 -5 0
-10 -7 -10 -16z"/>
<path d="M5807 4840 c-3 -11 -2 -22 3 -25 4 -3 10 4 13 15 3 11 2 22 -3 25 -4
3 -10 -4 -13 -15z"/>
<path d="M5246 4842 c-7 -13 29 -45 56 -49 12 -2 20 -2 17 -1 -2 2 -18 16 -35
31 -18 16 -34 24 -38 19z"/>
<path d="M5336 4831 c-3 -5 6 -16 20 -26 26 -17 41 -15 29 4 -10 17 -43 32
-49 22z"/>
<path d="M5425 4830 c-3 -5 -1 -10 4 -10 6 0 11 5 11 10 0 6 -2 10 -4 10 -3 0
-8 -4 -11 -10z"/>
<path d="M5710 4824 c0 -8 5 -12 10 -9 6 3 10 10 10 16 0 5 -4 9 -10 9 -5 0
-10 -7 -10 -16z"/>
<path d="M5985 4830 c-3 -5 -1 -10 4 -10 6 0 11 5 11 10 0 6 -2 10 -4 10 -3 0
-8 -4 -11 -10z"/>
<path d="M5495 4820 c3 -5 8 -10 11 -10 2 0 4 5 4 10 0 6 -5 10 -11 10 -5 0
-7 -4 -4 -10z"/>
<path d="M5556 4821 c-4 -5 3 -7 14 -4 23 6 26 13 6 13 -8 0 -17 -4 -20 -9z"/>
<path d="M5643 4812 c12 -13 26 -18 39 -14 22 5 13 13 -32 27 -24 8 -25 7 -7
-13z"/>
<path d="M5950 4809 c0 -16 23 -36 42 -36 14 0 12 5 -8 24 -28 26 -34 28 -34
12z"/>
<path d="M5226 4794 c-4 -10 -1 -14 6 -12 15 5 23 28 10 28 -5 0 -13 -7 -16
-16z"/>
<path d="M5610 4796 c0 -9 5 -16 10 -16 6 0 10 4 10 9 0 6 -4 13 -10 16 -5 3
-10 -1 -10 -9z"/>
<path d="M5180 4784 c0 -8 5 -12 10 -9 6 3 10 10 10 16 0 5 -4 9 -10 9 -5 0
-10 -7 -10 -16z"/>
<path d="M5330 4773 c0 -4 12 -13 26 -20 22 -10 25 -9 22 5 -3 17 -48 31 -48
15z"/>
<path d="M1736 4043 c4 -21 11 -49 17 -63 8 -20 11 -21 14 -8 2 9 -1 26 -6 37
-6 11 -11 29 -11 40 0 11 -5 23 -11 26 -7 5 -8 -5 -3 -32z"/>
<path d="M7369 3367 c-19 -12 -35 -31 -37 -40 -3 -14 6 -11 42 14 42 28 58 49
37 49 -4 0 -23 -10 -42 -23z"/>
<path d="M2937 3359 c7 -7 15 -10 18 -7 3 3 -2 9 -12 12 -14 6 -15 5 -6 -5z"/>
<path d="M2995 3343 c13 -12 114 -53 131 -53 7 0 28 -6 46 -14 42 -18 205 -70
283 -91 33 -9 69 -20 80 -24 46 -18 124 -44 175 -57 30 -8 69 -21 87 -29 17
-8 41 -15 52 -15 12 0 29 -4 39 -9 9 -5 53 -19 97 -32 44 -12 84 -26 90 -31 5
-4 19 -8 32 -8 13 0 31 -4 41 -9 9 -5 55 -20 102 -34 47 -14 130 -39 185 -56
55 -16 127 -37 160 -46 33 -9 85 -25 115 -35 30 -10 82 -26 115 -35 33 -9 76
-22 95 -30 42 -16 118 -39 180 -55 25 -6 54 -15 65 -19 18 -8 64 -21 180 -53
87 -23 104 -30 115 -44 16 -18 30 -18 30 1 0 24 -40 43 -176 85 -71 21 -241
73 -379 115 -137 42 -367 111 -510 155 -238 72 -525 159 -860 262 -71 22 -152
46 -180 54 -27 8 -79 23 -115 34 -36 11 -105 31 -155 45 -49 14 -99 28 -110
31 -13 4 -16 3 -10 -3z"/>
<path d="M2460 3326 c0 -13 93 -47 103 -37 6 6 2 13 -10 19 -24 13 -93 26 -93
18z"/>
<path d="M5575 2380 c3 -5 8 -10 11 -10 2 0 4 5 4 10 0 6 -5 10 -11 10 -5 0
-7 -4 -4 -10z"/>
<path d="M6605 2056 c35 -18 105 -22 89 -6 -6 6 -35 13 -65 15 -53 5 -54 5
-24 -9z"/>
<path d="M4035 2671 c-6 -11 9 -23 19 -14 9 9 7 23 -3 23 -6 0 -12 -4 -16 -9z"/>
<path d="M4140 2620 c0 -5 5 -10 10 -10 6 0 10 5 10 10 0 6 -4 10 -10 10 -5 0
-10 -4 -10 -10z"/>
<path d="M6133 7940 c9 -6 17 -18 17 -27 0 -13 3 -14 12 -5 7 7 23 12 38 12
35 1 7 16 -45 25 -31 5 -36 4 -22 -5z"/>
<path d="M6257 7897 c14 -19 21 -21 39 -13 22 10 22 11 -8 23 -44 19 -51 16
-31 -10z"/>
<path d="M6486 7835 c21 -21 28 -23 44 -13 17 11 16 13 -18 25 -52 18 -55 16
-26 -12z"/>
<path d="M6620 7795 c0 -13 4 -14 20 -5 11 6 20 13 20 15 0 3 -9 5 -20 5 -11
0 -20 -7 -20 -15z"/>
<path d="M6720 7782 c1 -21 18 -32 38 -25 21 8 21 9 -8 20 -16 6 -30 8 -30 5z"/>
<path d="M6840 7740 c20 -13 33 -13 25 0 -3 6 -14 10 -23 10 -15 0 -15 -2 -2
-10z"/>
<path d="M6898 7723 c7 -3 16 -2 19 1 4 3 -2 6 -13 5 -11 0 -14 -3 -6 -6z"/>
<path d="M7168 7653 c7 -3 16 -2 19 1 4 3 -2 6 -13 5 -11 0 -14 -3 -6 -6z"/>
<path d="M9040 7092 c0 -5 7 -15 15 -22 8 -7 15 -8 15 -2 0 5 -7 15 -15 22 -8
7 -15 8 -15 2z"/>
<path d="M9128 7067 c-3 -19 -2 -25 4 -19 6 6 8 18 6 28 -3 14 -5 12 -10 -9z"/>
<path d="M9041 6804 c0 -11 3 -14 6 -6 3 7 2 16 -1 19 -3 4 -6 -2 -5 -13z"/>
<path d="M8846 6225 c-3 -8 -1 -15 4 -15 6 0 10 7 10 15 0 8 -2 15 -4 15 -2 0
-6 -7 -10 -15z"/>
<path d="M8621 5526 c-6 -16 -10 -31 -7 -33 7 -8 28 37 23 50 -3 7 -10 -1 -16
-17z"/>
<path d="M1631 5378 c-7 -18 -21 -52 -32 -74 -10 -23 -21 -55 -25 -70 -4 -16
-16 -44 -26 -63 -10 -18 -17 -38 -15 -45 3 -6 9 0 15 14 5 14 24 55 41 91 17
36 31 73 31 82 0 9 5 19 10 22 6 3 10 15 10 26 0 10 5 19 10 19 6 0 10 7 10
15 0 25 -14 17 -29 -17z"/>
<path d="M8537 5277 c-11 -29 -9 -43 4 -30 6 6 9 19 7 29 -3 18 -4 18 -11 1z"/>
<path d="M8520 5215 c-6 -8 -10 -22 -8 -32 3 -13 7 -9 15 15 13 35 12 39 -7
17z"/>
<path d="M8487 5113 c-4 -3 -7 -13 -7 -22 1 -13 3 -13 11 2 11 19 8 33 -4 20z"/>
<path d="M1517 5093 c-4 -3 -7 -11 -7 -17 0 -6 5 -5 12 2 6 6 9 14 7 17 -3 3
-9 2 -12 -2z"/>
<path d="M1495 5051 c-3 -5 -1 -12 5 -16 5 -3 10 1 10 9 0 18 -6 21 -15 7z"/>
<path d="M8451 5010 c-5 -16 -7 -30 -3 -30 4 0 13 14 19 30 6 17 8 30 3 30 -4
0 -13 -13 -19 -30z"/>
<path d="M1481 4994 c0 -11 3 -14 6 -6 3 7 2 16 -1 19 -3 4 -6 -2 -5 -13z"/>
<path d="M1450 4930 c-7 -17 -10 -33 -8 -36 3 -3 11 9 17 27 14 42 7 49 -9 9z"/>
<path d="M8405 4865 c-10 -25 -15 -48 -13 -51 3 -3 13 16 22 42 21 62 13 69
-9 9z"/>
<path d="M1420 4864 c0 -8 5 -12 10 -9 6 3 10 10 10 16 0 5 -4 9 -10 9 -5 0
-10 -7 -10 -16z"/>
<path d="M1405 4824 c-4 -10 -13 -34 -21 -53 -24 -54 -10 -46 16 9 13 27 20
53 17 56 -4 4 -9 -2 -12 -12z"/>
<path d="M8367 4767 c-11 -29 -9 -43 4 -30 6 6 9 19 7 29 -3 18 -4 18 -11 1z"/>
<path d="M8327 4650 c-15 -41 -27 -87 -27 -102 0 -15 -4 -30 -10 -33 -5 -3
-10 -14 -10 -23 1 -25 29 27 30 54 0 11 4 24 9 30 14 15 43 112 39 131 -2 10
-16 -16 -31 -57z"/>
<path d="M1350 4694 c0 -8 5 -12 10 -9 6 4 8 11 5 16 -9 14 -15 11 -15 -7z"/>
<path d="M1335 4649 c-4 -6 -5 -12 -2 -15 2 -3 7 2 10 11 7 17 1 20 -8 4z"/>
<path d="M1315 4610 c-3 -5 -1 -10 4 -10 6 0 11 5 11 10 0 6 -2 10 -4 10 -3 0
-8 -4 -11 -10z"/>
<path d="M1301 4554 c0 -11 3 -14 6 -6 3 7 2 16 -1 19 -3 4 -6 -2 -5 -13z"/>
<path d="M1282 4510 c0 -14 2 -19 5 -12 2 6 2 18 0 25 -3 6 -5 1 -5 -13z"/>
<path d="M8267 4463 c-4 -3 -7 -12 -7 -19 0 -7 -5 -25 -12 -41 -18 -45 -47
-127 -48 -135 0 -5 4 -8 10 -8 5 0 23 45 41 101 29 93 33 119 16 102z"/>
<path d="M1237 4413 c-2 -10 -8 -27 -12 -38 -12 -30 9 -6 23 28 6 15 8 27 3
27 -5 0 -11 -8 -14 -17z"/>
<path d="M1201 4326 c-13 -33 -9 -43 8 -22 7 8 11 23 8 33 -3 14 -6 12 -16
-11z"/>
<path d="M8183 4235 c-3 -9 -3 -18 0 -21 9 -9 27 6 27 22 0 19 -19 18 -27 -1z"/>
<path d="M1153 4205 c-3 -9 -3 -18 -1 -21 3 -3 8 4 11 16 6 23 -1 27 -10 5z"/>
<path d="M8162 4153 c-7 -21 -19 -58 -26 -83 -7 -25 -20 -61 -29 -80 -8 -19
-30 -82 -47 -140 -18 -58 -36 -109 -41 -114 -5 -6 -9 -22 -9 -37 0 -15 -4 -31
-10 -34 -5 -3 -10 -20 -10 -38 0 -18 4 -27 9 -21 16 16 102 294 95 305 -4 6
-1 14 5 18 10 7 91 230 91 252 0 22 -16 6 -28 -28z"/>
<path d="M1126 4148 c-11 -42 -5 -53 9 -19 18 39 18 41 6 41 -5 0 -11 -10 -15
-22z"/>
<path d="M1077 4031 c-22 -63 -21 -75 2 -31 11 19 17 38 15 42 -2 4 0 9 6 13
12 7 13 25 2 25 -4 0 -15 -22 -25 -49z"/>
<path d="M1036 3931 c-17 -32 -22 -72 -7 -55 11 12 32 76 27 82 -3 2 -12 -10
-20 -27z"/>
<path d="M1001 3842 c-6 -12 -11 -29 -10 -39 0 -11 6 -6 15 16 16 37 12 55 -5
23z"/>
<path d="M973 3764 c-3 -10 -11 -22 -16 -25 -5 -4 -7 -15 -5 -25 3 -15 8 -11
22 19 10 21 16 40 13 44 -4 3 -10 -3 -14 -13z"/>
<path d="M935 3677 c-4 -10 -5 -21 -1 -24 10 -10 18 4 13 24 -4 17 -4 17 -12
0z"/>
<path d="M911 3623 c-5 -10 -11 -27 -12 -38 -2 -11 -7 -22 -10 -25 -8 -8 -49
-99 -49 -110 0 -10 -5 -22 -28 -67 -7 -12 -14 -40 -18 -62 -6 -38 -5 -40 22
-46 16 -3 49 -13 74 -22 62 -22 100 -27 100 -14 0 15 31 1 58 -26 22 -22 69
-33 57 -13 -3 6 -15 10 -27 10 -12 0 -18 5 -15 13 6 16 -47 41 -73 34 -11 -3
-23 -1 -26 4 -3 5 -22 9 -43 9 -47 0 -101 18 -101 33 0 7 5 30 12 52 6 22 11
45 10 52 -2 6 2 14 8 18 5 3 10 13 10 20 0 8 13 43 28 77 29 64 46 118 38 118
-3 0 -10 -8 -15 -17z"/>
<path d="M845 3310 c3 -5 10 -10 16 -10 5 0 9 5 9 10 0 6 -7 10 -16 10 -8 0
-12 -4 -9 -10z"/>
<path d="M1120 3192 c0 -4 30 -15 68 -25 37 -10 78 -23 92 -29 27 -11 149 -46
190 -55 21 -4 20 -2 -10 18 -19 12 -51 23 -70 24 -31 1 -63 12 -139 49 -13 6
-32 10 -42 8 -9 -2 -20 2 -24 8 -7 11 -65 14 -65 2z"/>
<path d="M1515 3072 c6 -7 26 -15 45 -18 26 -5 32 -4 25 4 -6 7 -26 15 -45 18
-26 5 -32 4 -25 -4z"/>
<path d="M1670 3020 c8 -5 33 -12 55 -16 22 -3 48 -10 58 -16 32 -16 17 0 -19
21 -34 21 -126 32 -94 11z"/>
<path d="M1815 2980 c3 -5 14 -10 23 -10 15 0 15 2 2 10 -20 13 -33 13 -25 0z"/>
<path d="M1882 2968 c3 -7 15 -15 29 -16 13 -2 28 -8 34 -13 5 -5 16 -9 24 -9
23 0 2 15 -47 34 -33 12 -43 13 -40 4z"/>
<path d="M2064 2905 c15 -8 33 -15 40 -15 6 0 -2 7 -18 15 -15 8 -33 15 -40
15 -6 0 2 -7 18 -15z"/>
<path d="M2160 2880 c0 -5 9 -10 21 -10 11 0 17 5 14 10 -3 6 -13 10 -21 10
-8 0 -14 -4 -14 -10z"/>
<path d="M2390 2810 c0 -5 7 -10 16 -10 8 0 12 5 9 10 -3 6 -10 10 -16 10 -5
0 -9 -4 -9 -10z"/>
<path d="M2715 2710 c28 -12 37 -12 30 0 -3 6 -16 10 -28 9 -21 0 -21 -1 -2
-9z"/>
<path d="M2980 2630 c8 -5 20 -10 25 -10 6 0 3 5 -5 10 -8 5 -19 10 -25 10 -5
0 -3 -5 5 -10z"/>
<path d="M5128 2013 c7 -3 16 -2 19 1 4 3 -2 6 -13 5 -11 0 -14 -3 -6 -6z"/>
<path d="M5175 2000 c3 -5 13 -10 21 -10 8 0 12 5 9 10 -3 6 -13 10 -21 10 -8
0 -12 -4 -9 -10z"/>
<path d="M5228 1983 c7 -3 16 -2 19 1 4 3 -2 6 -13 5 -11 0 -14 -3 -6 -6z"/>
<path d="M5405 1930 c3 -5 10 -10 16 -10 5 0 9 5 9 10 0 6 -7 10 -16 10 -8 0
-12 -4 -9 -10z"/>
<path d="M5605 1870 c4 -6 11 -8 16 -5 14 9 11 15 -7 15 -8 0 -12 -5 -9 -10z"/>
<path d="M5653 1853 c9 -2 23 -2 30 0 6 3 -1 5 -18 5 -16 0 -22 -2 -12 -5z"/>
</g>
</svg>
